ISO-10303-21;
HEADER;
FILE_DESCRIPTION(('Open CASCADE Model'),'2;1');
FILE_NAME('Open CASCADE Shape Model','1970-01-01T00:00:00',('Author'),(
    'Open CASCADE'),'Open CASCADE STEP processor 7.9','build123d',
  'Unknown');
FILE_SCHEMA(('AUTOMOTIVE_DESIGN { 1 0 10303 214 1 1 1 1 }'));
ENDSEC;
DATA;
#1 = APPLICATION_PROTOCOL_DEFINITION('international standard',
  'automotive_design',2000,#2);
#2 = APPLICATION_CONTEXT(
  'core data for automotive mechanical design processes');
#3 = SHAPE_DEFINITION_REPRESENTATION(#4,#10);
#4 = PRODUCT_DEFINITION_SHAPE('','',#5);
#5 = PRODUCT_DEFINITION('design','',#6,#9);
#6 = PRODUCT_DEFINITION_FORMATION('','',#7);
#7 = PRODUCT('COMPOUND','COMPOUND','',(#8));
#8 = PRODUCT_CONTEXT('',#2,'mechanical');
#9 = PRODUCT_DEFINITION_CONTEXT('part definition',#2,'design');
#10 = ADVANCED_BREP_SHAPE_REPRESENTATION('',(#11,#15),#1630);
#11 = AXIS2_PLACEMENT_3D('',#12,#13,#14);
#12 = CARTESIAN_POINT('',(0.,0.,0.));
#13 = DIRECTION('',(0.,0.,1.));
#14 = DIRECTION('',(1.,0.,-0.));
#15 = MANIFOLD_SOLID_BREP('',#16);
#16 = CLOSED_SHELL('',(#17,#137,#263,#352,#640,#699,#772,#821,#883,#1085
    ,#1134,#1193,#1262,#1289,#1344,#1399,#1454,#1509,#1534,#1558,#1583,
    #1607,#1614,#1618,#1622,#1626));
#17 = ADVANCED_FACE('',(#18),#32,.T.);
#18 = FACE_BOUND('',#19,.T.);
#19 = EDGE_LOOP('',(#20,#55,#83,#111));
#20 = ORIENTED_EDGE('',*,*,#21,.F.);
#21 = EDGE_CURVE('',#22,#24,#26,.T.);
#22 = VERTEX_POINT('',#23);
#23 = CARTESIAN_POINT('',(-72.735,151.85935736085,0.4));
#24 = VERTEX_POINT('',#25);
#25 = CARTESIAN_POINT('',(-72.735,150.15313412929,18.073214666871));
#26 = SURFACE_CURVE('',#27,(#31,#43),.PCURVE_S1.);
#27 = LINE('',#28,#29);
#28 = CARTESIAN_POINT('',(-72.735,155.91889989505,-41.64910900806));
#29 = VECTOR('',#30,1.);
#30 = DIRECTION('',(0.,-9.60960960961E-02,0.995372061249));
#31 = PCURVE('',#32,#37);
#32 = PLANE('',#33);
#33 = AXIS2_PLACEMENT_3D('',#34,#35,#36);
#34 = CARTESIAN_POINT('',(-72.735,145.96517928787,-42.61006996851));
#35 = DIRECTION('',(-1.,0.,0.));
#36 = DIRECTION('',(0.,0.995372061249,9.60960960961E-02));
#37 = DEFINITIONAL_REPRESENTATION('',(#38),#42);
#38 = LINE('',#39,#40);
#39 = CARTESIAN_POINT('',(9.999999994663,0.));
#40 = VECTOR('',#41,1.);
#41 = DIRECTION('',(0.,-1.));
#42 = ( GEOMETRIC_REPRESENTATION_CONTEXT(2) 
PARAMETRIC_REPRESENTATION_CONTEXT() REPRESENTATION_CONTEXT('2D SPACE',''
  ) );
#43 = PCURVE('',#44,#49);
#44 = CYLINDRICAL_SURFACE('',#45,7.995);
#45 = AXIS2_PLACEMENT_3D('',#46,#47,#48);
#46 = CARTESIAN_POINT('',(-64.74,155.91889989505,-41.64910900806));
#47 = DIRECTION('',(0.,9.60960960961E-02,-0.995372061249));
#48 = DIRECTION('',(1.,0.,0.));
#49 = DEFINITIONAL_REPRESENTATION('',(#50),#54);
#50 = LINE('',#51,#52);
#51 = CARTESIAN_POINT('',(-3.14159265359,0.));
#52 = VECTOR('',#53,1.);
#53 = DIRECTION('',(-0.,-1.));
#54 = ( GEOMETRIC_REPRESENTATION_CONTEXT(2) 
PARAMETRIC_REPRESENTATION_CONTEXT() REPRESENTATION_CONTEXT('2D SPACE',''
  ) );
#55 = ORIENTED_EDGE('',*,*,#56,.F.);
#56 = EDGE_CURVE('',#57,#22,#59,.T.);
#57 = VERTEX_POINT('',#58);
#58 = CARTESIAN_POINT('',(-72.735,141.81286280472,0.4));
#59 = SURFACE_CURVE('',#60,(#64,#71),.PCURVE_S1.);
#60 = LINE('',#61,#62);
#61 = CARTESIAN_POINT('',(-72.735,141.85147996099,0.4));
#62 = VECTOR('',#63,1.);
#63 = DIRECTION('',(0.,1.,-0.));
#64 = PCURVE('',#32,#65);
#65 = DEFINITIONAL_REPRESENTATION('',(#66),#70);
#66 = LINE('',#67,#68);
#67 = CARTESIAN_POINT('',(3.843843843848E-02,-43.20633244485));
#68 = VECTOR('',#69,1.);
#69 = DIRECTION('',(0.995372061249,9.60960960961E-02));
#70 = ( GEOMETRIC_REPRESENTATION_CONTEXT(2) 
PARAMETRIC_REPRESENTATION_CONTEXT() REPRESENTATION_CONTEXT('2D SPACE',''
  ) );
#71 = PCURVE('',#72,#77);
#72 = PLANE('',#73);
#73 = AXIS2_PLACEMENT_3D('',#74,#75,#76);
#74 = CARTESIAN_POINT('',(-72.535,141.85147996099,0.2));
#75 = DIRECTION('',(0.707106781187,-2.795980032047E-18,0.707106781187));
#76 = DIRECTION('',(-1.977056440722E-18,-1.,-1.977056440722E-18));
#77 = DEFINITIONAL_REPRESENTATION('',(#78),#82);
#78 = LINE('',#79,#80);
#79 = CARTESIAN_POINT('',(-0.,-0.282842712475));
#80 = VECTOR('',#81,1.);
#81 = DIRECTION('',(-1.,0.));
#82 = ( GEOMETRIC_REPRESENTATION_CONTEXT(2) 
PARAMETRIC_REPRESENTATION_CONTEXT() REPRESENTATION_CONTEXT('2D SPACE',''
  ) );
#83 = ORIENTED_EDGE('',*,*,#84,.T.);
#84 = EDGE_CURVE('',#57,#85,#87,.T.);
#85 = VERTEX_POINT('',#86);
#86 = CARTESIAN_POINT('',(-72.735,140.19941352211,17.112253706423));
#87 = SURFACE_CURVE('',#88,(#92,#99),.PCURVE_S1.);
#88 = LINE('',#89,#90);
#89 = CARTESIAN_POINT('',(-72.735,145.96517928787,-42.61006996851));
#90 = VECTOR('',#91,1.);
#91 = DIRECTION('',(0.,-9.60960960961E-02,0.995372061249));
#92 = PCURVE('',#32,#93);
#93 = DEFINITIONAL_REPRESENTATION('',(#94),#98);
#94 = LINE('',#95,#96);
#95 = CARTESIAN_POINT('',(8.881784197001E-16,0.));
#96 = VECTOR('',#97,1.);
#97 = DIRECTION('',(0.,-1.));
#98 = ( GEOMETRIC_REPRESENTATION_CONTEXT(2) 
PARAMETRIC_REPRESENTATION_CONTEXT() REPRESENTATION_CONTEXT('2D SPACE',''
  ) );
#99 = PCURVE('',#100,#105);
#100 = CYLINDRICAL_SURFACE('',#101,7.995);
#101 = AXIS2_PLACEMENT_3D('',#102,#103,#104);
#102 = CARTESIAN_POINT('',(-64.74,145.96517928787,-42.61006996851));
#103 = DIRECTION('',(0.,9.60960960961E-02,-0.995372061249));
#104 = DIRECTION('',(1.,0.,0.));
#105 = DEFINITIONAL_REPRESENTATION('',(#106),#110);
#106 = LINE('',#107,#108);
#107 = CARTESIAN_POINT('',(-3.14159265359,0.));
#108 = VECTOR('',#109,1.);
#109 = DIRECTION('',(-0.,-1.));
#110 = ( GEOMETRIC_REPRESENTATION_CONTEXT(2) 
PARAMETRIC_REPRESENTATION_CONTEXT() REPRESENTATION_CONTEXT('2D SPACE',''
  ) );
#111 = ORIENTED_EDGE('',*,*,#112,.T.);
#112 = EDGE_CURVE('',#85,#24,#113,.T.);
#113 = SURFACE_CURVE('',#114,(#118,#125),.PCURVE_S1.);
#114 = LINE('',#115,#116);
#115 = CARTESIAN_POINT('',(-72.735,145.17627382835,17.592734186903));
#116 = VECTOR('',#117,1.);
#117 = DIRECTION('',(0.,0.995372061249,9.60960960961E-02));
#118 = PCURVE('',#32,#119);
#119 = DEFINITIONAL_REPRESENTATION('',(#120),#124);
#120 = LINE('',#121,#122);
#121 = CARTESIAN_POINT('',(5.,-60.));
#122 = VECTOR('',#123,1.);
#123 = DIRECTION('',(1.,0.));
#124 = ( GEOMETRIC_REPRESENTATION_CONTEXT(2) 
PARAMETRIC_REPRESENTATION_CONTEXT() REPRESENTATION_CONTEXT('2D SPACE',''
  ) );
#125 = PCURVE('',#126,#131);
#126 = PLANE('',#127);
#127 = AXIS2_PLACEMENT_3D('',#128,#129,#130);
#128 = CARTESIAN_POINT('',(3.891937095963E-15,145.17627382779,
    17.592734186849));
#129 = DIRECTION('',(0.,-9.60960960961E-02,0.995372061249));
#130 = DIRECTION('',(1.,0.,0.));
#131 = DEFINITIONAL_REPRESENTATION('',(#132),#136);
#132 = LINE('',#133,#134);
#133 = CARTESIAN_POINT('',(-72.735,5.657052300126E-10));
#134 = VECTOR('',#135,1.);
#135 = DIRECTION('',(0.,1.));
#136 = ( GEOMETRIC_REPRESENTATION_CONTEXT(2) 
PARAMETRIC_REPRESENTATION_CONTEXT() REPRESENTATION_CONTEXT('2D SPACE',''
  ) );
#137 = ADVANCED_FACE('',(#138),#44,.T.);
#138 = FACE_BOUND('',#139,.F.);
#139 = EDGE_LOOP('',(#140,#141,#213,#241));
#140 = ORIENTED_EDGE('',*,*,#21,.F.);
#141 = ORIENTED_EDGE('',*,*,#142,.T.);
#142 = EDGE_CURVE('',#22,#143,#145,.T.);
#143 = VERTEX_POINT('',#144);
#144 = CARTESIAN_POINT('',(-64.74,159.8917084806,0.3981488245));
#145 = SURFACE_CURVE('',#146,(#161,#177),.PCURVE_S1.);
#146 = B_SPLINE_CURVE_WITH_KNOTS('',7,(#147,#148,#149,#150,#151,#152,
    #153,#154,#155,#156,#157,#158,#159,#160),.UNSPECIFIED.,.F.,.F.,(8,6,
    8),(339.41178130114,339.45030959866,352.0381271546),.UNSPECIFIED.);
#147 = CARTESIAN_POINT('',(-72.735,151.85935736085,0.4));
#148 = CARTESIAN_POINT('',(-72.735,151.86487409746,0.4));
#149 = CARTESIAN_POINT('',(-72.7349955998,151.87039084829,0.399999999863
    ));
#150 = CARTESIAN_POINT('',(-72.73498679967,151.87590756752,
    0.400000000019));
#151 = CARTESIAN_POINT('',(-72.73497359943,151.88142428549,
    0.399999999903));
#152 = CARTESIAN_POINT('',(-72.73495599882,151.8869410426,0.399999998527
    ));
#153 = CARTESIAN_POINT('',(-72.73493399787,151.89245782322,
    0.399999995046));
#154 = CARTESIAN_POINT('',(-72.72628208872,153.70035855699,
    0.399998120929));
#155 = CARTESIAN_POINT('',(-72.24793778495,155.4984985366,0.399800008885
    ));
#156 = CARTESIAN_POINT('',(-71.30285213215,157.14323335944,
    0.399321611291));
#157 = CARTESIAN_POINT('',(-69.95153813024,158.48986425626,
    0.398812578164));
#158 = CARTESIAN_POINT('',(-68.3108201687,159.42431594607,0.398362325715
    ));
#159 = CARTESIAN_POINT('',(-66.52539996171,159.8917084806,0.3981488245)
  );
#160 = CARTESIAN_POINT('',(-64.74,159.8917084806,0.3981488245));
#161 = PCURVE('',#44,#162);
#162 = DEFINITIONAL_REPRESENTATION('',(#163),#176);
#163 = B_SPLINE_CURVE_WITH_KNOTS('',11,(#164,#165,#166,#167,#168,#169,
    #170,#171,#172,#173,#174,#175),.UNSPECIFIED.,.F.,.F.,(12,12),(
    339.41178130114,352.0381271546),.PIECEWISE_BEZIER_KNOTS.);
#164 = CARTESIAN_POINT('',(-3.14159265359,-42.24461449651));
#165 = CARTESIAN_POINT('',(-2.998356567638,-42.1340562323));
#166 = CARTESIAN_POINT('',(-2.855197105836,-42.02348976818));
#167 = CARTESIAN_POINT('',(-2.712217243919,-41.91599180384));
#168 = CARTESIAN_POINT('',(-2.569221434035,-41.81454181417));
#169 = CARTESIAN_POINT('',(-2.426517442627,-41.72215201779));
#170 = CARTESIAN_POINT('',(-2.283664816166,-41.64128577295));
#171 = CARTESIAN_POINT('',(-2.141079616463,-41.57433098746));
#172 = CARTESIAN_POINT('',(-1.998442938683,-41.52289592646));
#173 = CARTESIAN_POINT('',(-1.855887326756,-41.48823089749));
#174 = CARTESIAN_POINT('',(-1.713340559059,-41.47089430306));
#175 = CARTESIAN_POINT('',(-1.570796326795,-41.47089430306));
#176 = ( GEOMETRIC_REPRESENTATION_CONTEXT(2) 
PARAMETRIC_REPRESENTATION_CONTEXT() REPRESENTATION_CONTEXT('2D SPACE',''
  ) );
#177 = PCURVE('',#178,#207);
#178 = B_SPLINE_SURFACE_WITH_KNOTS('',1,7,(
    (#179,#180,#181,#182,#183,#184,#185,#186,#187,#188,#189,#190,#191
      ,#192)
    ,(#193,#194,#195,#196,#197,#198,#199,#200,#201,#202,#203,#204,#205
      ,#206
    )),.UNSPECIFIED.,.F.,.F.,.F.,(2,2),(8,6,8),(0.,12.626345853459),(
    339.41178130114,339.45030959866,352.0381271546),.UNSPECIFIED.);
#179 = CARTESIAN_POINT('',(-72.735,151.85935736085,0.4));
#180 = CARTESIAN_POINT('',(-72.735,151.86487409746,0.4));
#181 = CARTESIAN_POINT('',(-72.7349955998,151.87039084829,0.399999999863
    ));
#182 = CARTESIAN_POINT('',(-72.73498679967,151.87590756752,
    0.400000000019));
#183 = CARTESIAN_POINT('',(-72.73497359943,151.88142428549,
    0.399999999903));
#184 = CARTESIAN_POINT('',(-72.73495599882,151.8869410426,0.399999998527
    ));
#185 = CARTESIAN_POINT('',(-72.73493399787,151.89245782322,
    0.399999995046));
#186 = CARTESIAN_POINT('',(-72.72628208872,153.70035855699,
    0.399998120929));
#187 = CARTESIAN_POINT('',(-72.24793778495,155.4984985366,0.399800008885
    ));
#188 = CARTESIAN_POINT('',(-71.30285213215,157.14323335944,
    0.399321611291));
#189 = CARTESIAN_POINT('',(-69.95153813024,158.48986425626,
    0.398812578164));
#190 = CARTESIAN_POINT('',(-68.3108201687,159.42431594607,0.398362325715
    ));
#191 = CARTESIAN_POINT('',(-66.52539996171,159.8917084806,0.3981488245)
  );
#192 = CARTESIAN_POINT('',(-64.74,159.8917084806,0.3981488245));
#193 = CARTESIAN_POINT('',(-72.335,151.85935736085,0.));
#194 = CARTESIAN_POINT('',(-72.335,151.86487409746,0.));
#195 = CARTESIAN_POINT('',(-72.33500043705,151.87042965862,0.));
#196 = CARTESIAN_POINT('',(-72.33499989119,151.87589357,0.));
#197 = CARTESIAN_POINT('',(-72.33499931098,151.88136390782,0.));
#198 = CARTESIAN_POINT('',(-72.33499999634,151.88695933417,0.));
#199 = CARTESIAN_POINT('',(-72.33500158149,151.89261113255,0.));
#200 = CARTESIAN_POINT('',(-72.33448912713,153.61119096155,0.));
#201 = CARTESIAN_POINT('',(-71.88883791264,155.32406745614,0.));
#202 = CARTESIAN_POINT('',(-70.99569100237,156.89613376302,0.));
#203 = CARTESIAN_POINT('',(-69.71182475194,158.18575113113,0.));
#204 = CARTESIAN_POINT('',(-68.14778634187,159.08197908136,0.));
#205 = CARTESIAN_POINT('',(-66.44388888015,159.53014691904,0.));
#206 = CARTESIAN_POINT('',(-64.74,159.53014691904,0.));
#207 = DEFINITIONAL_REPRESENTATION('',(#208),#212);
#208 = LINE('',#209,#210);
#209 = CARTESIAN_POINT('',(0.,0.));
#210 = VECTOR('',#211,1.);
#211 = DIRECTION('',(0.,1.));
#212 = ( GEOMETRIC_REPRESENTATION_CONTEXT(2) 
PARAMETRIC_REPRESENTATION_CONTEXT() REPRESENTATION_CONTEXT('2D SPACE',''
  ) );
#213 = ORIENTED_EDGE('',*,*,#214,.T.);
#214 = EDGE_CURVE('',#143,#215,#217,.T.);
#215 = VERTEX_POINT('',#216);
#216 = CARTESIAN_POINT('',(-64.74,158.11113376163,18.841502955416));
#217 = SURFACE_CURVE('',#218,(#222,#229),.PCURVE_S1.);
#218 = LINE('',#219,#220);
#219 = CARTESIAN_POINT('',(-64.74,163.87689952739,-40.88082071952));
#220 = VECTOR('',#221,1.);
#221 = DIRECTION('',(0.,-9.60960960961E-02,0.995372061249));
#222 = PCURVE('',#44,#223);
#223 = DEFINITIONAL_REPRESENTATION('',(#224),#228);
#224 = LINE('',#225,#226);
#225 = CARTESIAN_POINT('',(-1.570796326795,0.));
#226 = VECTOR('',#227,1.);
#227 = DIRECTION('',(-0.,-1.));
#228 = ( GEOMETRIC_REPRESENTATION_CONTEXT(2) 
PARAMETRIC_REPRESENTATION_CONTEXT() REPRESENTATION_CONTEXT('2D SPACE',''
  ) );
#229 = PCURVE('',#230,#235);
#230 = PLANE('',#231);
#231 = AXIS2_PLACEMENT_3D('',#232,#233,#234);
#232 = CARTESIAN_POINT('',(-64.74,163.87689953005,-40.88082071926));
#233 = DIRECTION('',(0.,0.995372061249,9.60960960961E-02));
#234 = DIRECTION('',(1.,0.,0.));
#235 = DEFINITIONAL_REPRESENTATION('',(#236),#240);
#236 = LINE('',#237,#238);
#237 = CARTESIAN_POINT('',(0.,0.));
#238 = VECTOR('',#239,1.);
#239 = DIRECTION('',(0.,-1.));
#240 = ( GEOMETRIC_REPRESENTATION_CONTEXT(2) 
PARAMETRIC_REPRESENTATION_CONTEXT() REPRESENTATION_CONTEXT('2D SPACE',''
  ) );
#241 = ORIENTED_EDGE('',*,*,#242,.T.);
#242 = EDGE_CURVE('',#215,#24,#243,.T.);
#243 = SURFACE_CURVE('',#244,(#249,#256),.PCURVE_S1.);
#244 = CIRCLE('',#245,7.995);
#245 = AXIS2_PLACEMENT_3D('',#246,#247,#248);
#246 = CARTESIAN_POINT('',(-64.74,150.15313412929,18.073214666871));
#247 = DIRECTION('',(0.,-9.60960960961E-02,0.995372061249));
#248 = DIRECTION('',(1.,0.,0.));
#249 = PCURVE('',#44,#250);
#250 = DEFINITIONAL_REPRESENTATION('',(#251),#255);
#251 = LINE('',#252,#253);
#252 = CARTESIAN_POINT('',(-0.,-60.));
#253 = VECTOR('',#254,1.);
#254 = DIRECTION('',(-1.,0.));
#255 = ( GEOMETRIC_REPRESENTATION_CONTEXT(2) 
PARAMETRIC_REPRESENTATION_CONTEXT() REPRESENTATION_CONTEXT('2D SPACE',''
  ) );
#256 = PCURVE('',#126,#257);
#257 = DEFINITIONAL_REPRESENTATION('',(#258),#262);
#258 = CIRCLE('',#259,7.995);
#259 = AXIS2_PLACEMENT_2D('',#260,#261);
#260 = CARTESIAN_POINT('',(-64.74,4.999999995228));
#261 = DIRECTION('',(1.,0.));
#262 = ( GEOMETRIC_REPRESENTATION_CONTEXT(2) 
PARAMETRIC_REPRESENTATION_CONTEXT() REPRESENTATION_CONTEXT('2D SPACE',''
  ) );
#263 = ADVANCED_FACE('',(#264),#72,.F.);
#264 = FACE_BOUND('',#265,.T.);
#265 = EDGE_LOOP('',(#266,#304,#305,#326));
#266 = ORIENTED_EDGE('',*,*,#267,.F.);
#267 = EDGE_CURVE('',#57,#268,#270,.T.);
#268 = VERTEX_POINT('',#269);
#269 = CARTESIAN_POINT('',(-72.335,141.81286280472,-3.219646771413E-15)
  );
#270 = SURFACE_CURVE('',#271,(#275,#281),.PCURVE_S1.);
#271 = LINE('',#272,#273);
#272 = CARTESIAN_POINT('',(-72.535,141.81286280472,0.2));
#273 = VECTOR('',#274,1.);
#274 = DIRECTION('',(0.707106781187,3.639437963742E-35,-0.707106781187)
  );
#275 = PCURVE('',#72,#276);
#276 = DEFINITIONAL_REPRESENTATION('',(#277),#280);
#277 = B_SPLINE_CURVE_WITH_KNOTS('',1,(#278,#279),.UNSPECIFIED.,.F.,.F.,
  (2,2),(-0.282842712475,0.282842712475),.PIECEWISE_BEZIER_KNOTS.);
#278 = CARTESIAN_POINT('',(3.861715627244E-02,-0.282842712475));
#279 = CARTESIAN_POINT('',(3.861715627244E-02,0.282842712475));
#280 = ( GEOMETRIC_REPRESENTATION_CONTEXT(2) 
PARAMETRIC_REPRESENTATION_CONTEXT() REPRESENTATION_CONTEXT('2D SPACE',''
  ) );
#281 = PCURVE('',#282,#299);
#282 = B_SPLINE_SURFACE_WITH_KNOTS('',1,7,(
    (#283,#284,#285,#286,#287,#288,#289,#290)
    ,(#291,#292,#293,#294,#295,#296,#297,#298
  )),.UNSPECIFIED.,.F.,.F.,.F.,(2,2),(8,8),(0.,12.549111393584),(
    646.22007910532,658.7691904989),.PIECEWISE_BEZIER_KNOTS.);
#283 = CARTESIAN_POINT('',(-64.74,133.78086912064,0.3981488245));
#284 = CARTESIAN_POINT('',(-66.53721364576,133.78086912064,0.3981488245)
  );
#285 = CARTESIAN_POINT('',(-68.3370481576,134.25438522933,0.398351496342
    ));
#286 = CARTESIAN_POINT('',(-69.99013550476,135.20387191519,
    0.399096502593));
#287 = CARTESIAN_POINT('',(-71.33726042769,136.57084775122,
    0.400146542996));
#288 = CARTESIAN_POINT('',(-72.26803796477,138.22119631926,0.39996638187
    ));
#289 = CARTESIAN_POINT('',(-72.735,140.01599311759,0.4));
#290 = CARTESIAN_POINT('',(-72.735,141.81286280472,0.4));
#291 = CARTESIAN_POINT('',(-64.74,134.21930755908,0.));
#292 = CARTESIAN_POINT('',(-66.4386738287,134.21930755908,0.));
#293 = CARTESIAN_POINT('',(-68.14042713874,134.66473298153,0.));
#294 = CARTESIAN_POINT('',(-69.70493439867,135.55575547321,0.));
#295 = CARTESIAN_POINT('',(-70.99086979122,136.83828302476,0.));
#296 = CARTESIAN_POINT('',(-71.8861326093,138.40150920498,0.));
#297 = CARTESIAN_POINT('',(-72.33483182327,140.10612987445,0.));
#298 = CARTESIAN_POINT('',(-72.33500000194,141.81290221916,0.));
#299 = DEFINITIONAL_REPRESENTATION('',(#300),#303);
#300 = B_SPLINE_CURVE_WITH_KNOTS('',1,(#301,#302),.UNSPECIFIED.,.F.,.F.,
  (2,2),(-0.282842712475,0.282842712475),.PIECEWISE_BEZIER_KNOTS.);
#301 = CARTESIAN_POINT('',(7.460698725481E-14,658.7691904989));
#302 = CARTESIAN_POINT('',(12.549111393584,658.7691904989));
#303 = ( GEOMETRIC_REPRESENTATION_CONTEXT(2) 
PARAMETRIC_REPRESENTATION_CONTEXT() REPRESENTATION_CONTEXT('2D SPACE',''
  ) );
#304 = ORIENTED_EDGE('',*,*,#56,.T.);
#305 = ORIENTED_EDGE('',*,*,#306,.T.);
#306 = EDGE_CURVE('',#22,#307,#309,.T.);
#307 = VERTEX_POINT('',#308);
#308 = CARTESIAN_POINT('',(-72.335,151.85935736085,-3.191891195797E-15)
  );
#309 = SURFACE_CURVE('',#310,(#314,#320),.PCURVE_S1.);
#310 = LINE('',#311,#312);
#311 = CARTESIAN_POINT('',(-72.535,151.85935736085,0.2));
#312 = VECTOR('',#313,1.);
#313 = DIRECTION('',(0.707106781187,3.639437963742E-35,-0.707106781187)
  );
#314 = PCURVE('',#72,#315);
#315 = DEFINITIONAL_REPRESENTATION('',(#316),#319);
#316 = B_SPLINE_CURVE_WITH_KNOTS('',1,(#317,#318),.UNSPECIFIED.,.F.,.F.,
  (2,2),(-0.282842712475,0.282842712475),.PIECEWISE_BEZIER_KNOTS.);
#317 = CARTESIAN_POINT('',(-10.00787739985,-0.282842712475));
#318 = CARTESIAN_POINT('',(-10.00787739985,0.282842712475));
#319 = ( GEOMETRIC_REPRESENTATION_CONTEXT(2) 
PARAMETRIC_REPRESENTATION_CONTEXT() REPRESENTATION_CONTEXT('2D SPACE',''
  ) );
#320 = PCURVE('',#178,#321);
#321 = DEFINITIONAL_REPRESENTATION('',(#322),#325);
#322 = B_SPLINE_CURVE_WITH_KNOTS('',1,(#323,#324),.UNSPECIFIED.,.F.,.F.,
  (2,2),(-0.282842712475,0.282842712475),.PIECEWISE_BEZIER_KNOTS.);
#323 = CARTESIAN_POINT('',(0.,339.41178130114));
#324 = CARTESIAN_POINT('',(12.626345853459,339.41178130114));
#325 = ( GEOMETRIC_REPRESENTATION_CONTEXT(2) 
PARAMETRIC_REPRESENTATION_CONTEXT() REPRESENTATION_CONTEXT('2D SPACE',''
  ) );
#326 = ORIENTED_EDGE('',*,*,#327,.F.);
#327 = EDGE_CURVE('',#268,#307,#328,.T.);
#328 = SURFACE_CURVE('',#329,(#333,#340),.PCURVE_S1.);
#329 = LINE('',#330,#331);
#330 = CARTESIAN_POINT('',(-72.335,141.85147996099,0.));
#331 = VECTOR('',#332,1.);
#332 = DIRECTION('',(0.,1.,-0.));
#333 = PCURVE('',#72,#334);
#334 = DEFINITIONAL_REPRESENTATION('',(#335),#339);
#335 = LINE('',#336,#337);
#336 = CARTESIAN_POINT('',(-0.,0.282842712475));
#337 = VECTOR('',#338,1.);
#338 = DIRECTION('',(-1.,0.));
#339 = ( GEOMETRIC_REPRESENTATION_CONTEXT(2) 
PARAMETRIC_REPRESENTATION_CONTEXT() REPRESENTATION_CONTEXT('2D SPACE',''
  ) );
#340 = PCURVE('',#341,#346);
#341 = PLANE('',#342);
#342 = AXIS2_PLACEMENT_3D('',#343,#344,#345);
#343 = CARTESIAN_POINT('',(-200.,-200.,0.));
#344 = DIRECTION('',(0.,0.,1.));
#345 = DIRECTION('',(1.,0.,-0.));
#346 = DEFINITIONAL_REPRESENTATION('',(#347),#351);
#347 = LINE('',#348,#349);
#348 = CARTESIAN_POINT('',(127.665,341.85147996099));
#349 = VECTOR('',#350,1.);
#350 = DIRECTION('',(0.,1.));
#351 = ( GEOMETRIC_REPRESENTATION_CONTEXT(2) 
PARAMETRIC_REPRESENTATION_CONTEXT() REPRESENTATION_CONTEXT('2D SPACE',''
  ) );
#352 = ADVANCED_FACE('',(#353,#516,#547,#578,#609),#126,.T.);
#353 = FACE_BOUND('',#354,.T.);
#354 = EDGE_LOOP('',(#355,#356,#380,#408,#437,#465,#494,#515));
#355 = ORIENTED_EDGE('',*,*,#112,.F.);
#356 = ORIENTED_EDGE('',*,*,#357,.T.);
#357 = EDGE_CURVE('',#85,#358,#360,.T.);
#358 = VERTEX_POINT('',#359);
#359 = CARTESIAN_POINT('',(-64.74,132.24141389242,16.343965418134));
#360 = SURFACE_CURVE('',#361,(#366,#373),.PCURVE_S1.);
#361 = CIRCLE('',#362,7.995);
#362 = AXIS2_PLACEMENT_3D('',#363,#364,#365);
#363 = CARTESIAN_POINT('',(-64.74,140.19941352211,17.112253706423));
#364 = DIRECTION('',(0.,-9.60960960961E-02,0.995372061249));
#365 = DIRECTION('',(1.,0.,0.));
#366 = PCURVE('',#126,#367);
#367 = DEFINITIONAL_REPRESENTATION('',(#368),#372);
#368 = CIRCLE('',#369,7.995);
#369 = AXIS2_PLACEMENT_2D('',#370,#371);
#370 = CARTESIAN_POINT('',(-64.74,-4.999999999434));
#371 = DIRECTION('',(1.,0.));
#372 = ( GEOMETRIC_REPRESENTATION_CONTEXT(2) 
PARAMETRIC_REPRESENTATION_CONTEXT() REPRESENTATION_CONTEXT('2D SPACE',''
  ) );
#373 = PCURVE('',#100,#374);
#374 = DEFINITIONAL_REPRESENTATION('',(#375),#379);
#375 = LINE('',#376,#377);
#376 = CARTESIAN_POINT('',(-0.,-60.));
#377 = VECTOR('',#378,1.);
#378 = DIRECTION('',(-1.,0.));
#379 = ( GEOMETRIC_REPRESENTATION_CONTEXT(2) 
PARAMETRIC_REPRESENTATION_CONTEXT() REPRESENTATION_CONTEXT('2D SPACE',''
  ) );
#380 = ORIENTED_EDGE('',*,*,#381,.T.);
#381 = EDGE_CURVE('',#358,#382,#384,.T.);
#382 = VERTEX_POINT('',#383);
#383 = CARTESIAN_POINT('',(64.74,132.24141389242,16.343965418134));
#384 = SURFACE_CURVE('',#385,(#389,#396),.PCURVE_S1.);
#385 = LINE('',#386,#387);
#386 = CARTESIAN_POINT('',(0.,132.24141389242,16.343965418134));
#387 = VECTOR('',#388,1.);
#388 = DIRECTION('',(1.,0.,0.));
#389 = PCURVE('',#126,#390);
#390 = DEFINITIONAL_REPRESENTATION('',(#391),#395);
#391 = LINE('',#392,#393);
#392 = CARTESIAN_POINT('',(-3.891937095963E-15,-12.99499999943));
#393 = VECTOR('',#394,1.);
#394 = DIRECTION('',(1.,0.));
#395 = ( GEOMETRIC_REPRESENTATION_CONTEXT(2) 
PARAMETRIC_REPRESENTATION_CONTEXT() REPRESENTATION_CONTEXT('2D SPACE',''
  ) );
#396 = PCURVE('',#397,#402);
#397 = PLANE('',#398);
#398 = AXIS2_PLACEMENT_3D('',#399,#400,#401);
#399 = CARTESIAN_POINT('',(-64.74,138.00717965819,-43.3783582568));
#400 = DIRECTION('',(0.,0.995372061249,9.60960960961E-02));
#401 = DIRECTION('',(1.,0.,0.));
#402 = DEFINITIONAL_REPRESENTATION('',(#403),#407);
#403 = LINE('',#404,#405);
#404 = CARTESIAN_POINT('',(64.74,-60.));
#405 = VECTOR('',#406,1.);
#406 = DIRECTION('',(1.,0.));
#407 = ( GEOMETRIC_REPRESENTATION_CONTEXT(2) 
PARAMETRIC_REPRESENTATION_CONTEXT() REPRESENTATION_CONTEXT('2D SPACE',''
  ) );
#408 = ORIENTED_EDGE('',*,*,#409,.T.);
#409 = EDGE_CURVE('',#382,#410,#412,.T.);
#410 = VERTEX_POINT('',#411);
#411 = CARTESIAN_POINT('',(72.735,140.19941352211,17.112253706423));
#412 = SURFACE_CURVE('',#413,(#418,#425),.PCURVE_S1.);
#413 = CIRCLE('',#414,7.995);
#414 = AXIS2_PLACEMENT_3D('',#415,#416,#417);
#415 = CARTESIAN_POINT('',(64.74,140.19941352211,17.112253706423));
#416 = DIRECTION('',(0.,-9.60960960961E-02,0.995372061249));
#417 = DIRECTION('',(1.,0.,0.));
#418 = PCURVE('',#126,#419);
#419 = DEFINITIONAL_REPRESENTATION('',(#420),#424);
#420 = CIRCLE('',#421,7.995);
#421 = AXIS2_PLACEMENT_2D('',#422,#423);
#422 = CARTESIAN_POINT('',(64.74,-4.999999999434));
#423 = DIRECTION('',(1.,0.));
#424 = ( GEOMETRIC_REPRESENTATION_CONTEXT(2) 
PARAMETRIC_REPRESENTATION_CONTEXT() REPRESENTATION_CONTEXT('2D SPACE',''
  ) );
#425 = PCURVE('',#426,#431);
#426 = CYLINDRICAL_SURFACE('',#427,7.995);
#427 = AXIS2_PLACEMENT_3D('',#428,#429,#430);
#428 = CARTESIAN_POINT('',(64.74,145.96517928787,-42.61006996851));
#429 = DIRECTION('',(0.,9.60960960961E-02,-0.995372061249));
#430 = DIRECTION('',(1.,0.,0.));
#431 = DEFINITIONAL_REPRESENTATION('',(#432),#436);
#432 = LINE('',#433,#434);
#433 = CARTESIAN_POINT('',(-0.,-60.));
#434 = VECTOR('',#435,1.);
#435 = DIRECTION('',(-1.,0.));
#436 = ( GEOMETRIC_REPRESENTATION_CONTEXT(2) 
PARAMETRIC_REPRESENTATION_CONTEXT() REPRESENTATION_CONTEXT('2D SPACE',''
  ) );
#437 = ORIENTED_EDGE('',*,*,#438,.T.);
#438 = EDGE_CURVE('',#410,#439,#441,.T.);
#439 = VERTEX_POINT('',#440);
#440 = CARTESIAN_POINT('',(72.735,150.15313412929,18.073214666871));
#441 = SURFACE_CURVE('',#442,(#446,#453),.PCURVE_S1.);
#442 = LINE('',#443,#444);
#443 = CARTESIAN_POINT('',(72.735,145.17627382835,17.592734186903));
#444 = VECTOR('',#445,1.);
#445 = DIRECTION('',(0.,0.995372061249,9.60960960961E-02));
#446 = PCURVE('',#126,#447);
#447 = DEFINITIONAL_REPRESENTATION('',(#448),#452);
#448 = LINE('',#449,#450);
#449 = CARTESIAN_POINT('',(72.735,5.657052300126E-10));
#450 = VECTOR('',#451,1.);
#451 = DIRECTION('',(0.,1.));
#452 = ( GEOMETRIC_REPRESENTATION_CONTEXT(2) 
PARAMETRIC_REPRESENTATION_CONTEXT() REPRESENTATION_CONTEXT('2D SPACE',''
  ) );
#453 = PCURVE('',#454,#459);
#454 = PLANE('',#455);
#455 = AXIS2_PLACEMENT_3D('',#456,#457,#458);
#456 = CARTESIAN_POINT('',(72.735,145.96517928787,-42.61006996851));
#457 = DIRECTION('',(-1.,0.,0.));
#458 = DIRECTION('',(0.,0.995372061249,9.60960960961E-02));
#459 = DEFINITIONAL_REPRESENTATION('',(#460),#464);
#460 = LINE('',#461,#462);
#461 = CARTESIAN_POINT('',(5.,-60.));
#462 = VECTOR('',#463,1.);
#463 = DIRECTION('',(1.,0.));
#464 = ( GEOMETRIC_REPRESENTATION_CONTEXT(2) 
PARAMETRIC_REPRESENTATION_CONTEXT() REPRESENTATION_CONTEXT('2D SPACE',''
  ) );
#465 = ORIENTED_EDGE('',*,*,#466,.T.);
#466 = EDGE_CURVE('',#439,#467,#469,.T.);
#467 = VERTEX_POINT('',#468);
#468 = CARTESIAN_POINT('',(64.74,158.11113376163,18.841502955416));
#469 = SURFACE_CURVE('',#470,(#475,#482),.PCURVE_S1.);
#470 = CIRCLE('',#471,7.995);
#471 = AXIS2_PLACEMENT_3D('',#472,#473,#474);
#472 = CARTESIAN_POINT('',(64.74,150.15313412929,18.073214666871));
#473 = DIRECTION('',(0.,-9.60960960961E-02,0.995372061249));
#474 = DIRECTION('',(1.,0.,0.));
#475 = PCURVE('',#126,#476);
#476 = DEFINITIONAL_REPRESENTATION('',(#477),#481);
#477 = CIRCLE('',#478,7.995);
#478 = AXIS2_PLACEMENT_2D('',#479,#480);
#479 = CARTESIAN_POINT('',(64.74,4.999999995228));
#480 = DIRECTION('',(1.,0.));
#481 = ( GEOMETRIC_REPRESENTATION_CONTEXT(2) 
PARAMETRIC_REPRESENTATION_CONTEXT() REPRESENTATION_CONTEXT('2D SPACE',''
  ) );
#482 = PCURVE('',#483,#488);
#483 = CYLINDRICAL_SURFACE('',#484,7.995);
#484 = AXIS2_PLACEMENT_3D('',#485,#486,#487);
#485 = CARTESIAN_POINT('',(64.74,155.91889989505,-41.64910900806));
#486 = DIRECTION('',(0.,9.60960960961E-02,-0.995372061249));
#487 = DIRECTION('',(1.,0.,0.));
#488 = DEFINITIONAL_REPRESENTATION('',(#489),#493);
#489 = LINE('',#490,#491);
#490 = CARTESIAN_POINT('',(-0.,-60.));
#491 = VECTOR('',#492,1.);
#492 = DIRECTION('',(-1.,0.));
#493 = ( GEOMETRIC_REPRESENTATION_CONTEXT(2) 
PARAMETRIC_REPRESENTATION_CONTEXT() REPRESENTATION_CONTEXT('2D SPACE',''
  ) );
#494 = ORIENTED_EDGE('',*,*,#495,.F.);
#495 = EDGE_CURVE('',#215,#467,#496,.T.);
#496 = SURFACE_CURVE('',#497,(#501,#508),.PCURVE_S1.);
#497 = LINE('',#498,#499);
#498 = CARTESIAN_POINT('',(0.,158.11113376428,18.841502955672));
#499 = VECTOR('',#500,1.);
#500 = DIRECTION('',(1.,0.,0.));
#501 = PCURVE('',#126,#502);
#502 = DEFINITIONAL_REPRESENTATION('',(#503),#507);
#503 = LINE('',#504,#505);
#504 = CARTESIAN_POINT('',(-3.891937095963E-15,12.995000000566));
#505 = VECTOR('',#506,1.);
#506 = DIRECTION('',(1.,0.));
#507 = ( GEOMETRIC_REPRESENTATION_CONTEXT(2) 
PARAMETRIC_REPRESENTATION_CONTEXT() REPRESENTATION_CONTEXT('2D SPACE',''
  ) );
#508 = PCURVE('',#230,#509);
#509 = DEFINITIONAL_REPRESENTATION('',(#510),#514);
#510 = LINE('',#511,#512);
#511 = CARTESIAN_POINT('',(64.74,-60.));
#512 = VECTOR('',#513,1.);
#513 = DIRECTION('',(1.,0.));
#514 = ( GEOMETRIC_REPRESENTATION_CONTEXT(2) 
PARAMETRIC_REPRESENTATION_CONTEXT() REPRESENTATION_CONTEXT('2D SPACE',''
  ) );
#515 = ORIENTED_EDGE('',*,*,#242,.T.);
#516 = FACE_BOUND('',#517,.T.);
#517 = EDGE_LOOP('',(#518));
#518 = ORIENTED_EDGE('',*,*,#519,.F.);
#519 = EDGE_CURVE('',#520,#520,#522,.T.);
#520 = VERTEX_POINT('',#521);
#521 = CARTESIAN_POINT('',(-54.985,139.20901832117,17.016638090807));
#522 = SURFACE_CURVE('',#523,(#528,#535),.PCURVE_S1.);
#523 = CIRCLE('',#524,3.75);
#524 = AXIS2_PLACEMENT_3D('',#525,#526,#527);
#525 = CARTESIAN_POINT('',(-58.735,139.20901832117,17.016638090807));
#526 = DIRECTION('',(0.,-9.60960960961E-02,0.995372061249));
#527 = DIRECTION('',(1.,0.,0.));
#528 = PCURVE('',#126,#529);
#529 = DEFINITIONAL_REPRESENTATION('',(#530),#534);
#530 = CIRCLE('',#531,3.75);
#531 = AXIS2_PLACEMENT_2D('',#532,#533);
#532 = CARTESIAN_POINT('',(-58.735,-5.994999999434));
#533 = DIRECTION('',(1.,0.));
#534 = ( GEOMETRIC_REPRESENTATION_CONTEXT(2) 
PARAMETRIC_REPRESENTATION_CONTEXT() REPRESENTATION_CONTEXT('2D SPACE',''
  ) );
#535 = PCURVE('',#536,#541);
#536 = CYLINDRICAL_SURFACE('',#537,3.75);
#537 = AXIS2_PLACEMENT_3D('',#538,#539,#540);
#538 = CARTESIAN_POINT('',(-58.735,139.20901832117,17.016638090807));
#539 = DIRECTION('',(0.,-9.60960960961E-02,0.995372061249));
#540 = DIRECTION('',(1.,0.,0.));
#541 = DEFINITIONAL_REPRESENTATION('',(#542),#546);
#542 = LINE('',#543,#544);
#543 = CARTESIAN_POINT('',(0.,0.));
#544 = VECTOR('',#545,1.);
#545 = DIRECTION('',(1.,0.));
#546 = ( GEOMETRIC_REPRESENTATION_CONTEXT(2) 
PARAMETRIC_REPRESENTATION_CONTEXT() REPRESENTATION_CONTEXT('2D SPACE',''
  ) );
#547 = FACE_BOUND('',#548,.T.);
#548 = EDGE_LOOP('',(#549));
#549 = ORIENTED_EDGE('',*,*,#550,.F.);
#550 = EDGE_CURVE('',#551,#551,#553,.T.);
#551 = VERTEX_POINT('',#552);
#552 = CARTESIAN_POINT('',(62.485,139.20901832117,17.016638090807));
#553 = SURFACE_CURVE('',#554,(#559,#566),.PCURVE_S1.);
#554 = CIRCLE('',#555,3.75);
#555 = AXIS2_PLACEMENT_3D('',#556,#557,#558);
#556 = CARTESIAN_POINT('',(58.735,139.20901832117,17.016638090807));
#557 = DIRECTION('',(0.,-9.60960960961E-02,0.995372061249));
#558 = DIRECTION('',(1.,0.,0.));
#559 = PCURVE('',#126,#560);
#560 = DEFINITIONAL_REPRESENTATION('',(#561),#565);
#561 = CIRCLE('',#562,3.75);
#562 = AXIS2_PLACEMENT_2D('',#563,#564);
#563 = CARTESIAN_POINT('',(58.735,-5.994999999434));
#564 = DIRECTION('',(1.,0.));
#565 = ( GEOMETRIC_REPRESENTATION_CONTEXT(2) 
PARAMETRIC_REPRESENTATION_CONTEXT() REPRESENTATION_CONTEXT('2D SPACE',''
  ) );
#566 = PCURVE('',#567,#572);
#567 = CYLINDRICAL_SURFACE('',#568,3.75);
#568 = AXIS2_PLACEMENT_3D('',#569,#570,#571);
#569 = CARTESIAN_POINT('',(58.735,139.20901832117,17.016638090807));
#570 = DIRECTION('',(0.,-9.60960960961E-02,0.995372061249));
#571 = DIRECTION('',(1.,0.,0.));
#572 = DEFINITIONAL_REPRESENTATION('',(#573),#577);
#573 = LINE('',#574,#575);
#574 = CARTESIAN_POINT('',(0.,0.));
#575 = VECTOR('',#576,1.);
#576 = DIRECTION('',(1.,0.));
#577 = ( GEOMETRIC_REPRESENTATION_CONTEXT(2) 
PARAMETRIC_REPRESENTATION_CONTEXT() REPRESENTATION_CONTEXT('2D SPACE',''
  ) );
#578 = FACE_BOUND('',#579,.T.);
#579 = EDGE_LOOP('',(#580));
#580 = ORIENTED_EDGE('',*,*,#581,.F.);
#581 = EDGE_CURVE('',#582,#582,#584,.T.);
#582 = VERTEX_POINT('',#583);
#583 = CARTESIAN_POINT('',(-54.985,151.14352933554,18.168830282999));
#584 = SURFACE_CURVE('',#585,(#590,#597),.PCURVE_S1.);
#585 = CIRCLE('',#586,3.75);
#586 = AXIS2_PLACEMENT_3D('',#587,#588,#589);
#587 = CARTESIAN_POINT('',(-58.735,151.14352933554,18.168830282999));
#588 = DIRECTION('',(0.,-9.60960960961E-02,0.995372061249));
#589 = DIRECTION('',(1.,0.,0.));
#590 = PCURVE('',#126,#591);
#591 = DEFINITIONAL_REPRESENTATION('',(#592),#596);
#592 = CIRCLE('',#593,3.75);
#593 = AXIS2_PLACEMENT_2D('',#594,#595);
#594 = CARTESIAN_POINT('',(-58.735,5.995000000566));
#595 = DIRECTION('',(1.,0.));
#596 = ( GEOMETRIC_REPRESENTATION_CONTEXT(2) 
PARAMETRIC_REPRESENTATION_CONTEXT() REPRESENTATION_CONTEXT('2D SPACE',''
  ) );
#597 = PCURVE('',#598,#603);
#598 = CYLINDRICAL_SURFACE('',#599,3.75);
#599 = AXIS2_PLACEMENT_3D('',#600,#601,#602);
#600 = CARTESIAN_POINT('',(-58.735,151.14352933554,18.168830282999));
#601 = DIRECTION('',(0.,-9.60960960961E-02,0.995372061249));
#602 = DIRECTION('',(1.,0.,0.));
#603 = DEFINITIONAL_REPRESENTATION('',(#604),#608);
#604 = LINE('',#605,#606);
#605 = CARTESIAN_POINT('',(0.,0.));
#606 = VECTOR('',#607,1.);
#607 = DIRECTION('',(1.,0.));
#608 = ( GEOMETRIC_REPRESENTATION_CONTEXT(2) 
PARAMETRIC_REPRESENTATION_CONTEXT() REPRESENTATION_CONTEXT('2D SPACE',''
  ) );
#609 = FACE_BOUND('',#610,.T.);
#610 = EDGE_LOOP('',(#611));
#611 = ORIENTED_EDGE('',*,*,#612,.F.);
#612 = EDGE_CURVE('',#613,#613,#615,.T.);
#613 = VERTEX_POINT('',#614);
#614 = CARTESIAN_POINT('',(62.485,151.14352933554,18.168830282999));
#615 = SURFACE_CURVE('',#616,(#621,#628),.PCURVE_S1.);
#616 = CIRCLE('',#617,3.75);
#617 = AXIS2_PLACEMENT_3D('',#618,#619,#620);
#618 = CARTESIAN_POINT('',(58.735,151.14352933554,18.168830282999));
#619 = DIRECTION('',(0.,-9.60960960961E-02,0.995372061249));
#620 = DIRECTION('',(1.,0.,0.));
#621 = PCURVE('',#126,#622);
#622 = DEFINITIONAL_REPRESENTATION('',(#623),#627);
#623 = CIRCLE('',#624,3.75);
#624 = AXIS2_PLACEMENT_2D('',#625,#626);
#625 = CARTESIAN_POINT('',(58.735,5.995000000566));
#626 = DIRECTION('',(1.,0.));
#627 = ( GEOMETRIC_REPRESENTATION_CONTEXT(2) 
PARAMETRIC_REPRESENTATION_CONTEXT() REPRESENTATION_CONTEXT('2D SPACE',''
  ) );
#628 = PCURVE('',#629,#634);
#629 = CYLINDRICAL_SURFACE('',#630,3.75);
#630 = AXIS2_PLACEMENT_3D('',#631,#632,#633);
#631 = CARTESIAN_POINT('',(58.735,151.14352933554,18.168830282999));
#632 = DIRECTION('',(0.,-9.60960960961E-02,0.995372061249));
#633 = DIRECTION('',(1.,0.,0.));
#634 = DEFINITIONAL_REPRESENTATION('',(#635),#639);
#635 = LINE('',#636,#637);
#636 = CARTESIAN_POINT('',(0.,0.));
#637 = VECTOR('',#638,1.);
#638 = DIRECTION('',(1.,0.));
#639 = ( GEOMETRIC_REPRESENTATION_CONTEXT(2) 
PARAMETRIC_REPRESENTATION_CONTEXT() REPRESENTATION_CONTEXT('2D SPACE',''
  ) );
#640 = ADVANCED_FACE('',(#641),#100,.T.);
#641 = FACE_BOUND('',#642,.F.);
#642 = EDGE_LOOP('',(#643,#666,#697,#698));
#643 = ORIENTED_EDGE('',*,*,#644,.F.);
#644 = EDGE_CURVE('',#645,#358,#647,.T.);
#645 = VERTEX_POINT('',#646);
#646 = CARTESIAN_POINT('',(-64.74,133.78086912064,0.3981488245));
#647 = SURFACE_CURVE('',#648,(#652,#659),.PCURVE_S1.);
#648 = LINE('',#649,#650);
#649 = CARTESIAN_POINT('',(-64.74,138.00717965819,-43.3783582568));
#650 = VECTOR('',#651,1.);
#651 = DIRECTION('',(0.,-9.60960960961E-02,0.995372061249));
#652 = PCURVE('',#100,#653);
#653 = DEFINITIONAL_REPRESENTATION('',(#654),#658);
#654 = LINE('',#655,#656);
#655 = CARTESIAN_POINT('',(-4.712388980385,0.));
#656 = VECTOR('',#657,1.);
#657 = DIRECTION('',(-0.,-1.));
#658 = ( GEOMETRIC_REPRESENTATION_CONTEXT(2) 
PARAMETRIC_REPRESENTATION_CONTEXT() REPRESENTATION_CONTEXT('2D SPACE',''
  ) );
#659 = PCURVE('',#397,#660);
#660 = DEFINITIONAL_REPRESENTATION('',(#661),#665);
#661 = LINE('',#662,#663);
#662 = CARTESIAN_POINT('',(0.,0.));
#663 = VECTOR('',#664,1.);
#664 = DIRECTION('',(0.,-1.));
#665 = ( GEOMETRIC_REPRESENTATION_CONTEXT(2) 
PARAMETRIC_REPRESENTATION_CONTEXT() REPRESENTATION_CONTEXT('2D SPACE',''
  ) );
#666 = ORIENTED_EDGE('',*,*,#667,.T.);
#667 = EDGE_CURVE('',#645,#57,#668,.T.);
#668 = SURFACE_CURVE('',#669,(#678,#690),.PCURVE_S1.);
#669 = B_SPLINE_CURVE_WITH_KNOTS('',7,(#670,#671,#672,#673,#674,#675,
    #676,#677),.UNSPECIFIED.,.F.,.F.,(8,8),(646.22007910532,
    658.7691904989),.PIECEWISE_BEZIER_KNOTS.);
#670 = CARTESIAN_POINT('',(-64.74,133.78086912064,0.3981488245));
#671 = CARTESIAN_POINT('',(-66.53721364576,133.78086912064,0.3981488245)
  );
#672 = CARTESIAN_POINT('',(-68.3370481576,134.25438522933,0.398351496342
    ));
#673 = CARTESIAN_POINT('',(-69.99013550476,135.20387191519,
    0.399096502593));
#674 = CARTESIAN_POINT('',(-71.33726042769,136.57084775122,
    0.400146542996));
#675 = CARTESIAN_POINT('',(-72.26803796477,138.22119631926,0.39996638187
    ));
#676 = CARTESIAN_POINT('',(-72.735,140.01599311759,0.4));
#677 = CARTESIAN_POINT('',(-72.735,141.81286280472,0.4));
#678 = PCURVE('',#100,#679);
#679 = DEFINITIONAL_REPRESENTATION('',(#680),#689);
#680 = B_SPLINE_CURVE_WITH_KNOTS('',7,(#681,#682,#683,#684,#685,#686,
    #687,#688),.UNSPECIFIED.,.F.,.F.,(8,8),(646.22007910532,
    658.7691904989),.PIECEWISE_BEZIER_KNOTS.);
#681 = CARTESIAN_POINT('',(-4.712388980385,-43.98004403134));
#682 = CARTESIAN_POINT('',(-4.487596779539,-43.98004403134));
#683 = CARTESIAN_POINT('',(-4.262458737578,-43.93474207291));
#684 = CARTESIAN_POINT('',(-4.03724011702,-43.84424325415));
#685 = CARTESIAN_POINT('',(-3.812545037382,-43.71392620656));
#686 = CARTESIAN_POINT('',(-3.588744612068,-43.55515488518));
#687 = CARTESIAN_POINT('',(-3.365301707283,-43.38271556494));
#688 = CARTESIAN_POINT('',(-3.14159265359,-43.21004340281));
#689 = ( GEOMETRIC_REPRESENTATION_CONTEXT(2) 
PARAMETRIC_REPRESENTATION_CONTEXT() REPRESENTATION_CONTEXT('2D SPACE',''
  ) );
#690 = PCURVE('',#282,#691);
#691 = DEFINITIONAL_REPRESENTATION('',(#692),#696);
#692 = LINE('',#693,#694);
#693 = CARTESIAN_POINT('',(0.,0.));
#694 = VECTOR('',#695,1.);
#695 = DIRECTION('',(0.,1.));
#696 = ( GEOMETRIC_REPRESENTATION_CONTEXT(2) 
PARAMETRIC_REPRESENTATION_CONTEXT() REPRESENTATION_CONTEXT('2D SPACE',''
  ) );
#697 = ORIENTED_EDGE('',*,*,#84,.T.);
#698 = ORIENTED_EDGE('',*,*,#357,.T.);
#699 = ADVANCED_FACE('',(#700),#178,.F.);
#700 = FACE_BOUND('',#701,.F.);
#701 = EDGE_LOOP('',(#702,#703,#748,#771));
#702 = ORIENTED_EDGE('',*,*,#306,.T.);
#703 = ORIENTED_EDGE('',*,*,#704,.T.);
#704 = EDGE_CURVE('',#307,#705,#707,.T.);
#705 = VERTEX_POINT('',#706);
#706 = CARTESIAN_POINT('',(-64.74,159.53014691904,0.));
#707 = SURFACE_CURVE('',#708,(#723,#730),.PCURVE_S1.);
#708 = B_SPLINE_CURVE_WITH_KNOTS('',7,(#709,#710,#711,#712,#713,#714,
    #715,#716,#717,#718,#719,#720,#721,#722),.UNSPECIFIED.,.F.,.F.,(8,6,
    8),(339.41178130114,339.45030959866,352.0381271546),.UNSPECIFIED.);
#709 = CARTESIAN_POINT('',(-72.335,151.85935736085,0.));
#710 = CARTESIAN_POINT('',(-72.335,151.86487409746,0.));
#711 = CARTESIAN_POINT('',(-72.33500043705,151.87042965862,0.));
#712 = CARTESIAN_POINT('',(-72.33499989119,151.87589357,0.));
#713 = CARTESIAN_POINT('',(-72.33499931098,151.88136390782,0.));
#714 = CARTESIAN_POINT('',(-72.33499999634,151.88695933417,0.));
#715 = CARTESIAN_POINT('',(-72.33500158149,151.89261113255,0.));
#716 = CARTESIAN_POINT('',(-72.33448912713,153.61119096155,0.));
#717 = CARTESIAN_POINT('',(-71.88883791264,155.32406745614,0.));
#718 = CARTESIAN_POINT('',(-70.99569100237,156.89613376302,0.));
#719 = CARTESIAN_POINT('',(-69.71182475194,158.18575113113,0.));
#720 = CARTESIAN_POINT('',(-68.14778634187,159.08197908136,0.));
#721 = CARTESIAN_POINT('',(-66.44388888015,159.53014691904,0.));
#722 = CARTESIAN_POINT('',(-64.74,159.53014691904,0.));
#723 = PCURVE('',#178,#724);
#724 = DEFINITIONAL_REPRESENTATION('',(#725),#729);
#725 = LINE('',#726,#727);
#726 = CARTESIAN_POINT('',(12.626345853459,0.));
#727 = VECTOR('',#728,1.);
#728 = DIRECTION('',(0.,1.));
#729 = ( GEOMETRIC_REPRESENTATION_CONTEXT(2) 
PARAMETRIC_REPRESENTATION_CONTEXT() REPRESENTATION_CONTEXT('2D SPACE',''
  ) );
#730 = PCURVE('',#341,#731);
#731 = DEFINITIONAL_REPRESENTATION('',(#732),#747);
#732 = B_SPLINE_CURVE_WITH_KNOTS('',7,(#733,#734,#735,#736,#737,#738,
    #739,#740,#741,#742,#743,#744,#745,#746),.UNSPECIFIED.,.F.,.F.,(8,6,
    8),(339.41178130114,339.45030959866,352.0381271546),.UNSPECIFIED.);
#733 = CARTESIAN_POINT('',(127.665,351.85935736085));
#734 = CARTESIAN_POINT('',(127.66499999999,351.86487409746));
#735 = CARTESIAN_POINT('',(127.66499956295,351.87042965862));
#736 = CARTESIAN_POINT('',(127.6650001088,351.87589357));
#737 = CARTESIAN_POINT('',(127.66500068902,351.88136390782));
#738 = CARTESIAN_POINT('',(127.66500000365,351.88695933417));
#739 = CARTESIAN_POINT('',(127.6649984185,351.89261113255));
#740 = CARTESIAN_POINT('',(127.66551087286,353.61119096154));
#741 = CARTESIAN_POINT('',(128.11116208736,355.32406745615));
#742 = CARTESIAN_POINT('',(129.00430899762,356.89613376301));
#743 = CARTESIAN_POINT('',(130.28817524806,358.18575113113));
#744 = CARTESIAN_POINT('',(131.85221365811,359.08197908136));
#745 = CARTESIAN_POINT('',(133.55611111984,359.53014691904));
#746 = CARTESIAN_POINT('',(135.26,359.53014691904));
#747 = ( GEOMETRIC_REPRESENTATION_CONTEXT(2) 
PARAMETRIC_REPRESENTATION_CONTEXT() REPRESENTATION_CONTEXT('2D SPACE',''
  ) );
#748 = ORIENTED_EDGE('',*,*,#749,.F.);
#749 = EDGE_CURVE('',#143,#705,#750,.T.);
#750 = SURFACE_CURVE('',#751,(#754,#760),.PCURVE_S1.);
#751 = B_SPLINE_CURVE_WITH_KNOTS('',1,(#752,#753),.UNSPECIFIED.,.F.,.F.,
  (2,2),(0.,12.626345853459),.PIECEWISE_BEZIER_KNOTS.);
#752 = CARTESIAN_POINT('',(-64.74,159.8917084806,0.3981488245));
#753 = CARTESIAN_POINT('',(-64.74,159.53014691904,0.));
#754 = PCURVE('',#178,#755);
#755 = DEFINITIONAL_REPRESENTATION('',(#756),#759);
#756 = B_SPLINE_CURVE_WITH_KNOTS('',1,(#757,#758),.UNSPECIFIED.,.F.,.F.,
  (2,2),(0.,12.626345853459),.PIECEWISE_BEZIER_KNOTS.);
#757 = CARTESIAN_POINT('',(0.,352.0381271546));
#758 = CARTESIAN_POINT('',(12.626345853459,352.0381271546));
#759 = ( GEOMETRIC_REPRESENTATION_CONTEXT(2) 
PARAMETRIC_REPRESENTATION_CONTEXT() REPRESENTATION_CONTEXT('2D SPACE',''
  ) );
#760 = PCURVE('',#761,#766);
#761 = PLANE('',#762);
#762 = AXIS2_PLACEMENT_3D('',#763,#764,#765);
#763 = CARTESIAN_POINT('',(-64.74,159.71092770518,0.19907441225));
#764 = DIRECTION('',(-4.465665882043E-18,-0.740302673268,0.672273718029)
  );
#765 = DIRECTION('',(-1.,3.305944390399E-18,-3.002149805994E-18));
#766 = DEFINITIONAL_REPRESENTATION('',(#767),#770);
#767 = B_SPLINE_CURVE_WITH_KNOTS('',1,(#768,#769),.UNSPECIFIED.,.F.,.F.,
  (2,2),(0.,12.626345853459),.PIECEWISE_BEZIER_KNOTS.);
#768 = CARTESIAN_POINT('',(0.,-0.268909487211));
#769 = CARTESIAN_POINT('',(0.,0.268909487211));
#770 = ( GEOMETRIC_REPRESENTATION_CONTEXT(2) 
PARAMETRIC_REPRESENTATION_CONTEXT() REPRESENTATION_CONTEXT('2D SPACE',''
  ) );
#771 = ORIENTED_EDGE('',*,*,#142,.F.);
#772 = ADVANCED_FACE('',(#773),#230,.T.);
#773 = FACE_BOUND('',#774,.T.);
#774 = EDGE_LOOP('',(#775,#798,#819,#820));
#775 = ORIENTED_EDGE('',*,*,#776,.F.);
#776 = EDGE_CURVE('',#777,#467,#779,.T.);
#777 = VERTEX_POINT('',#778);
#778 = CARTESIAN_POINT('',(64.74,159.89170848596,0.3981488245));
#779 = SURFACE_CURVE('',#780,(#784,#791),.PCURVE_S1.);
#780 = LINE('',#781,#782);
#781 = CARTESIAN_POINT('',(64.74,163.87689952739,-40.88082071952));
#782 = VECTOR('',#783,1.);
#783 = DIRECTION('',(0.,-9.60960960961E-02,0.995372061249));
#784 = PCURVE('',#230,#785);
#785 = DEFINITIONAL_REPRESENTATION('',(#786),#790);
#786 = LINE('',#787,#788);
#787 = CARTESIAN_POINT('',(129.48,0.));
#788 = VECTOR('',#789,1.);
#789 = DIRECTION('',(0.,-1.));
#790 = ( GEOMETRIC_REPRESENTATION_CONTEXT(2) 
PARAMETRIC_REPRESENTATION_CONTEXT() REPRESENTATION_CONTEXT('2D SPACE',''
  ) );
#791 = PCURVE('',#483,#792);
#792 = DEFINITIONAL_REPRESENTATION('',(#793),#797);
#793 = LINE('',#794,#795);
#794 = CARTESIAN_POINT('',(-1.570796326795,0.));
#795 = VECTOR('',#796,1.);
#796 = DIRECTION('',(-0.,-1.));
#797 = ( GEOMETRIC_REPRESENTATION_CONTEXT(2) 
PARAMETRIC_REPRESENTATION_CONTEXT() REPRESENTATION_CONTEXT('2D SPACE',''
  ) );
#798 = ORIENTED_EDGE('',*,*,#799,.F.);
#799 = EDGE_CURVE('',#143,#777,#800,.T.);
#800 = SURFACE_CURVE('',#801,(#805,#812),.PCURVE_S1.);
#801 = LINE('',#802,#803);
#802 = CARTESIAN_POINT('',(-64.74,159.89170848596,0.3981488245));
#803 = VECTOR('',#804,1.);
#804 = DIRECTION('',(1.,0.,0.));
#805 = PCURVE('',#230,#806);
#806 = DEFINITIONAL_REPRESENTATION('',(#807),#811);
#807 = LINE('',#808,#809);
#808 = CARTESIAN_POINT('',(0.,-41.47089430254));
#809 = VECTOR('',#810,1.);
#810 = DIRECTION('',(1.,0.));
#811 = ( GEOMETRIC_REPRESENTATION_CONTEXT(2) 
PARAMETRIC_REPRESENTATION_CONTEXT() REPRESENTATION_CONTEXT('2D SPACE',''
  ) );
#812 = PCURVE('',#761,#813);
#813 = DEFINITIONAL_REPRESENTATION('',(#814),#818);
#814 = LINE('',#815,#816);
#815 = CARTESIAN_POINT('',(-0.,-0.268909487211));
#816 = VECTOR('',#817,1.);
#817 = DIRECTION('',(-1.,0.));
#818 = ( GEOMETRIC_REPRESENTATION_CONTEXT(2) 
PARAMETRIC_REPRESENTATION_CONTEXT() REPRESENTATION_CONTEXT('2D SPACE',''
  ) );
#819 = ORIENTED_EDGE('',*,*,#214,.T.);
#820 = ORIENTED_EDGE('',*,*,#495,.T.);
#821 = ADVANCED_FACE('',(#822),#282,.F.);
#822 = FACE_BOUND('',#823,.F.);
#823 = EDGE_LOOP('',(#824,#850,#881,#882));
#824 = ORIENTED_EDGE('',*,*,#825,.T.);
#825 = EDGE_CURVE('',#645,#826,#828,.T.);
#826 = VERTEX_POINT('',#827);
#827 = CARTESIAN_POINT('',(-64.74,134.21930755908,-3.30291349826E-15));
#828 = SURFACE_CURVE('',#829,(#833,#839),.PCURVE_S1.);
#829 = LINE('',#830,#831);
#830 = CARTESIAN_POINT('',(-64.74,134.00008833986,0.19907441225));
#831 = VECTOR('',#832,1.);
#832 = DIRECTION('',(1.570744703651E-35,0.740302673268,-0.672273718029)
  );
#833 = PCURVE('',#282,#834);
#834 = DEFINITIONAL_REPRESENTATION('',(#835),#838);
#835 = B_SPLINE_CURVE_WITH_KNOTS('',1,(#836,#837),.UNSPECIFIED.,.F.,.F.,
  (2,2),(-0.296121069307,0.296121069307),.PIECEWISE_BEZIER_KNOTS.);
#836 = CARTESIAN_POINT('',(0.,646.22007910532));
#837 = CARTESIAN_POINT('',(12.549111393584,646.22007910532));
#838 = ( GEOMETRIC_REPRESENTATION_CONTEXT(2) 
PARAMETRIC_REPRESENTATION_CONTEXT() REPRESENTATION_CONTEXT('2D SPACE',''
  ) );
#839 = PCURVE('',#840,#845);
#840 = PLANE('',#841);
#841 = AXIS2_PLACEMENT_3D('',#842,#843,#844);
#842 = CARTESIAN_POINT('',(64.74,134.00008833986,0.19907441225));
#843 = DIRECTION('',(1.567327624288E-18,-0.672273718029,-0.740302673268)
  );
#844 = DIRECTION('',(-1.,-1.053673169349E-18,-1.160296830147E-18));
#845 = DEFINITIONAL_REPRESENTATION('',(#846),#849);
#846 = B_SPLINE_CURVE_WITH_KNOTS('',1,(#847,#848),.UNSPECIFIED.,.F.,.F.,
  (2,2),(-0.296121069307,0.296121069307),.PIECEWISE_BEZIER_KNOTS.);
#847 = CARTESIAN_POINT('',(129.48,-0.296121069307));
#848 = CARTESIAN_POINT('',(129.48,0.296121069307));
#849 = ( GEOMETRIC_REPRESENTATION_CONTEXT(2) 
PARAMETRIC_REPRESENTATION_CONTEXT() REPRESENTATION_CONTEXT('2D SPACE',''
  ) );
#850 = ORIENTED_EDGE('',*,*,#851,.T.);
#851 = EDGE_CURVE('',#826,#268,#852,.T.);
#852 = SURFACE_CURVE('',#853,(#862,#869),.PCURVE_S1.);
#853 = B_SPLINE_CURVE_WITH_KNOTS('',7,(#854,#855,#856,#857,#858,#859,
    #860,#861),.UNSPECIFIED.,.F.,.F.,(8,8),(646.22007910532,
    658.7691904989),.PIECEWISE_BEZIER_KNOTS.);
#854 = CARTESIAN_POINT('',(-64.74,134.21930755908,0.));
#855 = CARTESIAN_POINT('',(-66.4386738287,134.21930755908,0.));
#856 = CARTESIAN_POINT('',(-68.14042713874,134.66473298153,0.));
#857 = CARTESIAN_POINT('',(-69.70493439867,135.55575547321,0.));
#858 = CARTESIAN_POINT('',(-70.99086979122,136.83828302476,0.));
#859 = CARTESIAN_POINT('',(-71.8861326093,138.40150920498,0.));
#860 = CARTESIAN_POINT('',(-72.33483182327,140.10612987445,0.));
#861 = CARTESIAN_POINT('',(-72.33500000194,141.81290221916,0.));
#862 = PCURVE('',#282,#863);
#863 = DEFINITIONAL_REPRESENTATION('',(#864),#868);
#864 = LINE('',#865,#866);
#865 = CARTESIAN_POINT('',(12.549111393584,0.));
#866 = VECTOR('',#867,1.);
#867 = DIRECTION('',(0.,1.));
#868 = ( GEOMETRIC_REPRESENTATION_CONTEXT(2) 
PARAMETRIC_REPRESENTATION_CONTEXT() REPRESENTATION_CONTEXT('2D SPACE',''
  ) );
#869 = PCURVE('',#341,#870);
#870 = DEFINITIONAL_REPRESENTATION('',(#871),#880);
#871 = B_SPLINE_CURVE_WITH_KNOTS('',7,(#872,#873,#874,#875,#876,#877,
    #878,#879),.UNSPECIFIED.,.F.,.F.,(8,8),(646.22007910532,
    658.7691904989),.PIECEWISE_BEZIER_KNOTS.);
#872 = CARTESIAN_POINT('',(135.26,334.21930755908));
#873 = CARTESIAN_POINT('',(133.56132617129,334.21930755908));
#874 = CARTESIAN_POINT('',(131.85957286125,334.66473298153));
#875 = CARTESIAN_POINT('',(130.29506560132,335.5557554732));
#876 = CARTESIAN_POINT('',(129.00913020878,336.83828302476));
#877 = CARTESIAN_POINT('',(128.11386739069,338.40150920498));
#878 = CARTESIAN_POINT('',(127.66516817672,340.10612987445));
#879 = CARTESIAN_POINT('',(127.66499999805,341.81290221916));
#880 = ( GEOMETRIC_REPRESENTATION_CONTEXT(2) 
PARAMETRIC_REPRESENTATION_CONTEXT() REPRESENTATION_CONTEXT('2D SPACE',''
  ) );
#881 = ORIENTED_EDGE('',*,*,#267,.F.);
#882 = ORIENTED_EDGE('',*,*,#667,.F.);
#883 = ADVANCED_FACE('',(#884),#341,.F.);
#884 = FACE_BOUND('',#885,.F.);
#885 = EDGE_LOOP('',(#886,#887,#888,#911,#961,#989,#1063,#1084));
#886 = ORIENTED_EDGE('',*,*,#327,.F.);
#887 = ORIENTED_EDGE('',*,*,#851,.F.);
#888 = ORIENTED_EDGE('',*,*,#889,.F.);
#889 = EDGE_CURVE('',#890,#826,#892,.T.);
#890 = VERTEX_POINT('',#891);
#891 = CARTESIAN_POINT('',(64.74,134.21930755908,0.));
#892 = SURFACE_CURVE('',#893,(#897,#904),.PCURVE_S1.);
#893 = LINE('',#894,#895);
#894 = CARTESIAN_POINT('',(64.74,134.21930755908,-9.975173515208E-16));
#895 = VECTOR('',#896,1.);
#896 = DIRECTION('',(-1.,-0.,-0.));
#897 = PCURVE('',#341,#898);
#898 = DEFINITIONAL_REPRESENTATION('',(#899),#903);
#899 = LINE('',#900,#901);
#900 = CARTESIAN_POINT('',(264.74,334.21930755908));
#901 = VECTOR('',#902,1.);
#902 = DIRECTION('',(-1.,0.));
#903 = ( GEOMETRIC_REPRESENTATION_CONTEXT(2) 
PARAMETRIC_REPRESENTATION_CONTEXT() REPRESENTATION_CONTEXT('2D SPACE',''
  ) );
#904 = PCURVE('',#840,#905);
#905 = DEFINITIONAL_REPRESENTATION('',(#906),#910);
#906 = LINE('',#907,#908);
#907 = CARTESIAN_POINT('',(0.,0.296121069307));
#908 = VECTOR('',#909,1.);
#909 = DIRECTION('',(1.,0.));
#910 = ( GEOMETRIC_REPRESENTATION_CONTEXT(2) 
PARAMETRIC_REPRESENTATION_CONTEXT() REPRESENTATION_CONTEXT('2D SPACE',''
  ) );
#911 = ORIENTED_EDGE('',*,*,#912,.F.);
#912 = EDGE_CURVE('',#913,#890,#915,.T.);
#913 = VERTEX_POINT('',#914);
#914 = CARTESIAN_POINT('',(72.335,141.81286280472,-3.247402347029E-15));
#915 = SURFACE_CURVE('',#916,(#925,#937),.PCURVE_S1.);
#916 = B_SPLINE_CURVE_WITH_KNOTS('',7,(#917,#918,#919,#920,#921,#922,
    #923,#924),.UNSPECIFIED.,.F.,.F.,(8,8),(504.19096771173,
    516.74007910532),.PIECEWISE_BEZIER_KNOTS.);
#917 = CARTESIAN_POINT('',(72.335000001942,141.81290221916,0.));
#918 = CARTESIAN_POINT('',(72.334831823272,140.10612987445,0.));
#919 = CARTESIAN_POINT('',(71.886132609307,138.40150920499,0.));
#920 = CARTESIAN_POINT('',(70.990869791221,136.83828302475,0.));
#921 = CARTESIAN_POINT('',(69.704934398673,135.55575547321,0.));
#922 = CARTESIAN_POINT('',(68.140427138744,134.66473298153,0.));
#923 = CARTESIAN_POINT('',(66.438673828701,134.21930755908,0.));
#924 = CARTESIAN_POINT('',(64.74,134.21930755908,0.));
#925 = PCURVE('',#341,#926);
#926 = DEFINITIONAL_REPRESENTATION('',(#927),#936);
#927 = B_SPLINE_CURVE_WITH_KNOTS('',7,(#928,#929,#930,#931,#932,#933,
    #934,#935),.UNSPECIFIED.,.F.,.F.,(8,8),(504.19096771173,
    516.74007910532),.PIECEWISE_BEZIER_KNOTS.);
#928 = CARTESIAN_POINT('',(272.33500000194,341.81290221916));
#929 = CARTESIAN_POINT('',(272.33483182327,340.10612987445));
#930 = CARTESIAN_POINT('',(271.88613260931,338.40150920498));
#931 = CARTESIAN_POINT('',(270.99086979121,336.83828302475));
#932 = CARTESIAN_POINT('',(269.70493439867,335.55575547321));
#933 = CARTESIAN_POINT('',(268.14042713874,334.66473298153));
#934 = CARTESIAN_POINT('',(266.4386738287,334.21930755908));
#935 = CARTESIAN_POINT('',(264.74,334.21930755908));
#936 = ( GEOMETRIC_REPRESENTATION_CONTEXT(2) 
PARAMETRIC_REPRESENTATION_CONTEXT() REPRESENTATION_CONTEXT('2D SPACE',''
  ) );
#937 = PCURVE('',#938,#955);
#938 = B_SPLINE_SURFACE_WITH_KNOTS('',1,7,(
    (#939,#940,#941,#942,#943,#944,#945,#946)
    ,(#947,#948,#949,#950,#951,#952,#953,#954
  )),.UNSPECIFIED.,.F.,.F.,.F.,(2,2),(8,8),(0.,12.549111393584),(
    504.19096771173,516.74007910532),.PIECEWISE_BEZIER_KNOTS.);
#939 = CARTESIAN_POINT('',(72.735,141.81286280472,0.4));
#940 = CARTESIAN_POINT('',(72.735,140.01599311758,0.4));
#941 = CARTESIAN_POINT('',(72.268037964774,138.22119631926,0.39996638187
    ));
#942 = CARTESIAN_POINT('',(71.337260427695,136.57084775122,
    0.400146542996));
#943 = CARTESIAN_POINT('',(69.990135504769,135.2038719152,0.399096502593
    ));
#944 = CARTESIAN_POINT('',(68.337048157608,134.25438522933,
    0.398351496342));
#945 = CARTESIAN_POINT('',(66.537213645764,133.78086912064,0.3981488245)
  );
#946 = CARTESIAN_POINT('',(64.74,133.78086912064,0.3981488245));
#947 = CARTESIAN_POINT('',(72.335000001942,141.81290221916,0.));
#948 = CARTESIAN_POINT('',(72.334831823272,140.10612987445,0.));
#949 = CARTESIAN_POINT('',(71.886132609307,138.40150920499,0.));
#950 = CARTESIAN_POINT('',(70.990869791221,136.83828302475,0.));
#951 = CARTESIAN_POINT('',(69.704934398673,135.55575547321,0.));
#952 = CARTESIAN_POINT('',(68.140427138744,134.66473298153,0.));
#953 = CARTESIAN_POINT('',(66.438673828701,134.21930755908,0.));
#954 = CARTESIAN_POINT('',(64.74,134.21930755908,0.));
#955 = DEFINITIONAL_REPRESENTATION('',(#956),#960);
#956 = LINE('',#957,#958);
#957 = CARTESIAN_POINT('',(12.549111393584,0.));
#958 = VECTOR('',#959,1.);
#959 = DIRECTION('',(0.,1.));
#960 = ( GEOMETRIC_REPRESENTATION_CONTEXT(2) 
PARAMETRIC_REPRESENTATION_CONTEXT() REPRESENTATION_CONTEXT('2D SPACE',''
  ) );
#961 = ORIENTED_EDGE('',*,*,#962,.F.);
#962 = EDGE_CURVE('',#963,#913,#965,.T.);
#963 = VERTEX_POINT('',#964);
#964 = CARTESIAN_POINT('',(72.335,151.85935736085,0.));
#965 = SURFACE_CURVE('',#966,(#970,#977),.PCURVE_S1.);
#966 = LINE('',#967,#968);
#967 = CARTESIAN_POINT('',(72.335,151.89797451712,0.));
#968 = VECTOR('',#969,1.);
#969 = DIRECTION('',(-0.,-1.,0.));
#970 = PCURVE('',#341,#971);
#971 = DEFINITIONAL_REPRESENTATION('',(#972),#976);
#972 = LINE('',#973,#974);
#973 = CARTESIAN_POINT('',(272.335,351.89797451712));
#974 = VECTOR('',#975,1.);
#975 = DIRECTION('',(-0.,-1.));
#976 = ( GEOMETRIC_REPRESENTATION_CONTEXT(2) 
PARAMETRIC_REPRESENTATION_CONTEXT() REPRESENTATION_CONTEXT('2D SPACE',''
  ) );
#977 = PCURVE('',#978,#983);
#978 = PLANE('',#979);
#979 = AXIS2_PLACEMENT_3D('',#980,#981,#982);
#980 = CARTESIAN_POINT('',(72.535,151.89797451712,0.2));
#981 = DIRECTION('',(0.707106781187,2.795980032047E-18,-0.707106781187)
  );
#982 = DIRECTION('',(1.977056440722E-18,-1.,-1.977056440722E-18));
#983 = DEFINITIONAL_REPRESENTATION('',(#984),#988);
#984 = LINE('',#985,#986);
#985 = CARTESIAN_POINT('',(0.,0.282842712475));
#986 = VECTOR('',#987,1.);
#987 = DIRECTION('',(1.,0.));
#988 = ( GEOMETRIC_REPRESENTATION_CONTEXT(2) 
PARAMETRIC_REPRESENTATION_CONTEXT() REPRESENTATION_CONTEXT('2D SPACE',''
  ) );
#989 = ORIENTED_EDGE('',*,*,#990,.F.);
#990 = EDGE_CURVE('',#991,#963,#993,.T.);
#991 = VERTEX_POINT('',#992);
#992 = CARTESIAN_POINT('',(64.74,159.5301469244,-1.59872115546E-14));
#993 = SURFACE_CURVE('',#994,(#1009,#1027),.PCURVE_S1.);
#994 = B_SPLINE_CURVE_WITH_KNOTS('',7,(#995,#996,#997,#998,#999,#1000,
    #1001,#1002,#1003,#1004,#1005,#1006,#1007,#1008),.UNSPECIFIED.,.F.,
  .F.,(8,6,8),(481.51812715467,494.10594471068,494.1444730082),
  .UNSPECIFIED.);
#995 = CARTESIAN_POINT('',(64.74,159.53014691904,0.));
#996 = CARTESIAN_POINT('',(66.443888880154,159.53014691904,0.));
#997 = CARTESIAN_POINT('',(68.147786341878,159.08197908136,0.));
#998 = CARTESIAN_POINT('',(69.711824751943,158.18575113112,0.));
#999 = CARTESIAN_POINT('',(70.995691002369,156.89613376303,0.));
#1000 = CARTESIAN_POINT('',(71.888837912642,155.32406745614,0.));
#1001 = CARTESIAN_POINT('',(72.334489127136,153.61119096154,0.));
#1002 = CARTESIAN_POINT('',(72.335001581497,151.89261113255,0.));
#1003 = CARTESIAN_POINT('',(72.334999996345,151.88695933417,0.));
#1004 = CARTESIAN_POINT('',(72.334999310984,151.88136390782,0.));
#1005 = CARTESIAN_POINT('',(72.334999891192,151.87589357,0.));
#1006 = CARTESIAN_POINT('',(72.335000437052,151.87042965862,0.));
#1007 = CARTESIAN_POINT('',(72.335,151.86487409746,0.));
#1008 = CARTESIAN_POINT('',(72.335,151.85935736085,0.));
#1009 = PCURVE('',#341,#1010);
#1010 = DEFINITIONAL_REPRESENTATION('',(#1011),#1026);
#1011 = B_SPLINE_CURVE_WITH_KNOTS('',7,(#1012,#1013,#1014,#1015,#1016,
    #1017,#1018,#1019,#1020,#1021,#1022,#1023,#1024,#1025),
  .UNSPECIFIED.,.F.,.F.,(8,6,8),(481.51812715467,494.10594471068,
    494.1444730082),.UNSPECIFIED.);
#1012 = CARTESIAN_POINT('',(264.74,359.53014691904));
#1013 = CARTESIAN_POINT('',(266.44388888015,359.53014691904));
#1014 = CARTESIAN_POINT('',(268.14778634187,359.08197908136));
#1015 = CARTESIAN_POINT('',(269.71182475194,358.18575113112));
#1016 = CARTESIAN_POINT('',(270.99569100236,356.89613376303));
#1017 = CARTESIAN_POINT('',(271.88883791264,355.32406745614));
#1018 = CARTESIAN_POINT('',(272.33448912713,353.61119096154));
#1019 = CARTESIAN_POINT('',(272.33500158149,351.89261113255));
#1020 = CARTESIAN_POINT('',(272.33499999634,351.88695933417));
#1021 = CARTESIAN_POINT('',(272.33499931098,351.88136390782));
#1022 = CARTESIAN_POINT('',(272.33499989118,351.87589357));
#1023 = CARTESIAN_POINT('',(272.33500043705,351.87042965862));
#1024 = CARTESIAN_POINT('',(272.33499999999,351.86487409746));
#1025 = CARTESIAN_POINT('',(272.335,351.85935736085));
#1026 = ( GEOMETRIC_REPRESENTATION_CONTEXT(2) 
PARAMETRIC_REPRESENTATION_CONTEXT() REPRESENTATION_CONTEXT('2D SPACE',''
  ) );
#1027 = PCURVE('',#1028,#1057);
#1028 = B_SPLINE_SURFACE_WITH_KNOTS('',1,7,(
    (#1029,#1030,#1031,#1032,#1033,#1034,#1035,#1036,#1037,#1038,#1039
      ,#1040,#1041,#1042)
    ,(#1043,#1044,#1045,#1046,#1047,#1048,#1049,#1050,#1051,#1052,#1053
      ,#1054,#1055,#1056
    )),.UNSPECIFIED.,.F.,.F.,.F.,(2,2),(8,6,8),(0.,12.62634585353),(
    481.51812715467,494.10594471068,494.1444730082),.UNSPECIFIED.);
#1029 = CARTESIAN_POINT('',(64.74,159.8917084806,0.3981488245));
#1030 = CARTESIAN_POINT('',(66.525399961714,159.8917084806,
    0.398148824499));
#1031 = CARTESIAN_POINT('',(68.310820168697,159.42431594608,
    0.398362325716));
#1032 = CARTESIAN_POINT('',(69.951538130249,158.48986425625,
    0.398812578163));
#1033 = CARTESIAN_POINT('',(71.302852132148,157.14323335945,
    0.399321611292));
#1034 = CARTESIAN_POINT('',(72.24793778496,155.49849853659,
    0.399800008885));
#1035 = CARTESIAN_POINT('',(72.726282088729,153.70035855699,
    0.399998120929));
#1036 = CARTESIAN_POINT('',(72.734933997872,151.89245782322,
    0.399999995046));
#1037 = CARTESIAN_POINT('',(72.734955998822,151.8869410426,
    0.399999998527));
#1038 = CARTESIAN_POINT('',(72.734973599436,151.88142428549,
    0.399999999903));
#1039 = CARTESIAN_POINT('',(72.734986799678,151.87590756752,
    0.400000000019));
#1040 = CARTESIAN_POINT('',(72.734995599809,151.87039084829,
    0.399999999863));
#1041 = CARTESIAN_POINT('',(72.735,151.86487409746,0.4));
#1042 = CARTESIAN_POINT('',(72.735,151.85935736085,0.4));
#1043 = CARTESIAN_POINT('',(64.74,159.53014691904,0.));
#1044 = CARTESIAN_POINT('',(66.443888880154,159.53014691904,0.));
#1045 = CARTESIAN_POINT('',(68.147786341878,159.08197908136,0.));
#1046 = CARTESIAN_POINT('',(69.711824751943,158.18575113112,0.));
#1047 = CARTESIAN_POINT('',(70.995691002369,156.89613376303,0.));
#1048 = CARTESIAN_POINT('',(71.888837912642,155.32406745614,0.));
#1049 = CARTESIAN_POINT('',(72.334489127136,153.61119096154,0.));
#1050 = CARTESIAN_POINT('',(72.335001581497,151.89261113255,0.));
#1051 = CARTESIAN_POINT('',(72.334999996345,151.88695933417,0.));
#1052 = CARTESIAN_POINT('',(72.334999310984,151.88136390782,0.));
#1053 = CARTESIAN_POINT('',(72.334999891192,151.87589357,0.));
#1054 = CARTESIAN_POINT('',(72.335000437052,151.87042965862,0.));
#1055 = CARTESIAN_POINT('',(72.335,151.86487409746,0.));
#1056 = CARTESIAN_POINT('',(72.335,151.85935736085,0.));
#1057 = DEFINITIONAL_REPRESENTATION('',(#1058),#1062);
#1058 = LINE('',#1059,#1060);
#1059 = CARTESIAN_POINT('',(12.62634585353,0.));
#1060 = VECTOR('',#1061,1.);
#1061 = DIRECTION('',(0.,1.));
#1062 = ( GEOMETRIC_REPRESENTATION_CONTEXT(2) 
PARAMETRIC_REPRESENTATION_CONTEXT() REPRESENTATION_CONTEXT('2D SPACE',''
  ) );
#1063 = ORIENTED_EDGE('',*,*,#1064,.F.);
#1064 = EDGE_CURVE('',#705,#991,#1065,.T.);
#1065 = SURFACE_CURVE('',#1066,(#1070,#1077),.PCURVE_S1.);
#1066 = LINE('',#1067,#1068);
#1067 = CARTESIAN_POINT('',(-64.74,159.5301469244,-1.619704249274E-15));
#1068 = VECTOR('',#1069,1.);
#1069 = DIRECTION('',(1.,0.,0.));
#1070 = PCURVE('',#341,#1071);
#1071 = DEFINITIONAL_REPRESENTATION('',(#1072),#1076);
#1072 = LINE('',#1073,#1074);
#1073 = CARTESIAN_POINT('',(135.26,359.5301469244));
#1074 = VECTOR('',#1075,1.);
#1075 = DIRECTION('',(1.,0.));
#1076 = ( GEOMETRIC_REPRESENTATION_CONTEXT(2) 
PARAMETRIC_REPRESENTATION_CONTEXT() REPRESENTATION_CONTEXT('2D SPACE',''
  ) );
#1077 = PCURVE('',#761,#1078);
#1078 = DEFINITIONAL_REPRESENTATION('',(#1079),#1083);
#1079 = LINE('',#1080,#1081);
#1080 = CARTESIAN_POINT('',(-0.,0.268909487211));
#1081 = VECTOR('',#1082,1.);
#1082 = DIRECTION('',(-1.,0.));
#1083 = ( GEOMETRIC_REPRESENTATION_CONTEXT(2) 
PARAMETRIC_REPRESENTATION_CONTEXT() REPRESENTATION_CONTEXT('2D SPACE',''
  ) );
#1084 = ORIENTED_EDGE('',*,*,#704,.F.);
#1085 = ADVANCED_FACE('',(#1086),#397,.F.);
#1086 = FACE_BOUND('',#1087,.F.);
#1087 = EDGE_LOOP('',(#1088,#1111,#1132,#1133));
#1088 = ORIENTED_EDGE('',*,*,#1089,.F.);
#1089 = EDGE_CURVE('',#1090,#382,#1092,.T.);
#1090 = VERTEX_POINT('',#1091);
#1091 = CARTESIAN_POINT('',(64.74,133.78086912064,0.3981488245));
#1092 = SURFACE_CURVE('',#1093,(#1097,#1104),.PCURVE_S1.);
#1093 = LINE('',#1094,#1095);
#1094 = CARTESIAN_POINT('',(64.74,138.00717965819,-43.3783582568));
#1095 = VECTOR('',#1096,1.);
#1096 = DIRECTION('',(0.,-9.60960960961E-02,0.995372061249));
#1097 = PCURVE('',#397,#1098);
#1098 = DEFINITIONAL_REPRESENTATION('',(#1099),#1103);
#1099 = LINE('',#1100,#1101);
#1100 = CARTESIAN_POINT('',(129.48,0.));
#1101 = VECTOR('',#1102,1.);
#1102 = DIRECTION('',(0.,-1.));
#1103 = ( GEOMETRIC_REPRESENTATION_CONTEXT(2) 
PARAMETRIC_REPRESENTATION_CONTEXT() REPRESENTATION_CONTEXT('2D SPACE',''
  ) );
#1104 = PCURVE('',#426,#1105);
#1105 = DEFINITIONAL_REPRESENTATION('',(#1106),#1110);
#1106 = LINE('',#1107,#1108);
#1107 = CARTESIAN_POINT('',(-4.712388980385,0.));
#1108 = VECTOR('',#1109,1.);
#1109 = DIRECTION('',(-0.,-1.));
#1110 = ( GEOMETRIC_REPRESENTATION_CONTEXT(2) 
PARAMETRIC_REPRESENTATION_CONTEXT() REPRESENTATION_CONTEXT('2D SPACE',''
  ) );
#1111 = ORIENTED_EDGE('',*,*,#1112,.T.);
#1112 = EDGE_CURVE('',#1090,#645,#1113,.T.);
#1113 = SURFACE_CURVE('',#1114,(#1118,#1125),.PCURVE_S1.);
#1114 = LINE('',#1115,#1116);
#1115 = CARTESIAN_POINT('',(64.74,133.78086912064,0.3981488245));
#1116 = VECTOR('',#1117,1.);
#1117 = DIRECTION('',(-1.,-0.,-0.));
#1118 = PCURVE('',#397,#1119);
#1119 = DEFINITIONAL_REPRESENTATION('',(#1120),#1124);
#1120 = LINE('',#1121,#1122);
#1121 = CARTESIAN_POINT('',(129.48,-43.98004403134));
#1122 = VECTOR('',#1123,1.);
#1123 = DIRECTION('',(-1.,0.));
#1124 = ( GEOMETRIC_REPRESENTATION_CONTEXT(2) 
PARAMETRIC_REPRESENTATION_CONTEXT() REPRESENTATION_CONTEXT('2D SPACE',''
  ) );
#1125 = PCURVE('',#840,#1126);
#1126 = DEFINITIONAL_REPRESENTATION('',(#1127),#1131);
#1127 = LINE('',#1128,#1129);
#1128 = CARTESIAN_POINT('',(0.,-0.296121069307));
#1129 = VECTOR('',#1130,1.);
#1130 = DIRECTION('',(1.,0.));
#1131 = ( GEOMETRIC_REPRESENTATION_CONTEXT(2) 
PARAMETRIC_REPRESENTATION_CONTEXT() REPRESENTATION_CONTEXT('2D SPACE',''
  ) );
#1132 = ORIENTED_EDGE('',*,*,#644,.T.);
#1133 = ORIENTED_EDGE('',*,*,#381,.T.);
#1134 = ADVANCED_FACE('',(#1135),#426,.T.);
#1135 = FACE_BOUND('',#1136,.F.);
#1136 = EDGE_LOOP('',(#1137,#1160,#1191,#1192));
#1137 = ORIENTED_EDGE('',*,*,#1138,.F.);
#1138 = EDGE_CURVE('',#1139,#410,#1141,.T.);
#1139 = VERTEX_POINT('',#1140);
#1140 = CARTESIAN_POINT('',(72.735,141.81286280472,0.4));
#1141 = SURFACE_CURVE('',#1142,(#1146,#1153),.PCURVE_S1.);
#1142 = LINE('',#1143,#1144);
#1143 = CARTESIAN_POINT('',(72.735,145.96517928787,-42.61006996851));
#1144 = VECTOR('',#1145,1.);
#1145 = DIRECTION('',(0.,-9.60960960961E-02,0.995372061249));
#1146 = PCURVE('',#426,#1147);
#1147 = DEFINITIONAL_REPRESENTATION('',(#1148),#1152);
#1148 = LINE('',#1149,#1150);
#1149 = CARTESIAN_POINT('',(-6.28318530718,0.));
#1150 = VECTOR('',#1151,1.);
#1151 = DIRECTION('',(-0.,-1.));
#1152 = ( GEOMETRIC_REPRESENTATION_CONTEXT(2) 
PARAMETRIC_REPRESENTATION_CONTEXT() REPRESENTATION_CONTEXT('2D SPACE',''
  ) );
#1153 = PCURVE('',#454,#1154);
#1154 = DEFINITIONAL_REPRESENTATION('',(#1155),#1159);
#1155 = LINE('',#1156,#1157);
#1156 = CARTESIAN_POINT('',(-8.881784197001E-16,0.));
#1157 = VECTOR('',#1158,1.);
#1158 = DIRECTION('',(0.,-1.));
#1159 = ( GEOMETRIC_REPRESENTATION_CONTEXT(2) 
PARAMETRIC_REPRESENTATION_CONTEXT() REPRESENTATION_CONTEXT('2D SPACE',''
  ) );
#1160 = ORIENTED_EDGE('',*,*,#1161,.T.);
#1161 = EDGE_CURVE('',#1139,#1090,#1162,.T.);
#1162 = SURFACE_CURVE('',#1163,(#1172,#1184),.PCURVE_S1.);
#1163 = B_SPLINE_CURVE_WITH_KNOTS('',7,(#1164,#1165,#1166,#1167,#1168,
    #1169,#1170,#1171),.UNSPECIFIED.,.F.,.F.,(8,8),(504.19096771173,
    516.74007910532),.PIECEWISE_BEZIER_KNOTS.);
#1164 = CARTESIAN_POINT('',(72.735,141.81286280472,0.4));
#1165 = CARTESIAN_POINT('',(72.735,140.01599311758,0.4));
#1166 = CARTESIAN_POINT('',(72.268037964774,138.22119631926,
    0.39996638187));
#1167 = CARTESIAN_POINT('',(71.337260427695,136.57084775122,
    0.400146542996));
#1168 = CARTESIAN_POINT('',(69.990135504769,135.2038719152,
    0.399096502593));
#1169 = CARTESIAN_POINT('',(68.337048157608,134.25438522933,
    0.398351496342));
#1170 = CARTESIAN_POINT('',(66.537213645764,133.78086912064,0.3981488245
    ));
#1171 = CARTESIAN_POINT('',(64.74,133.78086912064,0.3981488245));
#1172 = PCURVE('',#426,#1173);
#1173 = DEFINITIONAL_REPRESENTATION('',(#1174),#1183);
#1174 = B_SPLINE_CURVE_WITH_KNOTS('',7,(#1175,#1176,#1177,#1178,#1179,
    #1180,#1181,#1182),.UNSPECIFIED.,.F.,.F.,(8,8),(504.19096771173,
    516.74007910532),.PIECEWISE_BEZIER_KNOTS.);
#1175 = CARTESIAN_POINT('',(-6.28318530718,-43.21004340281));
#1176 = CARTESIAN_POINT('',(-6.059476253486,-43.38271556494));
#1177 = CARTESIAN_POINT('',(-5.836033348702,-43.55515488518));
#1178 = CARTESIAN_POINT('',(-5.612232923387,-43.71392620656));
#1179 = CARTESIAN_POINT('',(-5.38753784375,-43.84424325416));
#1180 = CARTESIAN_POINT('',(-5.16231922319,-43.93474207291));
#1181 = CARTESIAN_POINT('',(-4.937181181231,-43.98004403134));
#1182 = CARTESIAN_POINT('',(-4.712388980385,-43.98004403134));
#1183 = ( GEOMETRIC_REPRESENTATION_CONTEXT(2) 
PARAMETRIC_REPRESENTATION_CONTEXT() REPRESENTATION_CONTEXT('2D SPACE',''
  ) );
#1184 = PCURVE('',#938,#1185);
#1185 = DEFINITIONAL_REPRESENTATION('',(#1186),#1190);
#1186 = LINE('',#1187,#1188);
#1187 = CARTESIAN_POINT('',(0.,0.));
#1188 = VECTOR('',#1189,1.);
#1189 = DIRECTION('',(0.,1.));
#1190 = ( GEOMETRIC_REPRESENTATION_CONTEXT(2) 
PARAMETRIC_REPRESENTATION_CONTEXT() REPRESENTATION_CONTEXT('2D SPACE',''
  ) );
#1191 = ORIENTED_EDGE('',*,*,#1089,.T.);
#1192 = ORIENTED_EDGE('',*,*,#409,.T.);
#1193 = ADVANCED_FACE('',(#1194),#483,.T.);
#1194 = FACE_BOUND('',#1195,.F.);
#1195 = EDGE_LOOP('',(#1196,#1197,#1240,#1261));
#1196 = ORIENTED_EDGE('',*,*,#776,.F.);
#1197 = ORIENTED_EDGE('',*,*,#1198,.T.);
#1198 = EDGE_CURVE('',#777,#1199,#1201,.T.);
#1199 = VERTEX_POINT('',#1200);
#1200 = CARTESIAN_POINT('',(72.735,151.85935736085,0.4));
#1201 = SURFACE_CURVE('',#1202,(#1217,#1233),.PCURVE_S1.);
#1202 = B_SPLINE_CURVE_WITH_KNOTS('',7,(#1203,#1204,#1205,#1206,#1207,
    #1208,#1209,#1210,#1211,#1212,#1213,#1214,#1215,#1216),
  .UNSPECIFIED.,.F.,.F.,(8,6,8),(481.51812715467,494.10594471068,
    494.1444730082),.UNSPECIFIED.);
#1203 = CARTESIAN_POINT('',(64.74,159.8917084806,0.3981488245));
#1204 = CARTESIAN_POINT('',(66.525399961714,159.8917084806,
    0.398148824499));
#1205 = CARTESIAN_POINT('',(68.310820168697,159.42431594608,
    0.398362325716));
#1206 = CARTESIAN_POINT('',(69.951538130249,158.48986425625,
    0.398812578163));
#1207 = CARTESIAN_POINT('',(71.302852132148,157.14323335945,
    0.399321611292));
#1208 = CARTESIAN_POINT('',(72.24793778496,155.49849853659,
    0.399800008885));
#1209 = CARTESIAN_POINT('',(72.726282088729,153.70035855699,
    0.399998120929));
#1210 = CARTESIAN_POINT('',(72.734933997872,151.89245782322,
    0.399999995046));
#1211 = CARTESIAN_POINT('',(72.734955998822,151.8869410426,
    0.399999998527));
#1212 = CARTESIAN_POINT('',(72.734973599436,151.88142428549,
    0.399999999903));
#1213 = CARTESIAN_POINT('',(72.734986799678,151.87590756752,
    0.400000000019));
#1214 = CARTESIAN_POINT('',(72.734995599809,151.87039084829,
    0.399999999863));
#1215 = CARTESIAN_POINT('',(72.735,151.86487409746,0.4));
#1216 = CARTESIAN_POINT('',(72.735,151.85935736085,0.4));
#1217 = PCURVE('',#483,#1218);
#1218 = DEFINITIONAL_REPRESENTATION('',(#1219),#1232);
#1219 = B_SPLINE_CURVE_WITH_KNOTS('',11,(#1220,#1221,#1222,#1223,#1224,
    #1225,#1226,#1227,#1228,#1229,#1230,#1231),.UNSPECIFIED.,.F.,.F.,(12
    ,12),(481.51812715467,494.1444730082),.PIECEWISE_BEZIER_KNOTS.);
#1220 = CARTESIAN_POINT('',(-1.570796326795,-41.47089430306));
#1221 = CARTESIAN_POINT('',(-1.42825209453,-41.47089430306));
#1222 = CARTESIAN_POINT('',(-1.285705326835,-41.48823089748));
#1223 = CARTESIAN_POINT('',(-1.143149714902,-41.5228959265));
#1224 = CARTESIAN_POINT('',(-1.000513037143,-41.57433098737));
#1225 = CARTESIAN_POINT('',(-0.857927837394,-41.6412857731));
#1226 = CARTESIAN_POINT('',(-0.715075210999,-41.7221520176));
#1227 = CARTESIAN_POINT('',(-0.572371219525,-41.81454181433));
#1228 = CARTESIAN_POINT('',(-0.429375409689,-41.91599180375));
#1229 = CARTESIAN_POINT('',(-0.286395547746,-42.02348976821));
#1230 = CARTESIAN_POINT('',(-0.143236085953,-42.13405623229));
#1231 = CARTESIAN_POINT('',(-1.362951993041E-16,-42.24461449651));
#1232 = ( GEOMETRIC_REPRESENTATION_CONTEXT(2) 
PARAMETRIC_REPRESENTATION_CONTEXT() REPRESENTATION_CONTEXT('2D SPACE',''
  ) );
#1233 = PCURVE('',#1028,#1234);
#1234 = DEFINITIONAL_REPRESENTATION('',(#1235),#1239);
#1235 = LINE('',#1236,#1237);
#1236 = CARTESIAN_POINT('',(0.,0.));
#1237 = VECTOR('',#1238,1.);
#1238 = DIRECTION('',(0.,1.));
#1239 = ( GEOMETRIC_REPRESENTATION_CONTEXT(2) 
PARAMETRIC_REPRESENTATION_CONTEXT() REPRESENTATION_CONTEXT('2D SPACE',''
  ) );
#1240 = ORIENTED_EDGE('',*,*,#1241,.T.);
#1241 = EDGE_CURVE('',#1199,#439,#1242,.T.);
#1242 = SURFACE_CURVE('',#1243,(#1247,#1254),.PCURVE_S1.);
#1243 = LINE('',#1244,#1245);
#1244 = CARTESIAN_POINT('',(72.735,155.91889989505,-41.64910900806));
#1245 = VECTOR('',#1246,1.);
#1246 = DIRECTION('',(0.,-9.60960960961E-02,0.995372061249));
#1247 = PCURVE('',#483,#1248);
#1248 = DEFINITIONAL_REPRESENTATION('',(#1249),#1253);
#1249 = LINE('',#1250,#1251);
#1250 = CARTESIAN_POINT('',(-0.,0.));
#1251 = VECTOR('',#1252,1.);
#1252 = DIRECTION('',(-0.,-1.));
#1253 = ( GEOMETRIC_REPRESENTATION_CONTEXT(2) 
PARAMETRIC_REPRESENTATION_CONTEXT() REPRESENTATION_CONTEXT('2D SPACE',''
  ) );
#1254 = PCURVE('',#454,#1255);
#1255 = DEFINITIONAL_REPRESENTATION('',(#1256),#1260);
#1256 = LINE('',#1257,#1258);
#1257 = CARTESIAN_POINT('',(9.999999994663,0.));
#1258 = VECTOR('',#1259,1.);
#1259 = DIRECTION('',(0.,-1.));
#1260 = ( GEOMETRIC_REPRESENTATION_CONTEXT(2) 
PARAMETRIC_REPRESENTATION_CONTEXT() REPRESENTATION_CONTEXT('2D SPACE',''
  ) );
#1261 = ORIENTED_EDGE('',*,*,#466,.T.);
#1262 = ADVANCED_FACE('',(#1263),#454,.F.);
#1263 = FACE_BOUND('',#1264,.F.);
#1264 = EDGE_LOOP('',(#1265,#1266,#1287,#1288));
#1265 = ORIENTED_EDGE('',*,*,#1241,.F.);
#1266 = ORIENTED_EDGE('',*,*,#1267,.T.);
#1267 = EDGE_CURVE('',#1199,#1139,#1268,.T.);
#1268 = SURFACE_CURVE('',#1269,(#1273,#1280),.PCURVE_S1.);
#1269 = LINE('',#1270,#1271);
#1270 = CARTESIAN_POINT('',(72.735,151.89797451712,0.4));
#1271 = VECTOR('',#1272,1.);
#1272 = DIRECTION('',(-0.,-1.,0.));
#1273 = PCURVE('',#454,#1274);
#1274 = DEFINITIONAL_REPRESENTATION('',(#1275),#1279);
#1275 = LINE('',#1276,#1277);
#1276 = CARTESIAN_POINT('',(10.038438433101,-42.24090353855));
#1277 = VECTOR('',#1278,1.);
#1278 = DIRECTION('',(-0.995372061249,-9.60960960961E-02));
#1279 = ( GEOMETRIC_REPRESENTATION_CONTEXT(2) 
PARAMETRIC_REPRESENTATION_CONTEXT() REPRESENTATION_CONTEXT('2D SPACE',''
  ) );
#1280 = PCURVE('',#978,#1281);
#1281 = DEFINITIONAL_REPRESENTATION('',(#1282),#1286);
#1282 = LINE('',#1283,#1284);
#1283 = CARTESIAN_POINT('',(0.,-0.282842712475));
#1284 = VECTOR('',#1285,1.);
#1285 = DIRECTION('',(1.,0.));
#1286 = ( GEOMETRIC_REPRESENTATION_CONTEXT(2) 
PARAMETRIC_REPRESENTATION_CONTEXT() REPRESENTATION_CONTEXT('2D SPACE',''
  ) );
#1287 = ORIENTED_EDGE('',*,*,#1138,.T.);
#1288 = ORIENTED_EDGE('',*,*,#438,.T.);
#1289 = ADVANCED_FACE('',(#1290),#536,.T.);
#1290 = FACE_BOUND('',#1291,.T.);
#1291 = EDGE_LOOP('',(#1292,#1321,#1342,#1343));
#1292 = ORIENTED_EDGE('',*,*,#1293,.F.);
#1293 = EDGE_CURVE('',#1294,#1294,#1296,.T.);
#1294 = VERTEX_POINT('',#1295);
#1295 = CARTESIAN_POINT('',(-54.985,139.17057988273,17.414786915307));
#1296 = SURFACE_CURVE('',#1297,(#1302,#1309),.PCURVE_S1.);
#1297 = CIRCLE('',#1298,3.75);
#1298 = AXIS2_PLACEMENT_3D('',#1299,#1300,#1301);
#1299 = CARTESIAN_POINT('',(-58.735,139.17057988273,17.414786915307));
#1300 = DIRECTION('',(0.,-9.60960960961E-02,0.995372061249));
#1301 = DIRECTION('',(1.,0.,0.));
#1302 = PCURVE('',#536,#1303);
#1303 = DEFINITIONAL_REPRESENTATION('',(#1304),#1308);
#1304 = LINE('',#1305,#1306);
#1305 = CARTESIAN_POINT('',(0.,0.4));
#1306 = VECTOR('',#1307,1.);
#1307 = DIRECTION('',(1.,0.));
#1308 = ( GEOMETRIC_REPRESENTATION_CONTEXT(2) 
PARAMETRIC_REPRESENTATION_CONTEXT() REPRESENTATION_CONTEXT('2D SPACE',''
  ) );
#1309 = PCURVE('',#1310,#1315);
#1310 = PLANE('',#1311);
#1311 = AXIS2_PLACEMENT_3D('',#1312,#1313,#1314);
#1312 = CARTESIAN_POINT('',(-58.735,139.17057988273,17.414786915307));
#1313 = DIRECTION('',(0.,-9.60960960961E-02,0.995372061249));
#1314 = DIRECTION('',(1.,0.,0.));
#1315 = DEFINITIONAL_REPRESENTATION('',(#1316),#1320);
#1316 = CIRCLE('',#1317,3.75);
#1317 = AXIS2_PLACEMENT_2D('',#1318,#1319);
#1318 = CARTESIAN_POINT('',(0.,0.));
#1319 = DIRECTION('',(1.,0.));
#1320 = ( GEOMETRIC_REPRESENTATION_CONTEXT(2) 
PARAMETRIC_REPRESENTATION_CONTEXT() REPRESENTATION_CONTEXT('2D SPACE',''
  ) );
#1321 = ORIENTED_EDGE('',*,*,#1322,.F.);
#1322 = EDGE_CURVE('',#520,#1294,#1323,.T.);
#1323 = SEAM_CURVE('',#1324,(#1328,#1335),.PCURVE_S1.);
#1324 = LINE('',#1325,#1326);
#1325 = CARTESIAN_POINT('',(-54.985,139.20901832117,17.016638090807));
#1326 = VECTOR('',#1327,1.);
#1327 = DIRECTION('',(0.,-9.60960960961E-02,0.995372061249));
#1328 = PCURVE('',#536,#1329);
#1329 = DEFINITIONAL_REPRESENTATION('',(#1330),#1334);
#1330 = LINE('',#1331,#1332);
#1331 = CARTESIAN_POINT('',(6.28318530718,-0.));
#1332 = VECTOR('',#1333,1.);
#1333 = DIRECTION('',(0.,1.));
#1334 = ( GEOMETRIC_REPRESENTATION_CONTEXT(2) 
PARAMETRIC_REPRESENTATION_CONTEXT() REPRESENTATION_CONTEXT('2D SPACE',''
  ) );
#1335 = PCURVE('',#536,#1336);
#1336 = DEFINITIONAL_REPRESENTATION('',(#1337),#1341);
#1337 = LINE('',#1338,#1339);
#1338 = CARTESIAN_POINT('',(0.,-0.));
#1339 = VECTOR('',#1340,1.);
#1340 = DIRECTION('',(0.,1.));
#1341 = ( GEOMETRIC_REPRESENTATION_CONTEXT(2) 
PARAMETRIC_REPRESENTATION_CONTEXT() REPRESENTATION_CONTEXT('2D SPACE',''
  ) );
#1342 = ORIENTED_EDGE('',*,*,#519,.T.);
#1343 = ORIENTED_EDGE('',*,*,#1322,.T.);
#1344 = ADVANCED_FACE('',(#1345),#567,.T.);
#1345 = FACE_BOUND('',#1346,.T.);
#1346 = EDGE_LOOP('',(#1347,#1376,#1397,#1398));
#1347 = ORIENTED_EDGE('',*,*,#1348,.F.);
#1348 = EDGE_CURVE('',#1349,#1349,#1351,.T.);
#1349 = VERTEX_POINT('',#1350);
#1350 = CARTESIAN_POINT('',(62.485,139.17057988273,17.414786915307));
#1351 = SURFACE_CURVE('',#1352,(#1357,#1364),.PCURVE_S1.);
#1352 = CIRCLE('',#1353,3.75);
#1353 = AXIS2_PLACEMENT_3D('',#1354,#1355,#1356);
#1354 = CARTESIAN_POINT('',(58.735,139.17057988273,17.414786915307));
#1355 = DIRECTION('',(0.,-9.60960960961E-02,0.995372061249));
#1356 = DIRECTION('',(1.,0.,0.));
#1357 = PCURVE('',#567,#1358);
#1358 = DEFINITIONAL_REPRESENTATION('',(#1359),#1363);
#1359 = LINE('',#1360,#1361);
#1360 = CARTESIAN_POINT('',(0.,0.4));
#1361 = VECTOR('',#1362,1.);
#1362 = DIRECTION('',(1.,0.));
#1363 = ( GEOMETRIC_REPRESENTATION_CONTEXT(2) 
PARAMETRIC_REPRESENTATION_CONTEXT() REPRESENTATION_CONTEXT('2D SPACE',''
  ) );
#1364 = PCURVE('',#1365,#1370);
#1365 = PLANE('',#1366);
#1366 = AXIS2_PLACEMENT_3D('',#1367,#1368,#1369);
#1367 = CARTESIAN_POINT('',(58.735,139.17057988273,17.414786915307));
#1368 = DIRECTION('',(0.,-9.60960960961E-02,0.995372061249));
#1369 = DIRECTION('',(1.,0.,0.));
#1370 = DEFINITIONAL_REPRESENTATION('',(#1371),#1375);
#1371 = CIRCLE('',#1372,3.75);
#1372 = AXIS2_PLACEMENT_2D('',#1373,#1374);
#1373 = CARTESIAN_POINT('',(0.,0.));
#1374 = DIRECTION('',(1.,0.));
#1375 = ( GEOMETRIC_REPRESENTATION_CONTEXT(2) 
PARAMETRIC_REPRESENTATION_CONTEXT() REPRESENTATION_CONTEXT('2D SPACE',''
  ) );
#1376 = ORIENTED_EDGE('',*,*,#1377,.F.);
#1377 = EDGE_CURVE('',#551,#1349,#1378,.T.);
#1378 = SEAM_CURVE('',#1379,(#1383,#1390),.PCURVE_S1.);
#1379 = LINE('',#1380,#1381);
#1380 = CARTESIAN_POINT('',(62.485,139.20901832117,17.016638090807));
#1381 = VECTOR('',#1382,1.);
#1382 = DIRECTION('',(0.,-9.60960960961E-02,0.995372061249));
#1383 = PCURVE('',#567,#1384);
#1384 = DEFINITIONAL_REPRESENTATION('',(#1385),#1389);
#1385 = LINE('',#1386,#1387);
#1386 = CARTESIAN_POINT('',(6.28318530718,-0.));
#1387 = VECTOR('',#1388,1.);
#1388 = DIRECTION('',(0.,1.));
#1389 = ( GEOMETRIC_REPRESENTATION_CONTEXT(2) 
PARAMETRIC_REPRESENTATION_CONTEXT() REPRESENTATION_CONTEXT('2D SPACE',''
  ) );
#1390 = PCURVE('',#567,#1391);
#1391 = DEFINITIONAL_REPRESENTATION('',(#1392),#1396);
#1392 = LINE('',#1393,#1394);
#1393 = CARTESIAN_POINT('',(0.,-0.));
#1394 = VECTOR('',#1395,1.);
#1395 = DIRECTION('',(0.,1.));
#1396 = ( GEOMETRIC_REPRESENTATION_CONTEXT(2) 
PARAMETRIC_REPRESENTATION_CONTEXT() REPRESENTATION_CONTEXT('2D SPACE',''
  ) );
#1397 = ORIENTED_EDGE('',*,*,#550,.T.);
#1398 = ORIENTED_EDGE('',*,*,#1377,.T.);
#1399 = ADVANCED_FACE('',(#1400),#598,.T.);
#1400 = FACE_BOUND('',#1401,.T.);
#1401 = EDGE_LOOP('',(#1402,#1431,#1452,#1453));
#1402 = ORIENTED_EDGE('',*,*,#1403,.F.);
#1403 = EDGE_CURVE('',#1404,#1404,#1406,.T.);
#1404 = VERTEX_POINT('',#1405);
#1405 = CARTESIAN_POINT('',(-54.985,151.1050908971,18.566979107499));
#1406 = SURFACE_CURVE('',#1407,(#1412,#1419),.PCURVE_S1.);
#1407 = CIRCLE('',#1408,3.75);
#1408 = AXIS2_PLACEMENT_3D('',#1409,#1410,#1411);
#1409 = CARTESIAN_POINT('',(-58.735,151.1050908971,18.566979107499));
#1410 = DIRECTION('',(0.,-9.60960960961E-02,0.995372061249));
#1411 = DIRECTION('',(1.,0.,0.));
#1412 = PCURVE('',#598,#1413);
#1413 = DEFINITIONAL_REPRESENTATION('',(#1414),#1418);
#1414 = LINE('',#1415,#1416);
#1415 = CARTESIAN_POINT('',(0.,0.4));
#1416 = VECTOR('',#1417,1.);
#1417 = DIRECTION('',(1.,0.));
#1418 = ( GEOMETRIC_REPRESENTATION_CONTEXT(2) 
PARAMETRIC_REPRESENTATION_CONTEXT() REPRESENTATION_CONTEXT('2D SPACE',''
  ) );
#1419 = PCURVE('',#1420,#1425);
#1420 = PLANE('',#1421);
#1421 = AXIS2_PLACEMENT_3D('',#1422,#1423,#1424);
#1422 = CARTESIAN_POINT('',(-58.735,151.1050908971,18.566979107499));
#1423 = DIRECTION('',(0.,-9.60960960961E-02,0.995372061249));
#1424 = DIRECTION('',(1.,0.,0.));
#1425 = DEFINITIONAL_REPRESENTATION('',(#1426),#1430);
#1426 = CIRCLE('',#1427,3.75);
#1427 = AXIS2_PLACEMENT_2D('',#1428,#1429);
#1428 = CARTESIAN_POINT('',(0.,0.));
#1429 = DIRECTION('',(1.,0.));
#1430 = ( GEOMETRIC_REPRESENTATION_CONTEXT(2) 
PARAMETRIC_REPRESENTATION_CONTEXT() REPRESENTATION_CONTEXT('2D SPACE',''
  ) );
#1431 = ORIENTED_EDGE('',*,*,#1432,.F.);
#1432 = EDGE_CURVE('',#582,#1404,#1433,.T.);
#1433 = SEAM_CURVE('',#1434,(#1438,#1445),.PCURVE_S1.);
#1434 = LINE('',#1435,#1436);
#1435 = CARTESIAN_POINT('',(-54.985,151.14352933554,18.168830282999));
#1436 = VECTOR('',#1437,1.);
#1437 = DIRECTION('',(0.,-9.60960960961E-02,0.995372061249));
#1438 = PCURVE('',#598,#1439);
#1439 = DEFINITIONAL_REPRESENTATION('',(#1440),#1444);
#1440 = LINE('',#1441,#1442);
#1441 = CARTESIAN_POINT('',(6.28318530718,-0.));
#1442 = VECTOR('',#1443,1.);
#1443 = DIRECTION('',(0.,1.));
#1444 = ( GEOMETRIC_REPRESENTATION_CONTEXT(2) 
PARAMETRIC_REPRESENTATION_CONTEXT() REPRESENTATION_CONTEXT('2D SPACE',''
  ) );
#1445 = PCURVE('',#598,#1446);
#1446 = DEFINITIONAL_REPRESENTATION('',(#1447),#1451);
#1447 = LINE('',#1448,#1449);
#1448 = CARTESIAN_POINT('',(0.,-0.));
#1449 = VECTOR('',#1450,1.);
#1450 = DIRECTION('',(0.,1.));
#1451 = ( GEOMETRIC_REPRESENTATION_CONTEXT(2) 
PARAMETRIC_REPRESENTATION_CONTEXT() REPRESENTATION_CONTEXT('2D SPACE',''
  ) );
#1452 = ORIENTED_EDGE('',*,*,#581,.T.);
#1453 = ORIENTED_EDGE('',*,*,#1432,.T.);
#1454 = ADVANCED_FACE('',(#1455),#629,.T.);
#1455 = FACE_BOUND('',#1456,.T.);
#1456 = EDGE_LOOP('',(#1457,#1486,#1507,#1508));
#1457 = ORIENTED_EDGE('',*,*,#1458,.F.);
#1458 = EDGE_CURVE('',#1459,#1459,#1461,.T.);
#1459 = VERTEX_POINT('',#1460);
#1460 = CARTESIAN_POINT('',(62.485,151.1050908971,18.566979107499));
#1461 = SURFACE_CURVE('',#1462,(#1467,#1474),.PCURVE_S1.);
#1462 = CIRCLE('',#1463,3.75);
#1463 = AXIS2_PLACEMENT_3D('',#1464,#1465,#1466);
#1464 = CARTESIAN_POINT('',(58.735,151.1050908971,18.566979107499));
#1465 = DIRECTION('',(0.,-9.60960960961E-02,0.995372061249));
#1466 = DIRECTION('',(1.,0.,0.));
#1467 = PCURVE('',#629,#1468);
#1468 = DEFINITIONAL_REPRESENTATION('',(#1469),#1473);
#1469 = LINE('',#1470,#1471);
#1470 = CARTESIAN_POINT('',(0.,0.4));
#1471 = VECTOR('',#1472,1.);
#1472 = DIRECTION('',(1.,0.));
#1473 = ( GEOMETRIC_REPRESENTATION_CONTEXT(2) 
PARAMETRIC_REPRESENTATION_CONTEXT() REPRESENTATION_CONTEXT('2D SPACE',''
  ) );
#1474 = PCURVE('',#1475,#1480);
#1475 = PLANE('',#1476);
#1476 = AXIS2_PLACEMENT_3D('',#1477,#1478,#1479);
#1477 = CARTESIAN_POINT('',(58.735,151.1050908971,18.566979107499));
#1478 = DIRECTION('',(0.,-9.60960960961E-02,0.995372061249));
#1479 = DIRECTION('',(1.,0.,0.));
#1480 = DEFINITIONAL_REPRESENTATION('',(#1481),#1485);
#1481 = CIRCLE('',#1482,3.75);
#1482 = AXIS2_PLACEMENT_2D('',#1483,#1484);
#1483 = CARTESIAN_POINT('',(0.,0.));
#1484 = DIRECTION('',(1.,0.));
#1485 = ( GEOMETRIC_REPRESENTATION_CONTEXT(2) 
PARAMETRIC_REPRESENTATION_CONTEXT() REPRESENTATION_CONTEXT('2D SPACE',''
  ) );
#1486 = ORIENTED_EDGE('',*,*,#1487,.F.);
#1487 = EDGE_CURVE('',#613,#1459,#1488,.T.);
#1488 = SEAM_CURVE('',#1489,(#1493,#1500),.PCURVE_S1.);
#1489 = LINE('',#1490,#1491);
#1490 = CARTESIAN_POINT('',(62.485,151.14352933554,18.168830282999));
#1491 = VECTOR('',#1492,1.);
#1492 = DIRECTION('',(0.,-9.60960960961E-02,0.995372061249));
#1493 = PCURVE('',#629,#1494);
#1494 = DEFINITIONAL_REPRESENTATION('',(#1495),#1499);
#1495 = LINE('',#1496,#1497);
#1496 = CARTESIAN_POINT('',(6.28318530718,-0.));
#1497 = VECTOR('',#1498,1.);
#1498 = DIRECTION('',(0.,1.));
#1499 = ( GEOMETRIC_REPRESENTATION_CONTEXT(2) 
PARAMETRIC_REPRESENTATION_CONTEXT() REPRESENTATION_CONTEXT('2D SPACE',''
  ) );
#1500 = PCURVE('',#629,#1501);
#1501 = DEFINITIONAL_REPRESENTATION('',(#1502),#1506);
#1502 = LINE('',#1503,#1504);
#1503 = CARTESIAN_POINT('',(0.,-0.));
#1504 = VECTOR('',#1505,1.);
#1505 = DIRECTION('',(0.,1.));
#1506 = ( GEOMETRIC_REPRESENTATION_CONTEXT(2) 
PARAMETRIC_REPRESENTATION_CONTEXT() REPRESENTATION_CONTEXT('2D SPACE',''
  ) );
#1507 = ORIENTED_EDGE('',*,*,#612,.T.);
#1508 = ORIENTED_EDGE('',*,*,#1487,.T.);
#1509 = ADVANCED_FACE('',(#1510),#761,.F.);
#1510 = FACE_BOUND('',#1511,.T.);
#1511 = EDGE_LOOP('',(#1512,#1513,#1514,#1533));
#1512 = ORIENTED_EDGE('',*,*,#749,.F.);
#1513 = ORIENTED_EDGE('',*,*,#799,.T.);
#1514 = ORIENTED_EDGE('',*,*,#1515,.T.);
#1515 = EDGE_CURVE('',#777,#991,#1516,.T.);
#1516 = SURFACE_CURVE('',#1517,(#1521,#1527),.PCURVE_S1.);
#1517 = LINE('',#1518,#1519);
#1518 = CARTESIAN_POINT('',(64.74,159.71092770518,0.19907441225));
#1519 = VECTOR('',#1520,1.);
#1520 = DIRECTION('',(-1.403009696693E-34,-0.672273718029,
    -0.740302673268));
#1521 = PCURVE('',#761,#1522);
#1522 = DEFINITIONAL_REPRESENTATION('',(#1523),#1526);
#1523 = B_SPLINE_CURVE_WITH_KNOTS('',1,(#1524,#1525),.UNSPECIFIED.,.F.,
  .F.,(2,2),(-0.268909487211,0.268909487211),.PIECEWISE_BEZIER_KNOTS.);
#1524 = CARTESIAN_POINT('',(-129.48,-0.268909487211));
#1525 = CARTESIAN_POINT('',(-129.48,0.268909487211));
#1526 = ( GEOMETRIC_REPRESENTATION_CONTEXT(2) 
PARAMETRIC_REPRESENTATION_CONTEXT() REPRESENTATION_CONTEXT('2D SPACE',''
  ) );
#1527 = PCURVE('',#1028,#1528);
#1528 = DEFINITIONAL_REPRESENTATION('',(#1529),#1532);
#1529 = B_SPLINE_CURVE_WITH_KNOTS('',1,(#1530,#1531),.UNSPECIFIED.,.F.,
  .F.,(2,2),(-0.268909487211,0.268909487211),.PIECEWISE_BEZIER_KNOTS.);
#1530 = CARTESIAN_POINT('',(0.,481.51812715467));
#1531 = CARTESIAN_POINT('',(12.62634585353,481.51812715467));
#1532 = ( GEOMETRIC_REPRESENTATION_CONTEXT(2) 
PARAMETRIC_REPRESENTATION_CONTEXT() REPRESENTATION_CONTEXT('2D SPACE',''
  ) );
#1533 = ORIENTED_EDGE('',*,*,#1064,.F.);
#1534 = ADVANCED_FACE('',(#1535),#840,.T.);
#1535 = FACE_BOUND('',#1536,.T.);
#1536 = EDGE_LOOP('',(#1537,#1555,#1556,#1557));
#1537 = ORIENTED_EDGE('',*,*,#1538,.F.);
#1538 = EDGE_CURVE('',#1090,#890,#1539,.T.);
#1539 = SURFACE_CURVE('',#1540,(#1543,#1549),.PCURVE_S1.);
#1540 = B_SPLINE_CURVE_WITH_KNOTS('',1,(#1541,#1542),.UNSPECIFIED.,.F.,
  .F.,(2,2),(0.,12.549111393584),.PIECEWISE_BEZIER_KNOTS.);
#1541 = CARTESIAN_POINT('',(64.74,133.78086912064,0.3981488245));
#1542 = CARTESIAN_POINT('',(64.74,134.21930755908,0.));
#1543 = PCURVE('',#840,#1544);
#1544 = DEFINITIONAL_REPRESENTATION('',(#1545),#1548);
#1545 = B_SPLINE_CURVE_WITH_KNOTS('',1,(#1546,#1547),.UNSPECIFIED.,.F.,
  .F.,(2,2),(0.,12.549111393584),.PIECEWISE_BEZIER_KNOTS.);
#1546 = CARTESIAN_POINT('',(0.,-0.296121069307));
#1547 = CARTESIAN_POINT('',(0.,0.296121069307));
#1548 = ( GEOMETRIC_REPRESENTATION_CONTEXT(2) 
PARAMETRIC_REPRESENTATION_CONTEXT() REPRESENTATION_CONTEXT('2D SPACE',''
  ) );
#1549 = PCURVE('',#938,#1550);
#1550 = DEFINITIONAL_REPRESENTATION('',(#1551),#1554);
#1551 = B_SPLINE_CURVE_WITH_KNOTS('',1,(#1552,#1553),.UNSPECIFIED.,.F.,
  .F.,(2,2),(0.,12.549111393584),.PIECEWISE_BEZIER_KNOTS.);
#1552 = CARTESIAN_POINT('',(0.,516.74007910532));
#1553 = CARTESIAN_POINT('',(12.549111393584,516.74007910532));
#1554 = ( GEOMETRIC_REPRESENTATION_CONTEXT(2) 
PARAMETRIC_REPRESENTATION_CONTEXT() REPRESENTATION_CONTEXT('2D SPACE',''
  ) );
#1555 = ORIENTED_EDGE('',*,*,#1112,.T.);
#1556 = ORIENTED_EDGE('',*,*,#825,.T.);
#1557 = ORIENTED_EDGE('',*,*,#889,.F.);
#1558 = ADVANCED_FACE('',(#1559),#938,.F.);
#1559 = FACE_BOUND('',#1560,.F.);
#1560 = EDGE_LOOP('',(#1561,#1580,#1581,#1582));
#1561 = ORIENTED_EDGE('',*,*,#1562,.T.);
#1562 = EDGE_CURVE('',#1139,#913,#1563,.T.);
#1563 = SURFACE_CURVE('',#1564,(#1568,#1574),.PCURVE_S1.);
#1564 = LINE('',#1565,#1566);
#1565 = CARTESIAN_POINT('',(72.535,141.81286280472,0.2));
#1566 = VECTOR('',#1567,1.);
#1567 = DIRECTION('',(-0.707106781187,3.639437963742E-35,-0.707106781187
    ));
#1568 = PCURVE('',#938,#1569);
#1569 = DEFINITIONAL_REPRESENTATION('',(#1570),#1573);
#1570 = B_SPLINE_CURVE_WITH_KNOTS('',1,(#1571,#1572),.UNSPECIFIED.,.F.,
  .F.,(2,2),(-0.282842712475,0.282842712475),.PIECEWISE_BEZIER_KNOTS.);
#1571 = CARTESIAN_POINT('',(-1.048050535246E-13,504.19096771173));
#1572 = CARTESIAN_POINT('',(12.549111393584,504.19096771173));
#1573 = ( GEOMETRIC_REPRESENTATION_CONTEXT(2) 
PARAMETRIC_REPRESENTATION_CONTEXT() REPRESENTATION_CONTEXT('2D SPACE',''
  ) );
#1574 = PCURVE('',#978,#1575);
#1575 = DEFINITIONAL_REPRESENTATION('',(#1576),#1579);
#1576 = B_SPLINE_CURVE_WITH_KNOTS('',1,(#1577,#1578),.UNSPECIFIED.,.F.,
  .F.,(2,2),(-0.282842712475,0.282842712475),.PIECEWISE_BEZIER_KNOTS.);
#1577 = CARTESIAN_POINT('',(10.085111712403,-0.282842712475));
#1578 = CARTESIAN_POINT('',(10.085111712403,0.282842712475));
#1579 = ( GEOMETRIC_REPRESENTATION_CONTEXT(2) 
PARAMETRIC_REPRESENTATION_CONTEXT() REPRESENTATION_CONTEXT('2D SPACE',''
  ) );
#1580 = ORIENTED_EDGE('',*,*,#912,.T.);
#1581 = ORIENTED_EDGE('',*,*,#1538,.F.);
#1582 = ORIENTED_EDGE('',*,*,#1161,.F.);
#1583 = ADVANCED_FACE('',(#1584),#1028,.F.);
#1584 = FACE_BOUND('',#1585,.F.);
#1585 = EDGE_LOOP('',(#1586,#1587,#1588,#1606));
#1586 = ORIENTED_EDGE('',*,*,#1515,.T.);
#1587 = ORIENTED_EDGE('',*,*,#990,.T.);
#1588 = ORIENTED_EDGE('',*,*,#1589,.F.);
#1589 = EDGE_CURVE('',#1199,#963,#1590,.T.);
#1590 = SURFACE_CURVE('',#1591,(#1594,#1600),.PCURVE_S1.);
#1591 = B_SPLINE_CURVE_WITH_KNOTS('',1,(#1592,#1593),.UNSPECIFIED.,.F.,
  .F.,(2,2),(0.,12.62634585353),.PIECEWISE_BEZIER_KNOTS.);
#1592 = CARTESIAN_POINT('',(72.735,151.85935736085,0.4));
#1593 = CARTESIAN_POINT('',(72.335,151.85935736085,0.));
#1594 = PCURVE('',#1028,#1595);
#1595 = DEFINITIONAL_REPRESENTATION('',(#1596),#1599);
#1596 = B_SPLINE_CURVE_WITH_KNOTS('',1,(#1597,#1598),.UNSPECIFIED.,.F.,
  .F.,(2,2),(0.,12.62634585353),.PIECEWISE_BEZIER_KNOTS.);
#1597 = CARTESIAN_POINT('',(0.,494.1444730082));
#1598 = CARTESIAN_POINT('',(12.62634585353,494.1444730082));
#1599 = ( GEOMETRIC_REPRESENTATION_CONTEXT(2) 
PARAMETRIC_REPRESENTATION_CONTEXT() REPRESENTATION_CONTEXT('2D SPACE',''
  ) );
#1600 = PCURVE('',#978,#1601);
#1601 = DEFINITIONAL_REPRESENTATION('',(#1602),#1605);
#1602 = B_SPLINE_CURVE_WITH_KNOTS('',1,(#1603,#1604),.UNSPECIFIED.,.F.,
  .F.,(2,2),(0.,12.62634585353),.PIECEWISE_BEZIER_KNOTS.);
#1603 = CARTESIAN_POINT('',(3.861715627243E-02,-0.282842712475));
#1604 = CARTESIAN_POINT('',(3.861715627243E-02,0.282842712475));
#1605 = ( GEOMETRIC_REPRESENTATION_CONTEXT(2) 
PARAMETRIC_REPRESENTATION_CONTEXT() REPRESENTATION_CONTEXT('2D SPACE',''
  ) );
#1606 = ORIENTED_EDGE('',*,*,#1198,.F.);
#1607 = ADVANCED_FACE('',(#1608),#978,.T.);
#1608 = FACE_BOUND('',#1609,.T.);
#1609 = EDGE_LOOP('',(#1610,#1611,#1612,#1613));
#1610 = ORIENTED_EDGE('',*,*,#1589,.F.);
#1611 = ORIENTED_EDGE('',*,*,#1267,.T.);
#1612 = ORIENTED_EDGE('',*,*,#1562,.T.);
#1613 = ORIENTED_EDGE('',*,*,#962,.F.);
#1614 = ADVANCED_FACE('',(#1615),#1310,.T.);
#1615 = FACE_BOUND('',#1616,.T.);
#1616 = EDGE_LOOP('',(#1617));
#1617 = ORIENTED_EDGE('',*,*,#1293,.T.);
#1618 = ADVANCED_FACE('',(#1619),#1365,.T.);
#1619 = FACE_BOUND('',#1620,.T.);
#1620 = EDGE_LOOP('',(#1621));
#1621 = ORIENTED_EDGE('',*,*,#1348,.T.);
#1622 = ADVANCED_FACE('',(#1623),#1420,.T.);
#1623 = FACE_BOUND('',#1624,.T.);
#1624 = EDGE_LOOP('',(#1625));
#1625 = ORIENTED_EDGE('',*,*,#1403,.T.);
#1626 = ADVANCED_FACE('',(#1627),#1475,.T.);
#1627 = FACE_BOUND('',#1628,.T.);
#1628 = EDGE_LOOP('',(#1629));
#1629 = ORIENTED_EDGE('',*,*,#1458,.T.);
#1630 = ( GEOMETRIC_REPRESENTATION_CONTEXT(3) 
GLOBAL_UNCERTAINTY_ASSIGNED_CONTEXT((#1634)) 
GLOBAL_UNIT_ASSIGNED_CONTEXT((#1631,#1632,#1633)) REPRESENTATION_CONTEXT
('Context #1','3D Context with UNIT and UNCERTAINTY') );
#1631 = ( LENGTH_UNIT() NAMED_UNIT(*) SI_UNIT(.MILLI.,.METRE.) );
#1632 = ( NAMED_UNIT(*) PLANE_ANGLE_UNIT() SI_UNIT($,.RADIAN.) );
#1633 = ( NAMED_UNIT(*) SI_UNIT($,.STERADIAN.) SOLID_ANGLE_UNIT() );
#1634 = UNCERTAINTY_MEASURE_WITH_UNIT(LENGTH_MEASURE(2.E-05),#1631,
  'distance_accuracy_value','confusion accuracy');
#1635 = PRODUCT_RELATED_PRODUCT_CATEGORY('part',$,(#7));
ENDSEC;
END-ISO-10303-21;
