ISO-10303-21;
HEADER;
FILE_DESCRIPTION(('Open CASCADE Model'),'2;1');
FILE_NAME('Open CASCADE Shape Model','1970-01-01T00:00:00',('Author'),(
    'Open CASCADE'),'Open CASCADE STEP processor 7.9','build123d',
  'Unknown');
FILE_SCHEMA(('AUTOMOTIVE_DESIGN { 1 0 10303 214 1 1 1 1 }'));
ENDSEC;
DATA;
#1 = APPLICATION_PROTOCOL_DEFINITION('international standard',
  'automotive_design',2000,#2);
#2 = APPLICATION_CONTEXT(
  'core data for automotive mechanical design processes');
#3 = SHAPE_DEFINITION_REPRESENTATION(#4,#10);
#4 = PRODUCT_DEFINITION_SHAPE('','',#5);
#5 = PRODUCT_DEFINITION('design','',#6,#9);
#6 = PRODUCT_DEFINITION_FORMATION('','',#7);
#7 = PRODUCT('COMPOUND','COMPOUND','',(#8));
#8 = PRODUCT_CONTEXT('',#2,'mechanical');
#9 = PRODUCT_DEFINITION_CONTEXT('part definition',#2,'design');
#10 = ADVANCED_BREP_SHAPE_REPRESENTATION('',(#11,#15),#1171);
#11 = AXIS2_PLACEMENT_3D('',#12,#13,#14);
#12 = CARTESIAN_POINT('',(0.,0.,0.));
#13 = DIRECTION('',(0.,0.,1.));
#14 = DIRECTION('',(1.,0.,-0.));
#15 = MANIFOLD_SOLID_BREP('',#16);
#16 = CLOSED_SHELL('',(#17,#135,#261,#363,#529,#605,#678,#727,#776,#900,
    #949,#996,#1051,#1106,#1131,#1156,#1163,#1167));
#17 = ADVANCED_FACE('',(#18),#32,.T.);
#18 = FACE_BOUND('',#19,.T.);
#19 = EDGE_LOOP('',(#20,#55,#83,#109));
#20 = ORIENTED_EDGE('',*,*,#21,.F.);
#21 = EDGE_CURVE('',#22,#24,#26,.T.);
#22 = VERTEX_POINT('',#23);
#23 = CARTESIAN_POINT('',(-72.735,141.81286279936,0.4));
#24 = VERTEX_POINT('',#25);
#25 = CARTESIAN_POINT('',(-72.735,139.28650060388,26.568288287775));
#26 = SURFACE_CURVE('',#27,(#31,#43),.PCURVE_S1.);
#27 = LINE('',#28,#29);
#28 = CARTESIAN_POINT('',(-72.735,145.05226636965,-33.15403538716));
#29 = VECTOR('',#30,1.);
#30 = DIRECTION('',(0.,-9.60960960961E-02,0.995372061249));
#31 = PCURVE('',#32,#37);
#32 = PLANE('',#33);
#33 = AXIS2_PLACEMENT_3D('',#34,#35,#36);
#34 = CARTESIAN_POINT('',(-72.735,135.09854576247,-34.11499634761));
#35 = DIRECTION('',(-1.,0.,0.));
#36 = DIRECTION('',(0.,0.995372061249,9.60960960961E-02));
#37 = DEFINITIONAL_REPRESENTATION('',(#38),#42);
#38 = LINE('',#39,#40);
#39 = CARTESIAN_POINT('',(9.999999994663,0.));
#40 = VECTOR('',#41,1.);
#41 = DIRECTION('',(0.,-1.));
#42 = ( GEOMETRIC_REPRESENTATION_CONTEXT(2) 
PARAMETRIC_REPRESENTATION_CONTEXT() REPRESENTATION_CONTEXT('2D SPACE',''
  ) );
#43 = PCURVE('',#44,#49);
#44 = CYLINDRICAL_SURFACE('',#45,7.995);
#45 = AXIS2_PLACEMENT_3D('',#46,#47,#48);
#46 = CARTESIAN_POINT('',(-64.74,145.05226636965,-33.15403538716));
#47 = DIRECTION('',(0.,9.60960960961E-02,-0.995372061249));
#48 = DIRECTION('',(1.,0.,0.));
#49 = DEFINITIONAL_REPRESENTATION('',(#50),#54);
#50 = LINE('',#51,#52);
#51 = CARTESIAN_POINT('',(-3.14159265359,0.));
#52 = VECTOR('',#53,1.);
#53 = DIRECTION('',(-0.,-1.));
#54 = ( GEOMETRIC_REPRESENTATION_CONTEXT(2) 
PARAMETRIC_REPRESENTATION_CONTEXT() REPRESENTATION_CONTEXT('2D SPACE',''
  ) );
#55 = ORIENTED_EDGE('',*,*,#56,.F.);
#56 = EDGE_CURVE('',#57,#22,#59,.T.);
#57 = VERTEX_POINT('',#58);
#58 = CARTESIAN_POINT('',(-72.735,133.78069040281,0.4));
#59 = SURFACE_CURVE('',#60,(#64,#71),.PCURVE_S1.);
#60 = LINE('',#61,#62);
#61 = CARTESIAN_POINT('',(-72.735,133.81930755908,0.4));
#62 = VECTOR('',#63,1.);
#63 = DIRECTION('',(0.,1.,-0.));
#64 = PCURVE('',#32,#65);
#65 = DEFINITIONAL_REPRESENTATION('',(#66),#70);
#66 = LINE('',#67,#68);
#67 = CARTESIAN_POINT('',(2.043438438438,-34.47819285584));
#68 = VECTOR('',#69,1.);
#69 = DIRECTION('',(0.995372061249,9.60960960961E-02));
#70 = ( GEOMETRIC_REPRESENTATION_CONTEXT(2) 
PARAMETRIC_REPRESENTATION_CONTEXT() REPRESENTATION_CONTEXT('2D SPACE',''
  ) );
#71 = PCURVE('',#72,#77);
#72 = PLANE('',#73);
#73 = AXIS2_PLACEMENT_3D('',#74,#75,#76);
#74 = CARTESIAN_POINT('',(-72.535,133.81930755908,0.2));
#75 = DIRECTION('',(0.707106781187,-2.795980032047E-18,0.707106781187));
#76 = DIRECTION('',(-1.977056440722E-18,-1.,-1.977056440722E-18));
#77 = DEFINITIONAL_REPRESENTATION('',(#78),#82);
#78 = LINE('',#79,#80);
#79 = CARTESIAN_POINT('',(-0.,-0.282842712475));
#80 = VECTOR('',#81,1.);
#81 = DIRECTION('',(-1.,0.));
#82 = ( GEOMETRIC_REPRESENTATION_CONTEXT(2) 
PARAMETRIC_REPRESENTATION_CONTEXT() REPRESENTATION_CONTEXT('2D SPACE',''
  ) );
#83 = ORIENTED_EDGE('',*,*,#84,.F.);
#84 = EDGE_CURVE('',#85,#57,#87,.T.);
#85 = VERTEX_POINT('',#86);
#86 = CARTESIAN_POINT('',(-72.735,131.32850097951,25.8));
#87 = SURFACE_CURVE('',#88,(#92,#98),.PCURVE_S1.);
#88 = LINE('',#89,#90);
#89 = CARTESIAN_POINT('',(-72.735,137.1182907693,-34.17116669025));
#90 = VECTOR('',#91,1.);
#91 = DIRECTION('',(0.,9.60960960961E-02,-0.995372061249));
#92 = PCURVE('',#32,#93);
#93 = DEFINITIONAL_REPRESENTATION('',(#94),#97);
#94 = B_SPLINE_CURVE_WITH_KNOTS('',1,(#95,#96),.UNSPECIFIED.,.F.,.F.,(2,
    2),(-60.25,-0.25),.PIECEWISE_BEZIER_KNOTS.);
#95 = CARTESIAN_POINT('',(2.005,-60.));
#96 = CARTESIAN_POINT('',(2.005,0.));
#97 = ( GEOMETRIC_REPRESENTATION_CONTEXT(2) 
PARAMETRIC_REPRESENTATION_CONTEXT() REPRESENTATION_CONTEXT('2D SPACE',''
  ) );
#98 = PCURVE('',#99,#104);
#99 = PLANE('',#100);
#100 = AXIS2_PLACEMENT_3D('',#101,#102,#103);
#101 = CARTESIAN_POINT('',(-200.,137.14231479332,-34.42000970556));
#102 = DIRECTION('',(0.,0.995372061249,9.60960960961E-02));
#103 = DIRECTION('',(0.,-9.60960960961E-02,0.995372061249));
#104 = DEFINITIONAL_REPRESENTATION('',(#105),#108);
#105 = B_SPLINE_CURVE_WITH_KNOTS('',1,(#106,#107),.UNSPECIFIED.,.F.,.F.,
  (2,2),(-60.25,-0.25),.PIECEWISE_BEZIER_KNOTS.);
#106 = CARTESIAN_POINT('',(60.5,127.265));
#107 = CARTESIAN_POINT('',(0.5,127.265));
#108 = ( GEOMETRIC_REPRESENTATION_CONTEXT(2) 
PARAMETRIC_REPRESENTATION_CONTEXT() REPRESENTATION_CONTEXT('2D SPACE',''
  ) );
#109 = ORIENTED_EDGE('',*,*,#110,.T.);
#110 = EDGE_CURVE('',#85,#24,#111,.T.);
#111 = SURFACE_CURVE('',#112,(#116,#123),.PCURVE_S1.);
#112 = LINE('',#113,#114);
#113 = CARTESIAN_POINT('',(-72.735,134.30964030295,26.087807807808));
#114 = VECTOR('',#115,1.);
#115 = DIRECTION('',(0.,0.995372061249,9.60960960961E-02));
#116 = PCURVE('',#32,#117);
#117 = DEFINITIONAL_REPRESENTATION('',(#118),#122);
#118 = LINE('',#119,#120);
#119 = CARTESIAN_POINT('',(5.,-60.));
#120 = VECTOR('',#121,1.);
#121 = DIRECTION('',(1.,0.));
#122 = ( GEOMETRIC_REPRESENTATION_CONTEXT(2) 
PARAMETRIC_REPRESENTATION_CONTEXT() REPRESENTATION_CONTEXT('2D SPACE',''
  ) );
#123 = PCURVE('',#124,#129);
#124 = PLANE('',#125);
#125 = AXIS2_PLACEMENT_3D('',#126,#127,#128);
#126 = CARTESIAN_POINT('',(3.891937095963E-15,134.30964030239,
    26.087807807753));
#127 = DIRECTION('',(0.,-9.60960960961E-02,0.995372061249));
#128 = DIRECTION('',(1.,0.,0.));
#129 = DEFINITIONAL_REPRESENTATION('',(#130),#134);
#130 = LINE('',#131,#132);
#131 = CARTESIAN_POINT('',(-72.735,5.657052300126E-10));
#132 = VECTOR('',#133,1.);
#133 = DIRECTION('',(0.,1.));
#134 = ( GEOMETRIC_REPRESENTATION_CONTEXT(2) 
PARAMETRIC_REPRESENTATION_CONTEXT() REPRESENTATION_CONTEXT('2D SPACE',''
  ) );
#135 = ADVANCED_FACE('',(#136),#44,.T.);
#136 = FACE_BOUND('',#137,.F.);
#137 = EDGE_LOOP('',(#138,#139,#211,#239));
#138 = ORIENTED_EDGE('',*,*,#21,.F.);
#139 = ORIENTED_EDGE('',*,*,#140,.T.);
#140 = EDGE_CURVE('',#22,#141,#143,.T.);
#141 = VERTEX_POINT('',#142);
#142 = CARTESIAN_POINT('',(-64.74,149.84521391911,0.3981488245));
#143 = SURFACE_CURVE('',#144,(#159,#175),.PCURVE_S1.);
#144 = B_SPLINE_CURVE_WITH_KNOTS('',7,(#145,#146,#147,#148,#149,#150,
    #151,#152,#153,#154,#155,#156,#157,#158),.UNSPECIFIED.,.F.,.F.,(8,6,
    8),(7.993555240279,8.0320835378,20.619901093557),.UNSPECIFIED.);
#145 = CARTESIAN_POINT('',(-72.735,141.81286279936,0.4));
#146 = CARTESIAN_POINT('',(-72.735,141.81837953597,0.4));
#147 = CARTESIAN_POINT('',(-72.7349955998,141.8238962868,0.399999999863)
  );
#148 = CARTESIAN_POINT('',(-72.73498679968,141.82941300603,
    0.400000000019));
#149 = CARTESIAN_POINT('',(-72.73497359943,141.83492972399,
    0.399999999903));
#150 = CARTESIAN_POINT('',(-72.73495599882,141.84044648111,
    0.399999998527));
#151 = CARTESIAN_POINT('',(-72.73493399787,141.84596326172,
    0.399999995046));
#152 = CARTESIAN_POINT('',(-72.72628208873,143.65386399548,
    0.399998120928));
#153 = CARTESIAN_POINT('',(-72.24793778496,145.45200397511,
    0.399800008886));
#154 = CARTESIAN_POINT('',(-71.30285213214,147.09673879795,
    0.399321611292));
#155 = CARTESIAN_POINT('',(-69.95153813024,148.44336969476,
    0.398812578163));
#156 = CARTESIAN_POINT('',(-68.3108201687,149.37782138459,0.398362325715
    ));
#157 = CARTESIAN_POINT('',(-66.52539996171,149.84521391911,0.3981488245)
  );
#158 = CARTESIAN_POINT('',(-64.74,149.84521391911,0.3981488245));
#159 = PCURVE('',#44,#160);
#160 = DEFINITIONAL_REPRESENTATION('',(#161),#174);
#161 = B_SPLINE_CURVE_WITH_KNOTS('',11,(#162,#163,#164,#165,#166,#167,
    #168,#169,#170,#171,#172,#173),.UNSPECIFIED.,.F.,.F.,(12,12),(
    7.993555240279,20.619901093557),.PIECEWISE_BEZIER_KNOTS.);
#162 = CARTESIAN_POINT('',(-3.14159265359,-33.71004340332));
#163 = CARTESIAN_POINT('',(-2.998356567626,-33.59948513915));
#164 = CARTESIAN_POINT('',(-2.855197105903,-33.48891867481));
#165 = CARTESIAN_POINT('',(-2.71221724375,-33.38142071111));
#166 = CARTESIAN_POINT('',(-2.569221434317,-33.27997072021));
#167 = CARTESIAN_POINT('',(-2.426517442302,-33.18758092548));
#168 = CARTESIAN_POINT('',(-2.283664816427,-33.10671467905));
#169 = CARTESIAN_POINT('',(-2.141079616321,-33.03975989466));
#170 = CARTESIAN_POINT('',(-1.998442938731,-32.98832483314));
#171 = CARTESIAN_POINT('',(-1.855887326748,-32.95365980432));
#172 = CARTESIAN_POINT('',(-1.713340559059,-32.93632320987));
#173 = CARTESIAN_POINT('',(-1.570796326795,-32.93632320987));
#174 = ( GEOMETRIC_REPRESENTATION_CONTEXT(2) 
PARAMETRIC_REPRESENTATION_CONTEXT() REPRESENTATION_CONTEXT('2D SPACE',''
  ) );
#175 = PCURVE('',#176,#205);
#176 = B_SPLINE_SURFACE_WITH_KNOTS('',1,7,(
    (#177,#178,#179,#180,#181,#182,#183,#184,#185,#186,#187,#188,#189
      ,#190)
    ,(#191,#192,#193,#194,#195,#196,#197,#198,#199,#200,#201,#202,#203
      ,#204
    )),.UNSPECIFIED.,.F.,.F.,.F.,(2,2),(8,6,8),(0.,12.626345853278),(
    7.993555240279,8.0320835378,20.619901093557),.UNSPECIFIED.);
#177 = CARTESIAN_POINT('',(-72.735,141.81286279936,0.4));
#178 = CARTESIAN_POINT('',(-72.735,141.81837953597,0.4));
#179 = CARTESIAN_POINT('',(-72.7349955998,141.8238962868,0.399999999863)
  );
#180 = CARTESIAN_POINT('',(-72.73498679968,141.82941300603,
    0.400000000019));
#181 = CARTESIAN_POINT('',(-72.73497359943,141.83492972399,
    0.399999999903));
#182 = CARTESIAN_POINT('',(-72.73495599882,141.84044648111,
    0.399999998527));
#183 = CARTESIAN_POINT('',(-72.73493399787,141.84596326172,
    0.399999995046));
#184 = CARTESIAN_POINT('',(-72.72628208873,143.65386399548,
    0.399998120928));
#185 = CARTESIAN_POINT('',(-72.24793778496,145.45200397511,
    0.399800008886));
#186 = CARTESIAN_POINT('',(-71.30285213214,147.09673879795,
    0.399321611292));
#187 = CARTESIAN_POINT('',(-69.95153813024,148.44336969476,
    0.398812578163));
#188 = CARTESIAN_POINT('',(-68.3108201687,149.37782138459,0.398362325715
    ));
#189 = CARTESIAN_POINT('',(-66.52539996171,149.84521391911,0.3981488245)
  );
#190 = CARTESIAN_POINT('',(-64.74,149.84521391911,0.3981488245));
#191 = CARTESIAN_POINT('',(-72.335,141.81286279936,0.));
#192 = CARTESIAN_POINT('',(-72.335,141.81837953597,0.));
#193 = CARTESIAN_POINT('',(-72.33500043705,141.82393509712,0.));
#194 = CARTESIAN_POINT('',(-72.33499989119,141.82939900851,0.));
#195 = CARTESIAN_POINT('',(-72.33499931098,141.83486934632,0.));
#196 = CARTESIAN_POINT('',(-72.33499999634,141.84046477268,0.));
#197 = CARTESIAN_POINT('',(-72.33500158149,141.84611657106,0.));
#198 = CARTESIAN_POINT('',(-72.33448912713,143.56469640003,0.));
#199 = CARTESIAN_POINT('',(-71.88883791263,145.27757289466,0.));
#200 = CARTESIAN_POINT('',(-70.99569100237,146.84963920152,0.));
#201 = CARTESIAN_POINT('',(-69.71182475193,148.13925656964,0.));
#202 = CARTESIAN_POINT('',(-68.14778634188,149.03548451987,0.));
#203 = CARTESIAN_POINT('',(-66.44388888015,149.48365235754,0.));
#204 = CARTESIAN_POINT('',(-64.74,149.48365235754,0.));
#205 = DEFINITIONAL_REPRESENTATION('',(#206),#210);
#206 = LINE('',#207,#208);
#207 = CARTESIAN_POINT('',(0.,0.));
#208 = VECTOR('',#209,1.);
#209 = DIRECTION('',(0.,1.));
#210 = ( GEOMETRIC_REPRESENTATION_CONTEXT(2) 
PARAMETRIC_REPRESENTATION_CONTEXT() REPRESENTATION_CONTEXT('2D SPACE',''
  ) );
#211 = ORIENTED_EDGE('',*,*,#212,.T.);
#212 = EDGE_CURVE('',#141,#213,#215,.T.);
#213 = VERTEX_POINT('',#214);
#214 = CARTESIAN_POINT('',(-64.74,147.24450023622,27.33657657632));
#215 = SURFACE_CURVE('',#216,(#220,#227),.PCURVE_S1.);
#216 = LINE('',#217,#218);
#217 = CARTESIAN_POINT('',(-64.74,153.01026600199,-32.38574709862));
#218 = VECTOR('',#219,1.);
#219 = DIRECTION('',(0.,-9.60960960961E-02,0.995372061249));
#220 = PCURVE('',#44,#221);
#221 = DEFINITIONAL_REPRESENTATION('',(#222),#226);
#222 = LINE('',#223,#224);
#223 = CARTESIAN_POINT('',(-1.570796326795,0.));
#224 = VECTOR('',#225,1.);
#225 = DIRECTION('',(-0.,-1.));
#226 = ( GEOMETRIC_REPRESENTATION_CONTEXT(2) 
PARAMETRIC_REPRESENTATION_CONTEXT() REPRESENTATION_CONTEXT('2D SPACE',''
  ) );
#227 = PCURVE('',#228,#233);
#228 = PLANE('',#229);
#229 = AXIS2_PLACEMENT_3D('',#230,#231,#232);
#230 = CARTESIAN_POINT('',(-64.74,153.01026600465,-32.38574709836));
#231 = DIRECTION('',(0.,0.995372061249,9.60960960961E-02));
#232 = DIRECTION('',(1.,0.,0.));
#233 = DEFINITIONAL_REPRESENTATION('',(#234),#238);
#234 = LINE('',#235,#236);
#235 = CARTESIAN_POINT('',(0.,0.));
#236 = VECTOR('',#237,1.);
#237 = DIRECTION('',(0.,-1.));
#238 = ( GEOMETRIC_REPRESENTATION_CONTEXT(2) 
PARAMETRIC_REPRESENTATION_CONTEXT() REPRESENTATION_CONTEXT('2D SPACE',''
  ) );
#239 = ORIENTED_EDGE('',*,*,#240,.T.);
#240 = EDGE_CURVE('',#213,#24,#241,.T.);
#241 = SURFACE_CURVE('',#242,(#247,#254),.PCURVE_S1.);
#242 = CIRCLE('',#243,7.995);
#243 = AXIS2_PLACEMENT_3D('',#244,#245,#246);
#244 = CARTESIAN_POINT('',(-64.74,139.28650060388,26.568288287775));
#245 = DIRECTION('',(0.,-9.60960960961E-02,0.995372061249));
#246 = DIRECTION('',(1.,0.,0.));
#247 = PCURVE('',#44,#248);
#248 = DEFINITIONAL_REPRESENTATION('',(#249),#253);
#249 = LINE('',#250,#251);
#250 = CARTESIAN_POINT('',(-0.,-60.));
#251 = VECTOR('',#252,1.);
#252 = DIRECTION('',(-1.,0.));
#253 = ( GEOMETRIC_REPRESENTATION_CONTEXT(2) 
PARAMETRIC_REPRESENTATION_CONTEXT() REPRESENTATION_CONTEXT('2D SPACE',''
  ) );
#254 = PCURVE('',#124,#255);
#255 = DEFINITIONAL_REPRESENTATION('',(#256),#260);
#256 = CIRCLE('',#257,7.995);
#257 = AXIS2_PLACEMENT_2D('',#258,#259);
#258 = CARTESIAN_POINT('',(-64.74,4.999999995228));
#259 = DIRECTION('',(1.,0.));
#260 = ( GEOMETRIC_REPRESENTATION_CONTEXT(2) 
PARAMETRIC_REPRESENTATION_CONTEXT() REPRESENTATION_CONTEXT('2D SPACE',''
  ) );
#261 = ADVANCED_FACE('',(#262),#72,.F.);
#262 = FACE_BOUND('',#263,.T.);
#263 = EDGE_LOOP('',(#264,#294,#315,#316,#337));
#264 = ORIENTED_EDGE('',*,*,#265,.T.);
#265 = EDGE_CURVE('',#266,#268,#270,.T.);
#266 = VERTEX_POINT('',#267);
#267 = CARTESIAN_POINT('',(-72.335,134.21930755908,-2.775557561563E-15)
  );
#268 = VERTEX_POINT('',#269);
#269 = CARTESIAN_POINT('',(-72.7331488245,133.78086912064,0.3981488245)
  );
#270 = SURFACE_CURVE('',#271,(#275,#282),.PCURVE_S1.);
#271 = LINE('',#272,#273);
#272 = CARTESIAN_POINT('',(-72.59661691681,133.93121701248,
    0.261616916813));
#273 = VECTOR('',#274,1.);
#274 = DIRECTION('',(-0.557917534391,-0.614374519034,0.557917534391));
#275 = PCURVE('',#72,#276);
#276 = DEFINITIONAL_REPRESENTATION('',(#277),#281);
#277 = LINE('',#278,#279);
#278 = CARTESIAN_POINT('',(-0.111909453404,-8.713947942884E-02));
#279 = VECTOR('',#280,1.);
#280 = DIRECTION('',(0.614374519034,-0.789014543822));
#281 = ( GEOMETRIC_REPRESENTATION_CONTEXT(2) 
PARAMETRIC_REPRESENTATION_CONTEXT() REPRESENTATION_CONTEXT('2D SPACE',''
  ) );
#282 = PCURVE('',#283,#288);
#283 = PLANE('',#284);
#284 = AXIS2_PLACEMENT_3D('',#285,#286,#287);
#285 = CARTESIAN_POINT('',(-72.735,134.00008833986,0.19907441225));
#286 = DIRECTION('',(1.567327624288E-18,-0.672273718029,-0.740302673268)
  );
#287 = DIRECTION('',(1.,1.053673169349E-18,1.160296830147E-18));
#288 = DEFINITIONAL_REPRESENTATION('',(#289),#293);
#289 = LINE('',#290,#291);
#290 = CARTESIAN_POINT('',(0.138383083187,9.303130984624E-02));
#291 = VECTOR('',#292,1.);
#292 = DIRECTION('',(-0.557917534391,0.829896394027));
#293 = ( GEOMETRIC_REPRESENTATION_CONTEXT(2) 
PARAMETRIC_REPRESENTATION_CONTEXT() REPRESENTATION_CONTEXT('2D SPACE',''
  ) );
#294 = ORIENTED_EDGE('',*,*,#295,.T.);
#295 = EDGE_CURVE('',#268,#57,#296,.T.);
#296 = SURFACE_CURVE('',#297,(#301,#308),.PCURVE_S1.);
#297 = LINE('',#298,#299);
#298 = CARTESIAN_POINT('',(-95.55781990079,131.57730939609,
    23.222819900794));
#299 = VECTOR('',#300,1.);
#300 = DIRECTION('',(-0.705464865339,-6.810761737372E-02,0.705464865339)
  );
#301 = PCURVE('',#72,#302);
#302 = DEFINITIONAL_REPRESENTATION('',(#303),#307);
#303 = LINE('',#304,#305);
#304 = CARTESIAN_POINT('',(2.241998162987,-32.55918414777));
#305 = VECTOR('',#306,1.);
#306 = DIRECTION('',(6.810761737372E-02,-0.99767798034));
#307 = ( GEOMETRIC_REPRESENTATION_CONTEXT(2) 
PARAMETRIC_REPRESENTATION_CONTEXT() REPRESENTATION_CONTEXT('2D SPACE',''
  ) );
#308 = PCURVE('',#99,#309);
#309 = DEFINITIONAL_REPRESENTATION('',(#310),#314);
#310 = LINE('',#311,#312);
#311 = CARTESIAN_POINT('',(57.910837414934,104.4421800992));
#312 = VECTOR('',#313,1.);
#313 = DIRECTION('',(0.708744893295,-0.705464865339));
#314 = ( GEOMETRIC_REPRESENTATION_CONTEXT(2) 
PARAMETRIC_REPRESENTATION_CONTEXT() REPRESENTATION_CONTEXT('2D SPACE',''
  ) );
#315 = ORIENTED_EDGE('',*,*,#56,.T.);
#316 = ORIENTED_EDGE('',*,*,#317,.T.);
#317 = EDGE_CURVE('',#22,#318,#320,.T.);
#318 = VERTEX_POINT('',#319);
#319 = CARTESIAN_POINT('',(-72.335,141.81286279936,-3.191891195797E-15)
  );
#320 = SURFACE_CURVE('',#321,(#325,#331),.PCURVE_S1.);
#321 = LINE('',#322,#323);
#322 = CARTESIAN_POINT('',(-72.535,141.81286279936,0.2));
#323 = VECTOR('',#324,1.);
#324 = DIRECTION('',(0.707106781187,3.639437963742E-35,-0.707106781187)
  );
#325 = PCURVE('',#72,#326);
#326 = DEFINITIONAL_REPRESENTATION('',(#327),#330);
#327 = B_SPLINE_CURVE_WITH_KNOTS('',1,(#328,#329),.UNSPECIFIED.,.F.,.F.,
  (2,2),(-0.282842712475,0.282842712475),.PIECEWISE_BEZIER_KNOTS.);
#328 = CARTESIAN_POINT('',(-7.993555240279,-0.282842712475));
#329 = CARTESIAN_POINT('',(-7.993555240279,0.282842712475));
#330 = ( GEOMETRIC_REPRESENTATION_CONTEXT(2) 
PARAMETRIC_REPRESENTATION_CONTEXT() REPRESENTATION_CONTEXT('2D SPACE',''
  ) );
#331 = PCURVE('',#176,#332);
#332 = DEFINITIONAL_REPRESENTATION('',(#333),#336);
#333 = B_SPLINE_CURVE_WITH_KNOTS('',1,(#334,#335),.UNSPECIFIED.,.F.,.F.,
  (2,2),(-0.282842712475,0.282842712475),.PIECEWISE_BEZIER_KNOTS.);
#334 = CARTESIAN_POINT('',(0.,7.993555240279));
#335 = CARTESIAN_POINT('',(12.626345853278,7.993555240279));
#336 = ( GEOMETRIC_REPRESENTATION_CONTEXT(2) 
PARAMETRIC_REPRESENTATION_CONTEXT() REPRESENTATION_CONTEXT('2D SPACE',''
  ) );
#337 = ORIENTED_EDGE('',*,*,#338,.F.);
#338 = EDGE_CURVE('',#266,#318,#339,.T.);
#339 = SURFACE_CURVE('',#340,(#344,#351),.PCURVE_S1.);
#340 = LINE('',#341,#342);
#341 = CARTESIAN_POINT('',(-72.335,133.81930755908,0.));
#342 = VECTOR('',#343,1.);
#343 = DIRECTION('',(0.,1.,-0.));
#344 = PCURVE('',#72,#345);
#345 = DEFINITIONAL_REPRESENTATION('',(#346),#350);
#346 = LINE('',#347,#348);
#347 = CARTESIAN_POINT('',(-0.,0.282842712475));
#348 = VECTOR('',#349,1.);
#349 = DIRECTION('',(-1.,0.));
#350 = ( GEOMETRIC_REPRESENTATION_CONTEXT(2) 
PARAMETRIC_REPRESENTATION_CONTEXT() REPRESENTATION_CONTEXT('2D SPACE',''
  ) );
#351 = PCURVE('',#352,#357);
#352 = PLANE('',#353);
#353 = AXIS2_PLACEMENT_3D('',#354,#355,#356);
#354 = CARTESIAN_POINT('',(-200.,-200.,0.));
#355 = DIRECTION('',(0.,0.,1.));
#356 = DIRECTION('',(1.,0.,-0.));
#357 = DEFINITIONAL_REPRESENTATION('',(#358),#362);
#358 = LINE('',#359,#360);
#359 = CARTESIAN_POINT('',(127.665,333.81930755908));
#360 = VECTOR('',#361,1.);
#361 = DIRECTION('',(0.,1.));
#362 = ( GEOMETRIC_REPRESENTATION_CONTEXT(2) 
PARAMETRIC_REPRESENTATION_CONTEXT() REPRESENTATION_CONTEXT('2D SPACE',''
  ) );
#363 = ADVANCED_FACE('',(#364,#467,#498),#124,.T.);
#364 = FACE_BOUND('',#365,.T.);
#365 = EDGE_LOOP('',(#366,#367,#388,#416,#445,#466));
#366 = ORIENTED_EDGE('',*,*,#110,.F.);
#367 = ORIENTED_EDGE('',*,*,#368,.F.);
#368 = EDGE_CURVE('',#369,#85,#371,.T.);
#369 = VERTEX_POINT('',#370);
#370 = CARTESIAN_POINT('',(72.735,131.32850097951,25.8));
#371 = SURFACE_CURVE('',#372,(#376,#382),.PCURVE_S1.);
#372 = LINE('',#373,#374);
#373 = CARTESIAN_POINT('',(-100.,131.32850097951,25.8));
#374 = VECTOR('',#375,1.);
#375 = DIRECTION('',(-1.,-0.,0.));
#376 = PCURVE('',#124,#377);
#377 = DEFINITIONAL_REPRESENTATION('',(#378),#381);
#378 = B_SPLINE_CURVE_WITH_KNOTS('',1,(#379,#380),.UNSPECIFIED.,.F.,.F.,
  (2,2),(-172.735,-27.265),.PIECEWISE_BEZIER_KNOTS.);
#379 = CARTESIAN_POINT('',(72.735,-2.994999999434));
#380 = CARTESIAN_POINT('',(-72.735,-2.994999999434));
#381 = ( GEOMETRIC_REPRESENTATION_CONTEXT(2) 
PARAMETRIC_REPRESENTATION_CONTEXT() REPRESENTATION_CONTEXT('2D SPACE',''
  ) );
#382 = PCURVE('',#99,#383);
#383 = DEFINITIONAL_REPRESENTATION('',(#384),#387);
#384 = B_SPLINE_CURVE_WITH_KNOTS('',1,(#385,#386),.UNSPECIFIED.,.F.,.F.,
  (2,2),(-172.735,-27.265),.PIECEWISE_BEZIER_KNOTS.);
#385 = CARTESIAN_POINT('',(60.5,272.735));
#386 = CARTESIAN_POINT('',(60.5,127.265));
#387 = ( GEOMETRIC_REPRESENTATION_CONTEXT(2) 
PARAMETRIC_REPRESENTATION_CONTEXT() REPRESENTATION_CONTEXT('2D SPACE',''
  ) );
#388 = ORIENTED_EDGE('',*,*,#389,.T.);
#389 = EDGE_CURVE('',#369,#390,#392,.T.);
#390 = VERTEX_POINT('',#391);
#391 = CARTESIAN_POINT('',(72.735,139.28650060388,26.568288287775));
#392 = SURFACE_CURVE('',#393,(#397,#404),.PCURVE_S1.);
#393 = LINE('',#394,#395);
#394 = CARTESIAN_POINT('',(72.735,134.30964030295,26.087807807808));
#395 = VECTOR('',#396,1.);
#396 = DIRECTION('',(0.,0.995372061249,9.60960960961E-02));
#397 = PCURVE('',#124,#398);
#398 = DEFINITIONAL_REPRESENTATION('',(#399),#403);
#399 = LINE('',#400,#401);
#400 = CARTESIAN_POINT('',(72.735,5.657052300126E-10));
#401 = VECTOR('',#402,1.);
#402 = DIRECTION('',(0.,1.));
#403 = ( GEOMETRIC_REPRESENTATION_CONTEXT(2) 
PARAMETRIC_REPRESENTATION_CONTEXT() REPRESENTATION_CONTEXT('2D SPACE',''
  ) );
#404 = PCURVE('',#405,#410);
#405 = PLANE('',#406);
#406 = AXIS2_PLACEMENT_3D('',#407,#408,#409);
#407 = CARTESIAN_POINT('',(72.735,135.09854576247,-34.11499634761));
#408 = DIRECTION('',(-1.,0.,0.));
#409 = DIRECTION('',(0.,0.995372061249,9.60960960961E-02));
#410 = DEFINITIONAL_REPRESENTATION('',(#411),#415);
#411 = LINE('',#412,#413);
#412 = CARTESIAN_POINT('',(5.,-60.));
#413 = VECTOR('',#414,1.);
#414 = DIRECTION('',(1.,0.));
#415 = ( GEOMETRIC_REPRESENTATION_CONTEXT(2) 
PARAMETRIC_REPRESENTATION_CONTEXT() REPRESENTATION_CONTEXT('2D SPACE',''
  ) );
#416 = ORIENTED_EDGE('',*,*,#417,.T.);
#417 = EDGE_CURVE('',#390,#418,#420,.T.);
#418 = VERTEX_POINT('',#419);
#419 = CARTESIAN_POINT('',(64.74,147.24450023622,27.33657657632));
#420 = SURFACE_CURVE('',#421,(#426,#433),.PCURVE_S1.);
#421 = CIRCLE('',#422,7.995);
#422 = AXIS2_PLACEMENT_3D('',#423,#424,#425);
#423 = CARTESIAN_POINT('',(64.74,139.28650060388,26.568288287775));
#424 = DIRECTION('',(0.,-9.60960960961E-02,0.995372061249));
#425 = DIRECTION('',(1.,0.,0.));
#426 = PCURVE('',#124,#427);
#427 = DEFINITIONAL_REPRESENTATION('',(#428),#432);
#428 = CIRCLE('',#429,7.995);
#429 = AXIS2_PLACEMENT_2D('',#430,#431);
#430 = CARTESIAN_POINT('',(64.74,4.999999995228));
#431 = DIRECTION('',(1.,0.));
#432 = ( GEOMETRIC_REPRESENTATION_CONTEXT(2) 
PARAMETRIC_REPRESENTATION_CONTEXT() REPRESENTATION_CONTEXT('2D SPACE',''
  ) );
#433 = PCURVE('',#434,#439);
#434 = CYLINDRICAL_SURFACE('',#435,7.995);
#435 = AXIS2_PLACEMENT_3D('',#436,#437,#438);
#436 = CARTESIAN_POINT('',(64.74,145.05226636965,-33.15403538716));
#437 = DIRECTION('',(0.,9.60960960961E-02,-0.995372061249));
#438 = DIRECTION('',(1.,0.,0.));
#439 = DEFINITIONAL_REPRESENTATION('',(#440),#444);
#440 = LINE('',#441,#442);
#441 = CARTESIAN_POINT('',(-0.,-60.));
#442 = VECTOR('',#443,1.);
#443 = DIRECTION('',(-1.,0.));
#444 = ( GEOMETRIC_REPRESENTATION_CONTEXT(2) 
PARAMETRIC_REPRESENTATION_CONTEXT() REPRESENTATION_CONTEXT('2D SPACE',''
  ) );
#445 = ORIENTED_EDGE('',*,*,#446,.F.);
#446 = EDGE_CURVE('',#213,#418,#447,.T.);
#447 = SURFACE_CURVE('',#448,(#452,#459),.PCURVE_S1.);
#448 = LINE('',#449,#450);
#449 = CARTESIAN_POINT('',(0.,147.24450023888,27.336576576577));
#450 = VECTOR('',#451,1.);
#451 = DIRECTION('',(1.,0.,0.));
#452 = PCURVE('',#124,#453);
#453 = DEFINITIONAL_REPRESENTATION('',(#454),#458);
#454 = LINE('',#455,#456);
#455 = CARTESIAN_POINT('',(-3.891937095963E-15,12.995000000566));
#456 = VECTOR('',#457,1.);
#457 = DIRECTION('',(1.,0.));
#458 = ( GEOMETRIC_REPRESENTATION_CONTEXT(2) 
PARAMETRIC_REPRESENTATION_CONTEXT() REPRESENTATION_CONTEXT('2D SPACE',''
  ) );
#459 = PCURVE('',#228,#460);
#460 = DEFINITIONAL_REPRESENTATION('',(#461),#465);
#461 = LINE('',#462,#463);
#462 = CARTESIAN_POINT('',(64.74,-60.));
#463 = VECTOR('',#464,1.);
#464 = DIRECTION('',(1.,0.));
#465 = ( GEOMETRIC_REPRESENTATION_CONTEXT(2) 
PARAMETRIC_REPRESENTATION_CONTEXT() REPRESENTATION_CONTEXT('2D SPACE',''
  ) );
#466 = ORIENTED_EDGE('',*,*,#240,.T.);
#467 = FACE_BOUND('',#468,.T.);
#468 = EDGE_LOOP('',(#469));
#469 = ORIENTED_EDGE('',*,*,#470,.F.);
#470 = EDGE_CURVE('',#471,#471,#473,.T.);
#471 = VERTEX_POINT('',#472);
#472 = CARTESIAN_POINT('',(-54.985,140.27689581014,26.663903903904));
#473 = SURFACE_CURVE('',#474,(#479,#486),.PCURVE_S1.);
#474 = CIRCLE('',#475,3.75);
#475 = AXIS2_PLACEMENT_3D('',#476,#477,#478);
#476 = CARTESIAN_POINT('',(-58.735,140.27689581014,26.663903903904));
#477 = DIRECTION('',(0.,-9.60960960961E-02,0.995372061249));
#478 = DIRECTION('',(1.,0.,0.));
#479 = PCURVE('',#124,#480);
#480 = DEFINITIONAL_REPRESENTATION('',(#481),#485);
#481 = CIRCLE('',#482,3.75);
#482 = AXIS2_PLACEMENT_2D('',#483,#484);
#483 = CARTESIAN_POINT('',(-58.735,5.995000000566));
#484 = DIRECTION('',(1.,0.));
#485 = ( GEOMETRIC_REPRESENTATION_CONTEXT(2) 
PARAMETRIC_REPRESENTATION_CONTEXT() REPRESENTATION_CONTEXT('2D SPACE',''
  ) );
#486 = PCURVE('',#487,#492);
#487 = CYLINDRICAL_SURFACE('',#488,3.75);
#488 = AXIS2_PLACEMENT_3D('',#489,#490,#491);
#489 = CARTESIAN_POINT('',(-58.735,140.27689581014,26.663903903904));
#490 = DIRECTION('',(0.,-9.60960960961E-02,0.995372061249));
#491 = DIRECTION('',(1.,0.,0.));
#492 = DEFINITIONAL_REPRESENTATION('',(#493),#497);
#493 = LINE('',#494,#495);
#494 = CARTESIAN_POINT('',(0.,0.));
#495 = VECTOR('',#496,1.);
#496 = DIRECTION('',(1.,0.));
#497 = ( GEOMETRIC_REPRESENTATION_CONTEXT(2) 
PARAMETRIC_REPRESENTATION_CONTEXT() REPRESENTATION_CONTEXT('2D SPACE',''
  ) );
#498 = FACE_BOUND('',#499,.T.);
#499 = EDGE_LOOP('',(#500));
#500 = ORIENTED_EDGE('',*,*,#501,.F.);
#501 = EDGE_CURVE('',#502,#502,#504,.T.);
#502 = VERTEX_POINT('',#503);
#503 = CARTESIAN_POINT('',(62.485,140.27689581014,26.663903903904));
#504 = SURFACE_CURVE('',#505,(#510,#517),.PCURVE_S1.);
#505 = CIRCLE('',#506,3.75);
#506 = AXIS2_PLACEMENT_3D('',#507,#508,#509);
#507 = CARTESIAN_POINT('',(58.735,140.27689581014,26.663903903904));
#508 = DIRECTION('',(0.,-9.60960960961E-02,0.995372061249));
#509 = DIRECTION('',(1.,0.,0.));
#510 = PCURVE('',#124,#511);
#511 = DEFINITIONAL_REPRESENTATION('',(#512),#516);
#512 = CIRCLE('',#513,3.75);
#513 = AXIS2_PLACEMENT_2D('',#514,#515);
#514 = CARTESIAN_POINT('',(58.735,5.995000000566));
#515 = DIRECTION('',(1.,0.));
#516 = ( GEOMETRIC_REPRESENTATION_CONTEXT(2) 
PARAMETRIC_REPRESENTATION_CONTEXT() REPRESENTATION_CONTEXT('2D SPACE',''
  ) );
#517 = PCURVE('',#518,#523);
#518 = CYLINDRICAL_SURFACE('',#519,3.75);
#519 = AXIS2_PLACEMENT_3D('',#520,#521,#522);
#520 = CARTESIAN_POINT('',(58.735,140.27689581014,26.663903903904));
#521 = DIRECTION('',(0.,-9.60960960961E-02,0.995372061249));
#522 = DIRECTION('',(1.,0.,0.));
#523 = DEFINITIONAL_REPRESENTATION('',(#524),#528);
#524 = LINE('',#525,#526);
#525 = CARTESIAN_POINT('',(0.,0.));
#526 = VECTOR('',#527,1.);
#527 = DIRECTION('',(1.,0.));
#528 = ( GEOMETRIC_REPRESENTATION_CONTEXT(2) 
PARAMETRIC_REPRESENTATION_CONTEXT() REPRESENTATION_CONTEXT('2D SPACE',''
  ) );
#529 = ADVANCED_FACE('',(#530),#99,.F.);
#530 = FACE_BOUND('',#531,.F.);
#531 = EDGE_LOOP('',(#532,#533,#534,#555,#583,#604));
#532 = ORIENTED_EDGE('',*,*,#84,.F.);
#533 = ORIENTED_EDGE('',*,*,#368,.F.);
#534 = ORIENTED_EDGE('',*,*,#535,.T.);
#535 = EDGE_CURVE('',#369,#536,#538,.T.);
#536 = VERTEX_POINT('',#537);
#537 = CARTESIAN_POINT('',(72.735,133.78069040281,0.4));
#538 = SURFACE_CURVE('',#539,(#543,#549),.PCURVE_S1.);
#539 = LINE('',#540,#541);
#540 = CARTESIAN_POINT('',(72.735,137.1182907693,-34.17116669025));
#541 = VECTOR('',#542,1.);
#542 = DIRECTION('',(0.,9.60960960961E-02,-0.995372061249));
#543 = PCURVE('',#99,#544);
#544 = DEFINITIONAL_REPRESENTATION('',(#545),#548);
#545 = B_SPLINE_CURVE_WITH_KNOTS('',1,(#546,#547),.UNSPECIFIED.,.F.,.F.,
  (2,2),(-60.25,-0.25),.PIECEWISE_BEZIER_KNOTS.);
#546 = CARTESIAN_POINT('',(60.5,272.735));
#547 = CARTESIAN_POINT('',(0.5,272.735));
#548 = ( GEOMETRIC_REPRESENTATION_CONTEXT(2) 
PARAMETRIC_REPRESENTATION_CONTEXT() REPRESENTATION_CONTEXT('2D SPACE',''
  ) );
#549 = PCURVE('',#405,#550);
#550 = DEFINITIONAL_REPRESENTATION('',(#551),#554);
#551 = B_SPLINE_CURVE_WITH_KNOTS('',1,(#552,#553),.UNSPECIFIED.,.F.,.F.,
  (2,2),(-60.25,-0.25),.PIECEWISE_BEZIER_KNOTS.);
#552 = CARTESIAN_POINT('',(2.005,-60.));
#553 = CARTESIAN_POINT('',(2.005,0.));
#554 = ( GEOMETRIC_REPRESENTATION_CONTEXT(2) 
PARAMETRIC_REPRESENTATION_CONTEXT() REPRESENTATION_CONTEXT('2D SPACE',''
  ) );
#555 = ORIENTED_EDGE('',*,*,#556,.F.);
#556 = EDGE_CURVE('',#557,#536,#559,.T.);
#557 = VERTEX_POINT('',#558);
#558 = CARTESIAN_POINT('',(72.7331488245,133.78086912064,0.3981488245));
#559 = SURFACE_CURVE('',#560,(#564,#571),.PCURVE_S1.);
#560 = LINE('',#561,#562);
#561 = CARTESIAN_POINT('',(-4.171278371363,141.2054448283,
    -76.50627837136));
#562 = VECTOR('',#563,1.);
#563 = DIRECTION('',(0.705464865339,-6.810761737372E-02,0.705464865339)
  );
#564 = PCURVE('',#99,#565);
#565 = DEFINITIONAL_REPRESENTATION('',(#566),#570);
#566 = LINE('',#567,#568);
#567 = CARTESIAN_POINT('',(-42.28194692644,195.82872162863));
#568 = VECTOR('',#569,1.);
#569 = DIRECTION('',(0.708744893295,0.705464865339));
#570 = ( GEOMETRIC_REPRESENTATION_CONTEXT(2) 
PARAMETRIC_REPRESENTATION_CONTEXT() REPRESENTATION_CONTEXT('2D SPACE',''
  ) );
#571 = PCURVE('',#572,#577);
#572 = PLANE('',#573);
#573 = AXIS2_PLACEMENT_3D('',#574,#575,#576);
#574 = CARTESIAN_POINT('',(72.535,141.85147995563,0.2));
#575 = DIRECTION('',(0.707106781187,2.795980032047E-18,-0.707106781187)
  );
#576 = DIRECTION('',(1.977056440722E-18,-1.,-1.977056440722E-18));
#577 = DEFINITIONAL_REPRESENTATION('',(#578),#582);
#578 = LINE('',#579,#580);
#579 = CARTESIAN_POINT('',(0.646035127334,108.47905919194));
#580 = VECTOR('',#581,1.);
#581 = DIRECTION('',(6.810761737372E-02,-0.99767798034));
#582 = ( GEOMETRIC_REPRESENTATION_CONTEXT(2) 
PARAMETRIC_REPRESENTATION_CONTEXT() REPRESENTATION_CONTEXT('2D SPACE',''
  ) );
#583 = ORIENTED_EDGE('',*,*,#584,.F.);
#584 = EDGE_CURVE('',#268,#557,#585,.T.);
#585 = SURFACE_CURVE('',#586,(#590,#597),.PCURVE_S1.);
#586 = LINE('',#587,#588);
#587 = CARTESIAN_POINT('',(-72.735,133.78086912064,0.3981488245));
#588 = VECTOR('',#589,1.);
#589 = DIRECTION('',(1.,0.,0.));
#590 = PCURVE('',#99,#591);
#591 = DEFINITIONAL_REPRESENTATION('',(#592),#596);
#592 = LINE('',#593,#594);
#593 = CARTESIAN_POINT('',(34.980044031349,127.265));
#594 = VECTOR('',#595,1.);
#595 = DIRECTION('',(0.,1.));
#596 = ( GEOMETRIC_REPRESENTATION_CONTEXT(2) 
PARAMETRIC_REPRESENTATION_CONTEXT() REPRESENTATION_CONTEXT('2D SPACE',''
  ) );
#597 = PCURVE('',#283,#598);
#598 = DEFINITIONAL_REPRESENTATION('',(#599),#603);
#599 = LINE('',#600,#601);
#600 = CARTESIAN_POINT('',(0.,0.296121069307));
#601 = VECTOR('',#602,1.);
#602 = DIRECTION('',(1.,0.));
#603 = ( GEOMETRIC_REPRESENTATION_CONTEXT(2) 
PARAMETRIC_REPRESENTATION_CONTEXT() REPRESENTATION_CONTEXT('2D SPACE',''
  ) );
#604 = ORIENTED_EDGE('',*,*,#295,.T.);
#605 = ADVANCED_FACE('',(#606),#176,.F.);
#606 = FACE_BOUND('',#607,.F.);
#607 = EDGE_LOOP('',(#608,#609,#654,#677));
#608 = ORIENTED_EDGE('',*,*,#317,.T.);
#609 = ORIENTED_EDGE('',*,*,#610,.T.);
#610 = EDGE_CURVE('',#318,#611,#613,.T.);
#611 = VERTEX_POINT('',#612);
#612 = CARTESIAN_POINT('',(-64.74,149.48365235754,0.));
#613 = SURFACE_CURVE('',#614,(#629,#636),.PCURVE_S1.);
#614 = B_SPLINE_CURVE_WITH_KNOTS('',7,(#615,#616,#617,#618,#619,#620,
    #621,#622,#623,#624,#625,#626,#627,#628),.UNSPECIFIED.,.F.,.F.,(8,6,
    8),(7.993555240279,8.0320835378,20.619901093557),.UNSPECIFIED.);
#615 = CARTESIAN_POINT('',(-72.335,141.81286279936,0.));
#616 = CARTESIAN_POINT('',(-72.335,141.81837953597,0.));
#617 = CARTESIAN_POINT('',(-72.33500043705,141.82393509712,0.));
#618 = CARTESIAN_POINT('',(-72.33499989119,141.82939900851,0.));
#619 = CARTESIAN_POINT('',(-72.33499931098,141.83486934632,0.));
#620 = CARTESIAN_POINT('',(-72.33499999634,141.84046477268,0.));
#621 = CARTESIAN_POINT('',(-72.33500158149,141.84611657106,0.));
#622 = CARTESIAN_POINT('',(-72.33448912713,143.56469640003,0.));
#623 = CARTESIAN_POINT('',(-71.88883791263,145.27757289466,0.));
#624 = CARTESIAN_POINT('',(-70.99569100237,146.84963920152,0.));
#625 = CARTESIAN_POINT('',(-69.71182475193,148.13925656964,0.));
#626 = CARTESIAN_POINT('',(-68.14778634188,149.03548451987,0.));
#627 = CARTESIAN_POINT('',(-66.44388888015,149.48365235754,0.));
#628 = CARTESIAN_POINT('',(-64.74,149.48365235754,0.));
#629 = PCURVE('',#176,#630);
#630 = DEFINITIONAL_REPRESENTATION('',(#631),#635);
#631 = LINE('',#632,#633);
#632 = CARTESIAN_POINT('',(12.626345853278,0.));
#633 = VECTOR('',#634,1.);
#634 = DIRECTION('',(0.,1.));
#635 = ( GEOMETRIC_REPRESENTATION_CONTEXT(2) 
PARAMETRIC_REPRESENTATION_CONTEXT() REPRESENTATION_CONTEXT('2D SPACE',''
  ) );
#636 = PCURVE('',#352,#637);
#637 = DEFINITIONAL_REPRESENTATION('',(#638),#653);
#638 = B_SPLINE_CURVE_WITH_KNOTS('',7,(#639,#640,#641,#642,#643,#644,
    #645,#646,#647,#648,#649,#650,#651,#652),.UNSPECIFIED.,.F.,.F.,(8,6,
    8),(7.993555240279,8.0320835378,20.619901093557),.UNSPECIFIED.);
#639 = CARTESIAN_POINT('',(127.665,341.81286279936));
#640 = CARTESIAN_POINT('',(127.665,341.81837953597));
#641 = CARTESIAN_POINT('',(127.66499956294,341.82393509712));
#642 = CARTESIAN_POINT('',(127.6650001088,341.82939900852));
#643 = CARTESIAN_POINT('',(127.66500068901,341.83486934632));
#644 = CARTESIAN_POINT('',(127.66500000365,341.84046477268));
#645 = CARTESIAN_POINT('',(127.6649984185,341.84611657106));
#646 = CARTESIAN_POINT('',(127.66551087286,343.56469640003));
#647 = CARTESIAN_POINT('',(128.11116208735,345.27757289466));
#648 = CARTESIAN_POINT('',(129.00430899763,346.84963920153));
#649 = CARTESIAN_POINT('',(130.28817524805,348.13925656963));
#650 = CARTESIAN_POINT('',(131.85221365811,349.03548451987));
#651 = CARTESIAN_POINT('',(133.55611111984,349.48365235754));
#652 = CARTESIAN_POINT('',(135.26,349.48365235754));
#653 = ( GEOMETRIC_REPRESENTATION_CONTEXT(2) 
PARAMETRIC_REPRESENTATION_CONTEXT() REPRESENTATION_CONTEXT('2D SPACE',''
  ) );
#654 = ORIENTED_EDGE('',*,*,#655,.F.);
#655 = EDGE_CURVE('',#141,#611,#656,.T.);
#656 = SURFACE_CURVE('',#657,(#660,#666),.PCURVE_S1.);
#657 = B_SPLINE_CURVE_WITH_KNOTS('',1,(#658,#659),.UNSPECIFIED.,.F.,.F.,
  (2,2),(0.,12.626345853278),.PIECEWISE_BEZIER_KNOTS.);
#658 = CARTESIAN_POINT('',(-64.74,149.84521391911,0.3981488245));
#659 = CARTESIAN_POINT('',(-64.74,149.48365235754,0.));
#660 = PCURVE('',#176,#661);
#661 = DEFINITIONAL_REPRESENTATION('',(#662),#665);
#662 = B_SPLINE_CURVE_WITH_KNOTS('',1,(#663,#664),.UNSPECIFIED.,.F.,.F.,
  (2,2),(0.,12.626345853278),.PIECEWISE_BEZIER_KNOTS.);
#663 = CARTESIAN_POINT('',(0.,20.619901093557));
#664 = CARTESIAN_POINT('',(12.626345853278,20.619901093557));
#665 = ( GEOMETRIC_REPRESENTATION_CONTEXT(2) 
PARAMETRIC_REPRESENTATION_CONTEXT() REPRESENTATION_CONTEXT('2D SPACE',''
  ) );
#666 = PCURVE('',#667,#672);
#667 = PLANE('',#668);
#668 = AXIS2_PLACEMENT_3D('',#669,#670,#671);
#669 = CARTESIAN_POINT('',(-64.74,149.66443314369,0.19907441225));
#670 = DIRECTION('',(-7.399671666491E-19,-0.740302673268,0.672273718029)
  );
#671 = DIRECTION('',(-1.,5.47799671601E-19,-4.974604783423E-19));
#672 = DEFINITIONAL_REPRESENTATION('',(#673),#676);
#673 = B_SPLINE_CURVE_WITH_KNOTS('',1,(#674,#675),.UNSPECIFIED.,.F.,.F.,
  (2,2),(0.,12.626345853278),.PIECEWISE_BEZIER_KNOTS.);
#674 = CARTESIAN_POINT('',(0.,-0.268909487211));
#675 = CARTESIAN_POINT('',(0.,0.268909487211));
#676 = ( GEOMETRIC_REPRESENTATION_CONTEXT(2) 
PARAMETRIC_REPRESENTATION_CONTEXT() REPRESENTATION_CONTEXT('2D SPACE',''
  ) );
#677 = ORIENTED_EDGE('',*,*,#140,.F.);
#678 = ADVANCED_FACE('',(#679),#228,.T.);
#679 = FACE_BOUND('',#680,.T.);
#680 = EDGE_LOOP('',(#681,#704,#725,#726));
#681 = ORIENTED_EDGE('',*,*,#682,.F.);
#682 = EDGE_CURVE('',#683,#418,#685,.T.);
#683 = VERTEX_POINT('',#684);
#684 = CARTESIAN_POINT('',(64.74,149.84521392447,0.3981488245));
#685 = SURFACE_CURVE('',#686,(#690,#697),.PCURVE_S1.);
#686 = LINE('',#687,#688);
#687 = CARTESIAN_POINT('',(64.74,153.01026600199,-32.38574709862));
#688 = VECTOR('',#689,1.);
#689 = DIRECTION('',(0.,-9.60960960961E-02,0.995372061249));
#690 = PCURVE('',#228,#691);
#691 = DEFINITIONAL_REPRESENTATION('',(#692),#696);
#692 = LINE('',#693,#694);
#693 = CARTESIAN_POINT('',(129.48,0.));
#694 = VECTOR('',#695,1.);
#695 = DIRECTION('',(0.,-1.));
#696 = ( GEOMETRIC_REPRESENTATION_CONTEXT(2) 
PARAMETRIC_REPRESENTATION_CONTEXT() REPRESENTATION_CONTEXT('2D SPACE',''
  ) );
#697 = PCURVE('',#434,#698);
#698 = DEFINITIONAL_REPRESENTATION('',(#699),#703);
#699 = LINE('',#700,#701);
#700 = CARTESIAN_POINT('',(-1.570796326795,0.));
#701 = VECTOR('',#702,1.);
#702 = DIRECTION('',(-0.,-1.));
#703 = ( GEOMETRIC_REPRESENTATION_CONTEXT(2) 
PARAMETRIC_REPRESENTATION_CONTEXT() REPRESENTATION_CONTEXT('2D SPACE',''
  ) );
#704 = ORIENTED_EDGE('',*,*,#705,.F.);
#705 = EDGE_CURVE('',#141,#683,#706,.T.);
#706 = SURFACE_CURVE('',#707,(#711,#718),.PCURVE_S1.);
#707 = LINE('',#708,#709);
#708 = CARTESIAN_POINT('',(-64.74,149.84521392447,0.3981488245));
#709 = VECTOR('',#710,1.);
#710 = DIRECTION('',(1.,0.,0.));
#711 = PCURVE('',#228,#712);
#712 = DEFINITIONAL_REPRESENTATION('',(#713),#717);
#713 = LINE('',#714,#715);
#714 = CARTESIAN_POINT('',(0.,-32.93632320935));
#715 = VECTOR('',#716,1.);
#716 = DIRECTION('',(1.,0.));
#717 = ( GEOMETRIC_REPRESENTATION_CONTEXT(2) 
PARAMETRIC_REPRESENTATION_CONTEXT() REPRESENTATION_CONTEXT('2D SPACE',''
  ) );
#718 = PCURVE('',#667,#719);
#719 = DEFINITIONAL_REPRESENTATION('',(#720),#724);
#720 = LINE('',#721,#722);
#721 = CARTESIAN_POINT('',(-0.,-0.268909487211));
#722 = VECTOR('',#723,1.);
#723 = DIRECTION('',(-1.,0.));
#724 = ( GEOMETRIC_REPRESENTATION_CONTEXT(2) 
PARAMETRIC_REPRESENTATION_CONTEXT() REPRESENTATION_CONTEXT('2D SPACE',''
  ) );
#725 = ORIENTED_EDGE('',*,*,#212,.T.);
#726 = ORIENTED_EDGE('',*,*,#446,.T.);
#727 = ADVANCED_FACE('',(#728),#283,.T.);
#728 = FACE_BOUND('',#729,.T.);
#729 = EDGE_LOOP('',(#730,#731,#754,#775));
#730 = ORIENTED_EDGE('',*,*,#265,.F.);
#731 = ORIENTED_EDGE('',*,*,#732,.T.);
#732 = EDGE_CURVE('',#266,#733,#735,.T.);
#733 = VERTEX_POINT('',#734);
#734 = CARTESIAN_POINT('',(72.335,134.21930755908,-2.609024107869E-15));
#735 = SURFACE_CURVE('',#736,(#740,#747),.PCURVE_S1.);
#736 = LINE('',#737,#738);
#737 = CARTESIAN_POINT('',(-72.735,134.21930755908,-6.09466755445E-16));
#738 = VECTOR('',#739,1.);
#739 = DIRECTION('',(1.,0.,0.));
#740 = PCURVE('',#283,#741);
#741 = DEFINITIONAL_REPRESENTATION('',(#742),#746);
#742 = LINE('',#743,#744);
#743 = CARTESIAN_POINT('',(0.,-0.296121069307));
#744 = VECTOR('',#745,1.);
#745 = DIRECTION('',(1.,0.));
#746 = ( GEOMETRIC_REPRESENTATION_CONTEXT(2) 
PARAMETRIC_REPRESENTATION_CONTEXT() REPRESENTATION_CONTEXT('2D SPACE',''
  ) );
#747 = PCURVE('',#352,#748);
#748 = DEFINITIONAL_REPRESENTATION('',(#749),#753);
#749 = LINE('',#750,#751);
#750 = CARTESIAN_POINT('',(127.265,334.21930755908));
#751 = VECTOR('',#752,1.);
#752 = DIRECTION('',(1.,0.));
#753 = ( GEOMETRIC_REPRESENTATION_CONTEXT(2) 
PARAMETRIC_REPRESENTATION_CONTEXT() REPRESENTATION_CONTEXT('2D SPACE',''
  ) );
#754 = ORIENTED_EDGE('',*,*,#755,.T.);
#755 = EDGE_CURVE('',#733,#557,#756,.T.);
#756 = SURFACE_CURVE('',#757,(#761,#768),.PCURVE_S1.);
#757 = LINE('',#758,#759);
#758 = CARTESIAN_POINT('',(48.579654663337,160.37851204012,
    -23.75534533666));
#759 = VECTOR('',#760,1.);
#760 = DIRECTION('',(0.557917534391,-0.614374519034,0.557917534391));
#761 = PCURVE('',#283,#762);
#762 = DEFINITIONAL_REPRESENTATION('',(#763),#767);
#763 = LINE('',#764,#765);
#764 = CARTESIAN_POINT('',(121.31465466333,-35.63194440972));
#765 = VECTOR('',#766,1.);
#766 = DIRECTION('',(0.557917534391,0.829896394027));
#767 = ( GEOMETRIC_REPRESENTATION_CONTEXT(2) 
PARAMETRIC_REPRESENTATION_CONTEXT() REPRESENTATION_CONTEXT('2D SPACE',''
  ) );
#768 = PCURVE('',#572,#769);
#769 = DEFINITIONAL_REPRESENTATION('',(#770),#774);
#770 = LINE('',#771,#772);
#771 = CARTESIAN_POINT('',(-18.52703208449,33.877974266439));
#772 = VECTOR('',#773,1.);
#773 = DIRECTION('',(0.614374519034,-0.789014543822));
#774 = ( GEOMETRIC_REPRESENTATION_CONTEXT(2) 
PARAMETRIC_REPRESENTATION_CONTEXT() REPRESENTATION_CONTEXT('2D SPACE',''
  ) );
#775 = ORIENTED_EDGE('',*,*,#584,.F.);
#776 = ADVANCED_FACE('',(#777),#352,.F.);
#777 = FACE_BOUND('',#778,.F.);
#778 = EDGE_LOOP('',(#779,#780,#781,#804,#878,#899));
#779 = ORIENTED_EDGE('',*,*,#338,.F.);
#780 = ORIENTED_EDGE('',*,*,#732,.T.);
#781 = ORIENTED_EDGE('',*,*,#782,.F.);
#782 = EDGE_CURVE('',#783,#733,#785,.T.);
#783 = VERTEX_POINT('',#784);
#784 = CARTESIAN_POINT('',(72.335,141.81286279936,0.));
#785 = SURFACE_CURVE('',#786,(#790,#797),.PCURVE_S1.);
#786 = LINE('',#787,#788);
#787 = CARTESIAN_POINT('',(72.335,141.85147995563,0.));
#788 = VECTOR('',#789,1.);
#789 = DIRECTION('',(-0.,-1.,0.));
#790 = PCURVE('',#352,#791);
#791 = DEFINITIONAL_REPRESENTATION('',(#792),#796);
#792 = LINE('',#793,#794);
#793 = CARTESIAN_POINT('',(272.335,341.85147995563));
#794 = VECTOR('',#795,1.);
#795 = DIRECTION('',(-0.,-1.));
#796 = ( GEOMETRIC_REPRESENTATION_CONTEXT(2) 
PARAMETRIC_REPRESENTATION_CONTEXT() REPRESENTATION_CONTEXT('2D SPACE',''
  ) );
#797 = PCURVE('',#572,#798);
#798 = DEFINITIONAL_REPRESENTATION('',(#799),#803);
#799 = LINE('',#800,#801);
#800 = CARTESIAN_POINT('',(0.,0.282842712475));
#801 = VECTOR('',#802,1.);
#802 = DIRECTION('',(1.,0.));
#803 = ( GEOMETRIC_REPRESENTATION_CONTEXT(2) 
PARAMETRIC_REPRESENTATION_CONTEXT() REPRESENTATION_CONTEXT('2D SPACE',''
  ) );
#804 = ORIENTED_EDGE('',*,*,#805,.F.);
#805 = EDGE_CURVE('',#806,#783,#808,.T.);
#806 = VERTEX_POINT('',#807);
#807 = CARTESIAN_POINT('',(64.74,149.48365236291,-1.56263890716E-14));
#808 = SURFACE_CURVE('',#809,(#824,#842),.PCURVE_S1.);
#809 = B_SPLINE_CURVE_WITH_KNOTS('',7,(#810,#811,#812,#813,#814,#815,
    #816,#817,#818,#819,#820,#821,#822,#823),.UNSPECIFIED.,.F.,.F.,(8,6,
    8),(150.0999010938,162.68771864981,162.72624694733),.UNSPECIFIED.);
#810 = CARTESIAN_POINT('',(64.74,149.48365235754,0.));
#811 = CARTESIAN_POINT('',(66.443888880152,149.48365235755,0.));
#812 = CARTESIAN_POINT('',(68.147786341885,149.03548451986,0.));
#813 = CARTESIAN_POINT('',(69.711824751933,148.13925656964,0.));
#814 = CARTESIAN_POINT('',(70.995691002378,146.84963920152,0.));
#815 = CARTESIAN_POINT('',(71.888837912637,145.27757289466,0.));
#816 = CARTESIAN_POINT('',(72.334489127137,143.56469640004,0.));
#817 = CARTESIAN_POINT('',(72.335001581497,141.84611657106,0.));
#818 = CARTESIAN_POINT('',(72.334999996346,141.84046477268,0.));
#819 = CARTESIAN_POINT('',(72.334999310982,141.83486934633,0.));
#820 = CARTESIAN_POINT('',(72.334999891193,141.82939900851,0.));
#821 = CARTESIAN_POINT('',(72.335000437052,141.82393509712,0.));
#822 = CARTESIAN_POINT('',(72.335,141.81837953597,0.));
#823 = CARTESIAN_POINT('',(72.335,141.81286279936,0.));
#824 = PCURVE('',#352,#825);
#825 = DEFINITIONAL_REPRESENTATION('',(#826),#841);
#826 = B_SPLINE_CURVE_WITH_KNOTS('',7,(#827,#828,#829,#830,#831,#832,
    #833,#834,#835,#836,#837,#838,#839,#840),.UNSPECIFIED.,.F.,.F.,(8,6,
    8),(150.0999010938,162.68771864981,162.72624694733),.UNSPECIFIED.);
#827 = CARTESIAN_POINT('',(264.74,349.48365235754));
#828 = CARTESIAN_POINT('',(266.44388888015,349.48365235755));
#829 = CARTESIAN_POINT('',(268.14778634188,349.03548451986));
#830 = CARTESIAN_POINT('',(269.71182475193,348.13925656965));
#831 = CARTESIAN_POINT('',(270.99569100237,346.84963920152));
#832 = CARTESIAN_POINT('',(271.88883791264,345.27757289466));
#833 = CARTESIAN_POINT('',(272.33448912713,343.56469640004));
#834 = CARTESIAN_POINT('',(272.33500158149,341.84611657106));
#835 = CARTESIAN_POINT('',(272.33499999634,341.84046477268));
#836 = CARTESIAN_POINT('',(272.33499931098,341.83486934633));
#837 = CARTESIAN_POINT('',(272.33499989119,341.82939900851));
#838 = CARTESIAN_POINT('',(272.33500043705,341.82393509713));
#839 = CARTESIAN_POINT('',(272.335,341.81837953597));
#840 = CARTESIAN_POINT('',(272.335,341.81286279936));
#841 = ( GEOMETRIC_REPRESENTATION_CONTEXT(2) 
PARAMETRIC_REPRESENTATION_CONTEXT() REPRESENTATION_CONTEXT('2D SPACE',''
  ) );
#842 = PCURVE('',#843,#872);
#843 = B_SPLINE_SURFACE_WITH_KNOTS('',1,7,(
    (#844,#845,#846,#847,#848,#849,#850,#851,#852,#853,#854,#855,#856
      ,#857)
    ,(#858,#859,#860,#861,#862,#863,#864,#865,#866,#867,#868,#869,#870
      ,#871
    )),.UNSPECIFIED.,.F.,.F.,.F.,(2,2),(8,6,8),(0.,12.62634585353),(
    150.0999010938,162.68771864981,162.72624694733),.UNSPECIFIED.);
#844 = CARTESIAN_POINT('',(64.74,149.84521391911,0.3981488245));
#845 = CARTESIAN_POINT('',(66.525399961712,149.84521391911,
    0.398148824499));
#846 = CARTESIAN_POINT('',(68.310820168702,149.37782138458,
    0.398362325716));
#847 = CARTESIAN_POINT('',(69.951538130245,148.44336969477,
    0.398812578163));
#848 = CARTESIAN_POINT('',(71.302852132147,147.09673879794,
    0.399321611292));
#849 = CARTESIAN_POINT('',(72.247937784964,145.45200397511,
    0.399800008885));
#850 = CARTESIAN_POINT('',(72.726282088729,143.65386399548,
    0.399998120929));
#851 = CARTESIAN_POINT('',(72.734933997872,141.84596326172,
    0.399999995046));
#852 = CARTESIAN_POINT('',(72.734955998822,141.8404464811,0.399999998527
    ));
#853 = CARTESIAN_POINT('',(72.734973599436,141.834929724,0.399999999903)
  );
#854 = CARTESIAN_POINT('',(72.734986799678,141.82941300602,
    0.400000000019));
#855 = CARTESIAN_POINT('',(72.734995599809,141.8238962868,0.399999999863
    ));
#856 = CARTESIAN_POINT('',(72.735,141.81837953597,0.4));
#857 = CARTESIAN_POINT('',(72.735,141.81286279936,0.4));
#858 = CARTESIAN_POINT('',(64.74,149.48365235754,0.));
#859 = CARTESIAN_POINT('',(66.443888880152,149.48365235755,0.));
#860 = CARTESIAN_POINT('',(68.147786341885,149.03548451986,0.));
#861 = CARTESIAN_POINT('',(69.711824751933,148.13925656964,0.));
#862 = CARTESIAN_POINT('',(70.995691002378,146.84963920152,0.));
#863 = CARTESIAN_POINT('',(71.888837912637,145.27757289466,0.));
#864 = CARTESIAN_POINT('',(72.334489127137,143.56469640004,0.));
#865 = CARTESIAN_POINT('',(72.335001581497,141.84611657106,0.));
#866 = CARTESIAN_POINT('',(72.334999996346,141.84046477268,0.));
#867 = CARTESIAN_POINT('',(72.334999310982,141.83486934633,0.));
#868 = CARTESIAN_POINT('',(72.334999891193,141.82939900851,0.));
#869 = CARTESIAN_POINT('',(72.335000437052,141.82393509712,0.));
#870 = CARTESIAN_POINT('',(72.335,141.81837953597,0.));
#871 = CARTESIAN_POINT('',(72.335,141.81286279936,0.));
#872 = DEFINITIONAL_REPRESENTATION('',(#873),#877);
#873 = LINE('',#874,#875);
#874 = CARTESIAN_POINT('',(12.62634585353,0.));
#875 = VECTOR('',#876,1.);
#876 = DIRECTION('',(0.,1.));
#877 = ( GEOMETRIC_REPRESENTATION_CONTEXT(2) 
PARAMETRIC_REPRESENTATION_CONTEXT() REPRESENTATION_CONTEXT('2D SPACE',''
  ) );
#878 = ORIENTED_EDGE('',*,*,#879,.F.);
#879 = EDGE_CURVE('',#611,#806,#880,.T.);
#880 = SURFACE_CURVE('',#881,(#885,#892),.PCURVE_S1.);
#881 = LINE('',#882,#883);
#882 = CARTESIAN_POINT('',(-64.74,149.48365236291,-9.44885501982E-16));
#883 = VECTOR('',#884,1.);
#884 = DIRECTION('',(1.,0.,0.));
#885 = PCURVE('',#352,#886);
#886 = DEFINITIONAL_REPRESENTATION('',(#887),#891);
#887 = LINE('',#888,#889);
#888 = CARTESIAN_POINT('',(135.26,349.48365236291));
#889 = VECTOR('',#890,1.);
#890 = DIRECTION('',(1.,0.));
#891 = ( GEOMETRIC_REPRESENTATION_CONTEXT(2) 
PARAMETRIC_REPRESENTATION_CONTEXT() REPRESENTATION_CONTEXT('2D SPACE',''
  ) );
#892 = PCURVE('',#667,#893);
#893 = DEFINITIONAL_REPRESENTATION('',(#894),#898);
#894 = LINE('',#895,#896);
#895 = CARTESIAN_POINT('',(-0.,0.268909487211));
#896 = VECTOR('',#897,1.);
#897 = DIRECTION('',(-1.,0.));
#898 = ( GEOMETRIC_REPRESENTATION_CONTEXT(2) 
PARAMETRIC_REPRESENTATION_CONTEXT() REPRESENTATION_CONTEXT('2D SPACE',''
  ) );
#899 = ORIENTED_EDGE('',*,*,#610,.F.);
#900 = ADVANCED_FACE('',(#901),#405,.F.);
#901 = FACE_BOUND('',#902,.F.);
#902 = EDGE_LOOP('',(#903,#926,#947,#948));
#903 = ORIENTED_EDGE('',*,*,#904,.F.);
#904 = EDGE_CURVE('',#905,#390,#907,.T.);
#905 = VERTEX_POINT('',#906);
#906 = CARTESIAN_POINT('',(72.735,141.81286279936,0.4));
#907 = SURFACE_CURVE('',#908,(#912,#919),.PCURVE_S1.);
#908 = LINE('',#909,#910);
#909 = CARTESIAN_POINT('',(72.735,145.05226636965,-33.15403538716));
#910 = VECTOR('',#911,1.);
#911 = DIRECTION('',(0.,-9.60960960961E-02,0.995372061249));
#912 = PCURVE('',#405,#913);
#913 = DEFINITIONAL_REPRESENTATION('',(#914),#918);
#914 = LINE('',#915,#916);
#915 = CARTESIAN_POINT('',(9.999999994663,0.));
#916 = VECTOR('',#917,1.);
#917 = DIRECTION('',(0.,-1.));
#918 = ( GEOMETRIC_REPRESENTATION_CONTEXT(2) 
PARAMETRIC_REPRESENTATION_CONTEXT() REPRESENTATION_CONTEXT('2D SPACE',''
  ) );
#919 = PCURVE('',#434,#920);
#920 = DEFINITIONAL_REPRESENTATION('',(#921),#925);
#921 = LINE('',#922,#923);
#922 = CARTESIAN_POINT('',(-0.,0.));
#923 = VECTOR('',#924,1.);
#924 = DIRECTION('',(-0.,-1.));
#925 = ( GEOMETRIC_REPRESENTATION_CONTEXT(2) 
PARAMETRIC_REPRESENTATION_CONTEXT() REPRESENTATION_CONTEXT('2D SPACE',''
  ) );
#926 = ORIENTED_EDGE('',*,*,#927,.T.);
#927 = EDGE_CURVE('',#905,#536,#928,.T.);
#928 = SURFACE_CURVE('',#929,(#933,#940),.PCURVE_S1.);
#929 = LINE('',#930,#931);
#930 = CARTESIAN_POINT('',(72.735,141.85147995563,0.4));
#931 = VECTOR('',#932,1.);
#932 = DIRECTION('',(-0.,-1.,0.));
#933 = PCURVE('',#405,#934);
#934 = DEFINITIONAL_REPRESENTATION('',(#935),#939);
#935 = LINE('',#936,#937);
#936 = CARTESIAN_POINT('',(10.038438433101,-33.70633244536));
#937 = VECTOR('',#938,1.);
#938 = DIRECTION('',(-0.995372061249,-9.60960960961E-02));
#939 = ( GEOMETRIC_REPRESENTATION_CONTEXT(2) 
PARAMETRIC_REPRESENTATION_CONTEXT() REPRESENTATION_CONTEXT('2D SPACE',''
  ) );
#940 = PCURVE('',#572,#941);
#941 = DEFINITIONAL_REPRESENTATION('',(#942),#946);
#942 = LINE('',#943,#944);
#943 = CARTESIAN_POINT('',(0.,-0.282842712475));
#944 = VECTOR('',#945,1.);
#945 = DIRECTION('',(1.,0.));
#946 = ( GEOMETRIC_REPRESENTATION_CONTEXT(2) 
PARAMETRIC_REPRESENTATION_CONTEXT() REPRESENTATION_CONTEXT('2D SPACE',''
  ) );
#947 = ORIENTED_EDGE('',*,*,#535,.F.);
#948 = ORIENTED_EDGE('',*,*,#389,.T.);
#949 = ADVANCED_FACE('',(#950),#434,.T.);
#950 = FACE_BOUND('',#951,.F.);
#951 = EDGE_LOOP('',(#952,#953,#994,#995));
#952 = ORIENTED_EDGE('',*,*,#682,.F.);
#953 = ORIENTED_EDGE('',*,*,#954,.T.);
#954 = EDGE_CURVE('',#683,#905,#955,.T.);
#955 = SURFACE_CURVE('',#956,(#971,#987),.PCURVE_S1.);
#956 = B_SPLINE_CURVE_WITH_KNOTS('',7,(#957,#958,#959,#960,#961,#962,
    #963,#964,#965,#966,#967,#968,#969,#970),.UNSPECIFIED.,.F.,.F.,(8,6,
    8),(150.0999010938,162.68771864981,162.72624694733),.UNSPECIFIED.);
#957 = CARTESIAN_POINT('',(64.74,149.84521391911,0.3981488245));
#958 = CARTESIAN_POINT('',(66.525399961712,149.84521391911,
    0.398148824499));
#959 = CARTESIAN_POINT('',(68.310820168702,149.37782138458,
    0.398362325716));
#960 = CARTESIAN_POINT('',(69.951538130245,148.44336969477,
    0.398812578163));
#961 = CARTESIAN_POINT('',(71.302852132147,147.09673879794,
    0.399321611292));
#962 = CARTESIAN_POINT('',(72.247937784964,145.45200397511,
    0.399800008885));
#963 = CARTESIAN_POINT('',(72.726282088729,143.65386399548,
    0.399998120929));
#964 = CARTESIAN_POINT('',(72.734933997872,141.84596326172,
    0.399999995046));
#965 = CARTESIAN_POINT('',(72.734955998822,141.8404464811,0.399999998527
    ));
#966 = CARTESIAN_POINT('',(72.734973599436,141.834929724,0.399999999903)
  );
#967 = CARTESIAN_POINT('',(72.734986799678,141.82941300602,
    0.400000000019));
#968 = CARTESIAN_POINT('',(72.734995599809,141.8238962868,0.399999999863
    ));
#969 = CARTESIAN_POINT('',(72.735,141.81837953597,0.4));
#970 = CARTESIAN_POINT('',(72.735,141.81286279936,0.4));
#971 = PCURVE('',#434,#972);
#972 = DEFINITIONAL_REPRESENTATION('',(#973),#986);
#973 = B_SPLINE_CURVE_WITH_KNOTS('',11,(#974,#975,#976,#977,#978,#979,
    #980,#981,#982,#983,#984,#985),.UNSPECIFIED.,.F.,.F.,(12,12),(
    150.0999010938,162.72624694733),.PIECEWISE_BEZIER_KNOTS.);
#974 = CARTESIAN_POINT('',(-1.570796326795,-32.93632320987));
#975 = CARTESIAN_POINT('',(-1.428252094531,-32.93632320987));
#976 = CARTESIAN_POINT('',(-1.28570532682,-32.9536598043));
#977 = CARTESIAN_POINT('',(-1.143149714983,-32.98832483326));
#978 = CARTESIAN_POINT('',(-1.000513036909,-33.03975989433));
#979 = CARTESIAN_POINT('',(-0.857927837823,-33.10671467964));
#980 = CARTESIAN_POINT('',(-0.715075210464,-33.18758092476));
#981 = CARTESIAN_POINT('',(-0.57237121999,-33.27997072084));
#982 = CARTESIAN_POINT('',(-0.42937540941,-33.38142071074));
#983 = CARTESIAN_POINT('',(-0.286395547855,-33.48891867495));
#984 = CARTESIAN_POINT('',(-0.14323608593,-33.59948513912));
#985 = CARTESIAN_POINT('',(-6.164120605771E-18,-33.71004340332));
#986 = ( GEOMETRIC_REPRESENTATION_CONTEXT(2) 
PARAMETRIC_REPRESENTATION_CONTEXT() REPRESENTATION_CONTEXT('2D SPACE',''
  ) );
#987 = PCURVE('',#843,#988);
#988 = DEFINITIONAL_REPRESENTATION('',(#989),#993);
#989 = LINE('',#990,#991);
#990 = CARTESIAN_POINT('',(0.,0.));
#991 = VECTOR('',#992,1.);
#992 = DIRECTION('',(0.,1.));
#993 = ( GEOMETRIC_REPRESENTATION_CONTEXT(2) 
PARAMETRIC_REPRESENTATION_CONTEXT() REPRESENTATION_CONTEXT('2D SPACE',''
  ) );
#994 = ORIENTED_EDGE('',*,*,#904,.T.);
#995 = ORIENTED_EDGE('',*,*,#417,.T.);
#996 = ADVANCED_FACE('',(#997),#487,.T.);
#997 = FACE_BOUND('',#998,.T.);
#998 = EDGE_LOOP('',(#999,#1028,#1049,#1050));
#999 = ORIENTED_EDGE('',*,*,#1000,.F.);
#1000 = EDGE_CURVE('',#1001,#1001,#1003,.T.);
#1001 = VERTEX_POINT('',#1002);
#1002 = CARTESIAN_POINT('',(-54.985,140.2384573717,27.062052728404));
#1003 = SURFACE_CURVE('',#1004,(#1009,#1016),.PCURVE_S1.);
#1004 = CIRCLE('',#1005,3.75);
#1005 = AXIS2_PLACEMENT_3D('',#1006,#1007,#1008);
#1006 = CARTESIAN_POINT('',(-58.735,140.2384573717,27.062052728404));
#1007 = DIRECTION('',(0.,-9.60960960961E-02,0.995372061249));
#1008 = DIRECTION('',(1.,0.,0.));
#1009 = PCURVE('',#487,#1010);
#1010 = DEFINITIONAL_REPRESENTATION('',(#1011),#1015);
#1011 = LINE('',#1012,#1013);
#1012 = CARTESIAN_POINT('',(0.,0.4));
#1013 = VECTOR('',#1014,1.);
#1014 = DIRECTION('',(1.,0.));
#1015 = ( GEOMETRIC_REPRESENTATION_CONTEXT(2) 
PARAMETRIC_REPRESENTATION_CONTEXT() REPRESENTATION_CONTEXT('2D SPACE',''
  ) );
#1016 = PCURVE('',#1017,#1022);
#1017 = PLANE('',#1018);
#1018 = AXIS2_PLACEMENT_3D('',#1019,#1020,#1021);
#1019 = CARTESIAN_POINT('',(-58.735,140.2384573717,27.062052728404));
#1020 = DIRECTION('',(0.,-9.60960960961E-02,0.995372061249));
#1021 = DIRECTION('',(1.,0.,0.));
#1022 = DEFINITIONAL_REPRESENTATION('',(#1023),#1027);
#1023 = CIRCLE('',#1024,3.75);
#1024 = AXIS2_PLACEMENT_2D('',#1025,#1026);
#1025 = CARTESIAN_POINT('',(0.,0.));
#1026 = DIRECTION('',(1.,0.));
#1027 = ( GEOMETRIC_REPRESENTATION_CONTEXT(2) 
PARAMETRIC_REPRESENTATION_CONTEXT() REPRESENTATION_CONTEXT('2D SPACE',''
  ) );
#1028 = ORIENTED_EDGE('',*,*,#1029,.F.);
#1029 = EDGE_CURVE('',#471,#1001,#1030,.T.);
#1030 = SEAM_CURVE('',#1031,(#1035,#1042),.PCURVE_S1.);
#1031 = LINE('',#1032,#1033);
#1032 = CARTESIAN_POINT('',(-54.985,140.27689581014,26.663903903904));
#1033 = VECTOR('',#1034,1.);
#1034 = DIRECTION('',(0.,-9.60960960961E-02,0.995372061249));
#1035 = PCURVE('',#487,#1036);
#1036 = DEFINITIONAL_REPRESENTATION('',(#1037),#1041);
#1037 = LINE('',#1038,#1039);
#1038 = CARTESIAN_POINT('',(6.28318530718,-0.));
#1039 = VECTOR('',#1040,1.);
#1040 = DIRECTION('',(0.,1.));
#1041 = ( GEOMETRIC_REPRESENTATION_CONTEXT(2) 
PARAMETRIC_REPRESENTATION_CONTEXT() REPRESENTATION_CONTEXT('2D SPACE',''
  ) );
#1042 = PCURVE('',#487,#1043);
#1043 = DEFINITIONAL_REPRESENTATION('',(#1044),#1048);
#1044 = LINE('',#1045,#1046);
#1045 = CARTESIAN_POINT('',(0.,-0.));
#1046 = VECTOR('',#1047,1.);
#1047 = DIRECTION('',(0.,1.));
#1048 = ( GEOMETRIC_REPRESENTATION_CONTEXT(2) 
PARAMETRIC_REPRESENTATION_CONTEXT() REPRESENTATION_CONTEXT('2D SPACE',''
  ) );
#1049 = ORIENTED_EDGE('',*,*,#470,.T.);
#1050 = ORIENTED_EDGE('',*,*,#1029,.T.);
#1051 = ADVANCED_FACE('',(#1052),#518,.T.);
#1052 = FACE_BOUND('',#1053,.T.);
#1053 = EDGE_LOOP('',(#1054,#1083,#1104,#1105));
#1054 = ORIENTED_EDGE('',*,*,#1055,.F.);
#1055 = EDGE_CURVE('',#1056,#1056,#1058,.T.);
#1056 = VERTEX_POINT('',#1057);
#1057 = CARTESIAN_POINT('',(62.485,140.2384573717,27.062052728404));
#1058 = SURFACE_CURVE('',#1059,(#1064,#1071),.PCURVE_S1.);
#1059 = CIRCLE('',#1060,3.75);
#1060 = AXIS2_PLACEMENT_3D('',#1061,#1062,#1063);
#1061 = CARTESIAN_POINT('',(58.735,140.2384573717,27.062052728404));
#1062 = DIRECTION('',(0.,-9.60960960961E-02,0.995372061249));
#1063 = DIRECTION('',(1.,0.,0.));
#1064 = PCURVE('',#518,#1065);
#1065 = DEFINITIONAL_REPRESENTATION('',(#1066),#1070);
#1066 = LINE('',#1067,#1068);
#1067 = CARTESIAN_POINT('',(0.,0.4));
#1068 = VECTOR('',#1069,1.);
#1069 = DIRECTION('',(1.,0.));
#1070 = ( GEOMETRIC_REPRESENTATION_CONTEXT(2) 
PARAMETRIC_REPRESENTATION_CONTEXT() REPRESENTATION_CONTEXT('2D SPACE',''
  ) );
#1071 = PCURVE('',#1072,#1077);
#1072 = PLANE('',#1073);
#1073 = AXIS2_PLACEMENT_3D('',#1074,#1075,#1076);
#1074 = CARTESIAN_POINT('',(58.735,140.2384573717,27.062052728404));
#1075 = DIRECTION('',(0.,-9.60960960961E-02,0.995372061249));
#1076 = DIRECTION('',(1.,0.,0.));
#1077 = DEFINITIONAL_REPRESENTATION('',(#1078),#1082);
#1078 = CIRCLE('',#1079,3.75);
#1079 = AXIS2_PLACEMENT_2D('',#1080,#1081);
#1080 = CARTESIAN_POINT('',(0.,0.));
#1081 = DIRECTION('',(1.,0.));
#1082 = ( GEOMETRIC_REPRESENTATION_CONTEXT(2) 
PARAMETRIC_REPRESENTATION_CONTEXT() REPRESENTATION_CONTEXT('2D SPACE',''
  ) );
#1083 = ORIENTED_EDGE('',*,*,#1084,.F.);
#1084 = EDGE_CURVE('',#502,#1056,#1085,.T.);
#1085 = SEAM_CURVE('',#1086,(#1090,#1097),.PCURVE_S1.);
#1086 = LINE('',#1087,#1088);
#1087 = CARTESIAN_POINT('',(62.485,140.27689581014,26.663903903904));
#1088 = VECTOR('',#1089,1.);
#1089 = DIRECTION('',(0.,-9.60960960961E-02,0.995372061249));
#1090 = PCURVE('',#518,#1091);
#1091 = DEFINITIONAL_REPRESENTATION('',(#1092),#1096);
#1092 = LINE('',#1093,#1094);
#1093 = CARTESIAN_POINT('',(6.28318530718,-0.));
#1094 = VECTOR('',#1095,1.);
#1095 = DIRECTION('',(0.,1.));
#1096 = ( GEOMETRIC_REPRESENTATION_CONTEXT(2) 
PARAMETRIC_REPRESENTATION_CONTEXT() REPRESENTATION_CONTEXT('2D SPACE',''
  ) );
#1097 = PCURVE('',#518,#1098);
#1098 = DEFINITIONAL_REPRESENTATION('',(#1099),#1103);
#1099 = LINE('',#1100,#1101);
#1100 = CARTESIAN_POINT('',(0.,-0.));
#1101 = VECTOR('',#1102,1.);
#1102 = DIRECTION('',(0.,1.));
#1103 = ( GEOMETRIC_REPRESENTATION_CONTEXT(2) 
PARAMETRIC_REPRESENTATION_CONTEXT() REPRESENTATION_CONTEXT('2D SPACE',''
  ) );
#1104 = ORIENTED_EDGE('',*,*,#501,.T.);
#1105 = ORIENTED_EDGE('',*,*,#1084,.T.);
#1106 = ADVANCED_FACE('',(#1107),#572,.T.);
#1107 = FACE_BOUND('',#1108,.T.);
#1108 = EDGE_LOOP('',(#1109,#1110,#1111,#1129,#1130));
#1109 = ORIENTED_EDGE('',*,*,#755,.F.);
#1110 = ORIENTED_EDGE('',*,*,#782,.F.);
#1111 = ORIENTED_EDGE('',*,*,#1112,.F.);
#1112 = EDGE_CURVE('',#905,#783,#1113,.T.);
#1113 = SURFACE_CURVE('',#1114,(#1117,#1123),.PCURVE_S1.);
#1114 = B_SPLINE_CURVE_WITH_KNOTS('',1,(#1115,#1116),.UNSPECIFIED.,.F.,
  .F.,(2,2),(0.,12.62634585353),.PIECEWISE_BEZIER_KNOTS.);
#1115 = CARTESIAN_POINT('',(72.735,141.81286279936,0.4));
#1116 = CARTESIAN_POINT('',(72.335,141.81286279936,0.));
#1117 = PCURVE('',#572,#1118);
#1118 = DEFINITIONAL_REPRESENTATION('',(#1119),#1122);
#1119 = B_SPLINE_CURVE_WITH_KNOTS('',1,(#1120,#1121),.UNSPECIFIED.,.F.,
  .F.,(2,2),(0.,12.62634585353),.PIECEWISE_BEZIER_KNOTS.);
#1120 = CARTESIAN_POINT('',(3.86171562724E-02,-0.282842712475));
#1121 = CARTESIAN_POINT('',(3.86171562724E-02,0.282842712475));
#1122 = ( GEOMETRIC_REPRESENTATION_CONTEXT(2) 
PARAMETRIC_REPRESENTATION_CONTEXT() REPRESENTATION_CONTEXT('2D SPACE',''
  ) );
#1123 = PCURVE('',#843,#1124);
#1124 = DEFINITIONAL_REPRESENTATION('',(#1125),#1128);
#1125 = B_SPLINE_CURVE_WITH_KNOTS('',1,(#1126,#1127),.UNSPECIFIED.,.F.,
  .F.,(2,2),(0.,12.62634585353),.PIECEWISE_BEZIER_KNOTS.);
#1126 = CARTESIAN_POINT('',(0.,162.72624694733));
#1127 = CARTESIAN_POINT('',(12.62634585353,162.72624694733));
#1128 = ( GEOMETRIC_REPRESENTATION_CONTEXT(2) 
PARAMETRIC_REPRESENTATION_CONTEXT() REPRESENTATION_CONTEXT('2D SPACE',''
  ) );
#1129 = ORIENTED_EDGE('',*,*,#927,.T.);
#1130 = ORIENTED_EDGE('',*,*,#556,.F.);
#1131 = ADVANCED_FACE('',(#1132),#667,.F.);
#1132 = FACE_BOUND('',#1133,.T.);
#1133 = EDGE_LOOP('',(#1134,#1135,#1136,#1155));
#1134 = ORIENTED_EDGE('',*,*,#655,.F.);
#1135 = ORIENTED_EDGE('',*,*,#705,.T.);
#1136 = ORIENTED_EDGE('',*,*,#1137,.T.);
#1137 = EDGE_CURVE('',#683,#806,#1138,.T.);
#1138 = SURFACE_CURVE('',#1139,(#1143,#1149),.PCURVE_S1.);
#1139 = LINE('',#1140,#1141);
#1140 = CARTESIAN_POINT('',(64.74,149.66443314369,0.19907441225));
#1141 = VECTOR('',#1142,1.);
#1142 = DIRECTION('',(-1.433848660811E-35,-0.672273718029,
    -0.740302673268));
#1143 = PCURVE('',#667,#1144);
#1144 = DEFINITIONAL_REPRESENTATION('',(#1145),#1148);
#1145 = B_SPLINE_CURVE_WITH_KNOTS('',1,(#1146,#1147),.UNSPECIFIED.,.F.,
  .F.,(2,2),(-0.268909487211,0.268909487211),.PIECEWISE_BEZIER_KNOTS.);
#1146 = CARTESIAN_POINT('',(-129.48,-0.268909487211));
#1147 = CARTESIAN_POINT('',(-129.48,0.268909487211));
#1148 = ( GEOMETRIC_REPRESENTATION_CONTEXT(2) 
PARAMETRIC_REPRESENTATION_CONTEXT() REPRESENTATION_CONTEXT('2D SPACE',''
  ) );
#1149 = PCURVE('',#843,#1150);
#1150 = DEFINITIONAL_REPRESENTATION('',(#1151),#1154);
#1151 = B_SPLINE_CURVE_WITH_KNOTS('',1,(#1152,#1153),.UNSPECIFIED.,.F.,
  .F.,(2,2),(-0.268909487211,0.268909487211),.PIECEWISE_BEZIER_KNOTS.);
#1152 = CARTESIAN_POINT('',(0.,150.0999010938));
#1153 = CARTESIAN_POINT('',(12.62634585353,150.0999010938));
#1154 = ( GEOMETRIC_REPRESENTATION_CONTEXT(2) 
PARAMETRIC_REPRESENTATION_CONTEXT() REPRESENTATION_CONTEXT('2D SPACE',''
  ) );
#1155 = ORIENTED_EDGE('',*,*,#879,.F.);
#1156 = ADVANCED_FACE('',(#1157),#843,.F.);
#1157 = FACE_BOUND('',#1158,.F.);
#1158 = EDGE_LOOP('',(#1159,#1160,#1161,#1162));
#1159 = ORIENTED_EDGE('',*,*,#1137,.T.);
#1160 = ORIENTED_EDGE('',*,*,#805,.T.);
#1161 = ORIENTED_EDGE('',*,*,#1112,.F.);
#1162 = ORIENTED_EDGE('',*,*,#954,.F.);
#1163 = ADVANCED_FACE('',(#1164),#1017,.T.);
#1164 = FACE_BOUND('',#1165,.T.);
#1165 = EDGE_LOOP('',(#1166));
#1166 = ORIENTED_EDGE('',*,*,#1000,.T.);
#1167 = ADVANCED_FACE('',(#1168),#1072,.T.);
#1168 = FACE_BOUND('',#1169,.T.);
#1169 = EDGE_LOOP('',(#1170));
#1170 = ORIENTED_EDGE('',*,*,#1055,.T.);
#1171 = ( GEOMETRIC_REPRESENTATION_CONTEXT(3) 
GLOBAL_UNCERTAINTY_ASSIGNED_CONTEXT((#1175)) 
GLOBAL_UNIT_ASSIGNED_CONTEXT((#1172,#1173,#1174)) REPRESENTATION_CONTEXT
('Context #1','3D Context with UNIT and UNCERTAINTY') );
#1172 = ( LENGTH_UNIT() NAMED_UNIT(*) SI_UNIT(.MILLI.,.METRE.) );
#1173 = ( NAMED_UNIT(*) PLANE_ANGLE_UNIT() SI_UNIT($,.RADIAN.) );
#1174 = ( NAMED_UNIT(*) SI_UNIT($,.STERADIAN.) SOLID_ANGLE_UNIT() );
#1175 = UNCERTAINTY_MEASURE_WITH_UNIT(LENGTH_MEASURE(5.E-05),#1172,
  'distance_accuracy_value','confusion accuracy');
#1176 = PRODUCT_RELATED_PRODUCT_CATEGORY('part',$,(#7));
ENDSEC;
END-ISO-10303-21;
